<?xml version="1.0" encoding="UTF-8"?><svg xmlns="http://www.w3.org/2000/svg" xmlns:xlink="http://www.w3.org/1999/xlink" viewBox="0 0 770 192"><defs><style>.cls-1{fill:none;}.cls-2{fill:#1f3a75;}.cls-3{isolation:isolate;}.cls-4{mix-blend-mode:multiply;}.cls-5{clip-path:url(#clippath-1);}.cls-6{clip-path:url(#clippath-2);}.cls-7{fill:#2a2748;}</style><clipPath id="clippath-1"><polygon class="cls-2" points="227.03 0 385 157.97 542.97 0 227.03 0"/></clipPath><clipPath id="clippath-2"><rect class="cls-1" x="41.23" y="-187.91" width="694.99" height="385.19"/></clipPath></defs><g class="cls-3"><g id="Layer_20"><path class="cls-2" d="M655.14.3s.69,47.66-26.22,95.7c-12.13,21.68-29.89,43.44-55.87,60.93l-17.53,35.07H214.48l-17.53-35.07c-25.98-17.49-43.74-39.25-55.87-60.93C114.17,47.96,114.86.3,114.86.3c-.07-.1-.14-.2-.21-.3h540.7c-.07.1-.14.2-.21.3Z"/><g class="cls-4"><path class="cls-2" d="M114.65,0c.07.1.14.2.21.3,0,0-.69,47.66,26.22,95.7,12.13,21.68,29.89,43.44,55.87,60.93l17.53,35.07h204.55L227.03,0h-112.38Z"/></g><g class="cls-4"><path class="cls-2" d="M655.35,0c-.07.1-.14.2-.21.3,0,0,.69,47.66-26.22,95.7-12.13,21.68-29.89,43.44-55.87,60.93l-17.53,35.07h-204.55S542.97,0,542.97,0h112.38Z"/></g><polygon class="cls-2" points="227.03 0 385 157.97 542.97 0 227.03 0"/><g class="cls-5"><g class="cls-6"><polygon class="cls-7" points="52.61 10.07 63.99 -9.64 41.23 -9.64 52.61 10.07"/><polygon class="cls-7" points="85.37 10.07 96.75 -9.64 73.99 -9.64 85.37 10.07"/><polygon class="cls-7" points="118.13 10.07 129.51 -9.64 106.75 -9.64 118.13 10.07"/><polygon class="cls-7" points="150.89 10.07 162.27 -9.64 139.51 -9.64 150.89 10.07"/><polygon class="cls-7" points="183.65 10.07 195.03 -9.64 172.27 -9.64 183.65 10.07"/><polygon class="cls-7" points="216.41 10.07 227.79 -9.64 205.03 -9.64 216.41 10.07"/><polygon class="cls-7" points="249.17 10.07 260.55 -9.64 237.79 -9.64 249.17 10.07"/><polygon class="cls-7" points="281.93 10.07 293.31 -9.64 270.55 -9.64 281.93 10.07"/><polygon class="cls-7" points="314.69 10.07 326.07 -9.64 303.31 -9.64 314.69 10.07"/><polygon class="cls-7" points="347.45 10.07 358.83 -9.64 336.07 -9.64 347.45 10.07"/><polygon class="cls-7" points="380.21 10.07 391.59 -9.64 368.83 -9.64 380.21 10.07"/><polygon class="cls-7" points="412.97 10.07 424.35 -9.64 401.59 -9.64 412.97 10.07"/><polygon class="cls-7" points="445.73 10.07 457.11 -9.64 434.35 -9.64 445.73 10.07"/><polygon class="cls-7" points="478.49 10.07 489.87 -9.64 467.11 -9.64 478.49 10.07"/><polygon class="cls-7" points="511.25 10.07 522.63 -9.64 499.87 -9.64 511.25 10.07"/><polygon class="cls-7" points="544.01 10.07 555.39 -9.64 532.63 -9.64 544.01 10.07"/><polygon class="cls-7" points="576.77 10.07 588.15 -9.64 565.39 -9.64 576.77 10.07"/><polygon class="cls-7" points="609.53 10.07 620.91 -9.64 598.15 -9.64 609.53 10.07"/><polygon class="cls-7" points="642.29 10.07 653.67 -9.64 630.91 -9.64 642.29 10.07"/><polygon class="cls-7" points="675.05 10.07 686.43 -9.64 663.67 -9.64 675.05 10.07"/><polygon class="cls-7" points="707.81 10.07 719.19 -9.64 696.43 -9.64 707.81 10.07"/><polygon class="cls-7" points="740.57 10.07 751.95 -9.64 729.19 -9.64 740.57 10.07"/><polygon class="cls-7" points="52.61 39.78 63.99 20.07 41.23 20.07 52.61 39.78"/><polygon class="cls-7" points="85.37 39.78 96.75 20.07 73.99 20.07 85.37 39.78"/><polygon class="cls-7" points="118.13 39.78 129.51 20.07 106.75 20.07 118.13 39.78"/><polygon class="cls-7" points="150.89 39.78 162.27 20.07 139.51 20.07 150.89 39.78"/><polygon class="cls-7" points="183.65 39.78 195.03 20.07 172.27 20.07 183.65 39.78"/><polygon class="cls-7" points="216.41 39.78 227.79 20.07 205.03 20.07 216.41 39.78"/><polygon class="cls-7" points="249.17 39.78 260.55 20.07 237.79 20.07 249.17 39.78"/><polygon class="cls-7" points="281.93 39.78 293.31 20.07 270.55 20.07 281.93 39.78"/><polygon class="cls-7" points="314.69 39.78 326.07 20.07 303.31 20.07 314.69 39.78"/><polygon class="cls-7" points="347.45 39.78 358.83 20.07 336.07 20.07 347.45 39.78"/><polygon class="cls-7" points="380.21 39.78 391.59 20.07 368.83 20.07 380.21 39.78"/><polygon class="cls-7" points="412.97 39.78 424.35 20.07 401.59 20.07 412.97 39.78"/><polygon class="cls-7" points="445.73 39.78 457.11 20.07 434.35 20.07 445.73 39.78"/><polygon class="cls-7" points="478.49 39.78 489.87 20.07 467.11 20.07 478.49 39.78"/><polygon class="cls-7" points="511.25 39.78 522.63 20.07 499.87 20.07 511.25 39.78"/><polygon class="cls-7" points="544.01 39.78 555.39 20.07 532.63 20.07 544.01 39.78"/><polygon class="cls-7" points="576.77 39.78 588.15 20.07 565.39 20.07 576.77 39.78"/><polygon class="cls-7" points="609.53 39.78 620.91 20.07 598.15 20.07 609.53 39.78"/><polygon class="cls-7" points="642.29 39.78 653.67 20.07 630.91 20.07 642.29 39.78"/><polygon class="cls-7" points="675.05 39.78 686.43 20.07 663.67 20.07 675.05 39.78"/><polygon class="cls-7" points="707.81 39.78 719.19 20.07 696.43 20.07 707.81 39.78"/><polygon class="cls-7" points="740.57 39.78 751.95 20.07 729.19 20.07 740.57 39.78"/><polygon class="cls-7" points="52.61 69.49 63.99 49.78 41.23 49.78 52.61 69.49"/><polygon class="cls-7" points="85.37 69.49 96.75 49.78 73.99 49.78 85.37 69.49"/><polygon class="cls-7" points="118.13 69.49 129.51 49.78 106.75 49.78 118.13 69.49"/><polygon class="cls-7" points="150.89 69.49 162.27 49.78 139.51 49.78 150.89 69.49"/><polygon class="cls-7" points="183.65 69.49 195.03 49.78 172.27 49.78 183.65 69.49"/><polygon class="cls-7" points="216.41 69.49 227.79 49.78 205.03 49.78 216.41 69.49"/><polygon class="cls-7" points="249.17 69.49 260.55 49.78 237.79 49.78 249.17 69.49"/><polygon class="cls-7" points="281.93 69.49 293.31 49.78 270.55 49.78 281.93 69.49"/><polygon class="cls-7" points="314.69 69.49 326.07 49.78 303.31 49.78 314.69 69.49"/><polygon class="cls-7" points="347.45 69.49 358.83 49.78 336.07 49.78 347.45 69.49"/><polygon class="cls-7" points="380.21 69.49 391.59 49.78 368.83 49.78 380.21 69.49"/><polygon class="cls-7" points="412.97 69.49 424.35 49.78 401.59 49.78 412.97 69.49"/><polygon class="cls-7" points="445.73 69.49 457.11 49.78 434.35 49.78 445.73 69.49"/><polygon class="cls-7" points="478.49 69.49 489.87 49.78 467.11 49.78 478.49 69.49"/><polygon class="cls-7" points="511.25 69.49 522.63 49.78 499.87 49.78 511.25 69.49"/><polygon class="cls-7" points="544.01 69.49 555.39 49.78 532.63 49.78 544.01 69.49"/><polygon class="cls-7" points="576.77 69.49 588.15 49.78 565.39 49.78 576.77 69.49"/><polygon class="cls-7" points="609.53 69.49 620.91 49.78 598.15 49.78 609.53 69.49"/><polygon class="cls-7" points="642.29 69.49 653.67 49.78 630.91 49.78 642.29 69.49"/><polygon class="cls-7" points="675.05 69.49 686.43 49.78 663.67 49.78 675.05 69.49"/><polygon class="cls-7" points="707.81 69.49 719.19 49.78 696.43 49.78 707.81 69.49"/><polygon class="cls-7" points="740.57 69.49 751.95 49.78 729.19 49.78 740.57 69.49"/><polygon class="cls-7" points="52.61 99.2 63.99 79.49 41.23 79.49 52.61 99.2"/><polygon class="cls-7" points="85.37 99.2 96.75 79.49 73.99 79.49 85.37 99.2"/><polygon class="cls-7" points="118.13 99.2 129.51 79.49 106.75 79.49 118.13 99.2"/><polygon class="cls-7" points="150.89 99.2 162.27 79.49 139.51 79.49 150.89 99.2"/><polygon class="cls-7" points="183.65 99.2 195.03 79.49 172.27 79.49 183.65 99.2"/><polygon class="cls-7" points="216.41 99.2 227.79 79.49 205.03 79.49 216.41 99.2"/><polygon class="cls-7" points="249.17 99.2 260.55 79.49 237.79 79.49 249.17 99.2"/><polygon class="cls-7" points="281.93 99.2 293.31 79.49 270.55 79.49 281.93 99.2"/><polygon class="cls-7" points="314.69 99.2 326.07 79.49 303.31 79.49 314.69 99.2"/><polygon class="cls-7" points="347.45 99.2 358.83 79.49 336.07 79.49 347.45 99.2"/><polygon class="cls-7" points="380.21 99.2 391.59 79.49 368.83 79.49 380.21 99.2"/><polygon class="cls-7" points="412.97 99.2 424.35 79.49 401.59 79.49 412.97 99.2"/><polygon class="cls-7" points="445.73 99.2 457.11 79.49 434.35 79.49 445.73 99.2"/><polygon class="cls-7" points="478.49 99.2 489.87 79.49 467.11 79.49 478.49 99.2"/><polygon class="cls-7" points="511.25 99.2 522.63 79.49 499.87 79.49 511.25 99.2"/><polygon class="cls-7" points="544.01 99.2 555.39 79.49 532.63 79.49 544.01 99.2"/><polygon class="cls-7" points="576.77 99.2 588.15 79.49 565.39 79.49 576.77 99.2"/><polygon class="cls-7" points="609.53 99.2 620.91 79.49 598.15 79.49 609.53 99.2"/><polygon class="cls-7" points="642.29 99.2 653.67 79.49 630.91 79.49 642.29 99.2"/><polygon class="cls-7" points="675.05 99.2 686.43 79.49 663.67 79.49 675.05 99.2"/><polygon class="cls-7" points="707.81 99.2 719.19 79.49 696.43 79.49 707.81 99.2"/><polygon class="cls-7" points="740.57 99.2 751.95 79.49 729.19 79.49 740.57 99.2"/><polygon class="cls-7" points="52.61 128.91 63.99 109.2 41.23 109.2 52.61 128.91"/><polygon class="cls-7" points="85.37 128.91 96.75 109.2 73.99 109.2 85.37 128.91"/><polygon class="cls-7" points="118.13 128.91 129.51 109.2 106.75 109.2 118.13 128.91"/><polygon class="cls-7" points="150.89 128.91 162.27 109.2 139.51 109.2 150.89 128.91"/><polygon class="cls-7" points="183.65 128.91 195.03 109.2 172.27 109.2 183.65 128.91"/><polygon class="cls-7" points="216.41 128.91 227.79 109.2 205.03 109.2 216.41 128.91"/><polygon class="cls-7" points="249.17 128.91 260.55 109.2 237.79 109.2 249.17 128.91"/><polygon class="cls-7" points="281.93 128.91 293.31 109.2 270.55 109.2 281.93 128.91"/><polygon class="cls-7" points="314.69 128.91 326.07 109.2 303.31 109.2 314.69 128.91"/><polygon class="cls-7" points="347.45 128.91 358.83 109.2 336.07 109.2 347.45 128.91"/><polygon class="cls-7" points="380.21 128.91 391.59 109.2 368.83 109.2 380.21 128.91"/><polygon class="cls-7" points="412.97 128.91 424.35 109.2 401.59 109.2 412.97 128.91"/><polygon class="cls-7" points="445.73 128.91 457.11 109.2 434.35 109.2 445.73 128.91"/><polygon class="cls-7" points="478.49 128.91 489.87 109.2 467.11 109.2 478.49 128.91"/><polygon class="cls-7" points="511.25 128.91 522.63 109.2 499.87 109.2 511.25 128.91"/><polygon class="cls-7" points="544.01 128.91 555.39 109.2 532.63 109.2 544.01 128.91"/><polygon class="cls-7" points="576.77 128.91 588.15 109.2 565.39 109.2 576.77 128.91"/><polygon class="cls-7" points="609.53 128.91 620.91 109.2 598.15 109.2 609.53 128.91"/><polygon class="cls-7" points="642.29 128.91 653.67 109.2 630.91 109.2 642.29 128.91"/><polygon class="cls-7" points="675.05 128.91 686.43 109.2 663.67 109.2 675.05 128.91"/><polygon class="cls-7" points="707.81 128.91 719.19 109.2 696.43 109.2 707.81 128.91"/><polygon class="cls-7" points="740.57 128.91 751.95 109.2 729.19 109.2 740.57 128.91"/><polygon class="cls-7" points="52.61 158.62 63.99 138.91 41.23 138.91 52.61 158.62"/><polygon class="cls-7" points="85.37 158.62 96.75 138.91 73.99 138.91 85.37 158.62"/><polygon class="cls-7" points="118.13 158.62 129.51 138.91 106.75 138.91 118.13 158.62"/><polygon class="cls-7" points="150.89 158.62 162.27 138.91 139.51 138.91 150.89 158.62"/><polygon class="cls-7" points="183.65 158.62 195.03 138.91 172.27 138.91 183.65 158.62"/><polygon class="cls-7" points="216.41 158.62 227.79 138.91 205.03 138.91 216.41 158.62"/><polygon class="cls-7" points="249.17 158.62 260.55 138.91 237.79 138.91 249.17 158.62"/><polygon class="cls-7" points="281.93 158.62 293.31 138.91 270.55 138.91 281.93 158.62"/><polygon class="cls-7" points="314.69 158.62 326.07 138.91 303.31 138.91 314.69 158.62"/><polygon class="cls-7" points="347.45 158.62 358.83 138.91 336.07 138.91 347.45 158.62"/><polygon class="cls-7" points="380.21 158.62 391.59 138.91 368.83 138.91 380.21 158.62"/><polygon class="cls-7" points="412.97 158.62 424.35 138.91 401.59 138.91 412.97 158.62"/><polygon class="cls-7" points="445.73 158.62 457.11 138.91 434.35 138.91 445.73 158.62"/><polygon class="cls-7" points="478.49 158.62 489.87 138.91 467.11 138.91 478.49 158.62"/><polygon class="cls-7" points="511.25 158.62 522.63 138.91 499.87 138.91 511.25 158.62"/><polygon class="cls-7" points="544.01 158.62 555.39 138.91 532.63 138.91 544.01 158.62"/><polygon class="cls-7" points="576.77 158.62 588.15 138.91 565.39 138.91 576.77 158.62"/><polygon class="cls-7" points="609.53 158.62 620.91 138.91 598.15 138.91 609.53 158.62"/><polygon class="cls-7" points="642.29 158.62 653.67 138.91 630.91 138.91 642.29 158.62"/><polygon class="cls-7" points="675.05 158.62 686.43 138.91 663.67 138.91 675.05 158.62"/><polygon class="cls-7" points="707.81 158.62 719.19 138.91 696.43 138.91 707.81 158.62"/><polygon class="cls-7" points="740.57 158.62 751.95 138.91 729.19 138.91 740.57 158.62"/><polygon class="cls-7" points="52.61 188.34 63.99 168.62 41.23 168.62 52.61 188.34"/><polygon class="cls-7" points="85.37 188.34 96.75 168.62 73.99 168.62 85.37 188.34"/><polygon class="cls-7" points="118.13 188.34 129.51 168.62 106.75 168.62 118.13 188.34"/><polygon class="cls-7" points="150.89 188.34 162.27 168.62 139.51 168.62 150.89 188.34"/><polygon class="cls-7" points="183.65 188.34 195.03 168.62 172.27 168.62 183.65 188.34"/><polygon class="cls-7" points="216.41 188.34 227.79 168.62 205.03 168.62 216.41 188.34"/><polygon class="cls-7" points="249.17 188.34 260.55 168.62 237.79 168.62 249.17 188.34"/><polygon class="cls-7" points="281.93 188.34 293.31 168.62 270.55 168.62 281.93 188.34"/><polygon class="cls-7" points="314.69 188.34 326.07 168.62 303.31 168.62 314.69 188.34"/><polygon class="cls-7" points="347.45 188.34 358.83 168.62 336.07 168.62 347.45 188.34"/><polygon class="cls-7" points="380.21 188.34 391.59 168.62 368.83 168.62 380.21 188.34"/><polygon class="cls-7" points="412.97 188.34 424.35 168.62 401.59 168.62 412.97 188.34"/><polygon class="cls-7" points="445.73 188.34 457.11 168.62 434.35 168.62 445.73 188.34"/><polygon class="cls-7" points="478.49 188.34 489.87 168.62 467.11 168.62 478.49 188.34"/><polygon class="cls-7" points="511.25 188.34 522.63 168.62 499.87 168.62 511.25 188.34"/><polygon class="cls-7" points="544.01 188.34 555.39 168.62 532.63 168.62 544.01 188.34"/><polygon class="cls-7" points="576.77 188.34 588.15 168.62 565.39 168.62 576.77 188.34"/><polygon class="cls-7" points="609.53 188.34 620.91 168.62 598.15 168.62 609.53 188.34"/><polygon class="cls-7" points="642.29 188.34 653.67 168.62 630.91 168.62 642.29 188.34"/><polygon class="cls-7" points="675.05 188.34 686.43 168.62 663.67 168.62 675.05 188.34"/><polygon class="cls-7" points="707.81 188.34 719.19 168.62 696.43 168.62 707.81 188.34"/><polygon class="cls-7" points="740.57 188.34 751.95 168.62 729.19 168.62 740.57 188.34"/></g></g></g></g></svg>