<?xml version="1.0" encoding="UTF-8"?><svg id="Layer_21" xmlns="http://www.w3.org/2000/svg" viewBox="0 0 770 192"><defs><style>.cls-1{fill:#1f3a75;}.cls-2{fill:#fff;}.cls-3{fill:#2a2748;}.cls-4{fill:#ebeaf3;}.cls-5{fill:#2c2b59;}</style></defs><polygon class="cls-5" points="213.15 -.02 213.15 192.02 554.24 192.02 554.22 .02 213.15 -.02"/><path class="cls-4" d="M213.15.02h35.08c24.31,0,44.05,19.74,44.05,44.05v147.95h-79.14V.02h0Z"/><path class="cls-2" d="M475.11.02h79.14v147.95c0,24.31-19.74,44.05-44.05,44.05h-35.08V.02h0Z" transform="translate(1029.35 192.05) rotate(-180)"/><rect class="cls-2" x="252.72" y="44.31" width="261.95" height="147.71"/><polygon class="cls-1" points="456.95 90.89 480.91 89.5 456.94 90.68 480.61 86.72 456.9 90.48 480.01 83.98 456.85 90.3 479.11 81.32 456.78 90.12 477.93 78.77 456.69 89.95 476.49 76.38 456.58 89.78 474.8 74.15 456.44 89.62 472.88 72.13 456.29 89.48 470.75 70.32 456.13 89.36 468.44 68.75 455.96 89.26 465.96 67.44 455.79 89.17 463.36 66.4 455.61 89.11 460.65 65.65 455.42 89.07 457.89 65.2 455.22 89.05 455.11 65.05 455 89.05 452.33 65.2 454.79 89.07 449.56 65.65 454.61 89.11 446.85 66.4 454.43 89.17 444.24 67.44 454.25 89.26 441.77 68.75 454.08 89.36 439.46 70.32 453.92 89.48 437.33 72.13 453.77 89.62 435.41 74.16 453.63 89.78 433.72 76.38 453.52 89.95 432.28 78.78 453.43 90.12 431.1 81.32 453.36 90.3 430.2 83.98 453.31 90.48 429.6 86.72 453.28 90.68 429.3 89.5 453.26 90.89 429.3 92.28 453.28 91.1 429.6 95.06 453.31 91.3 430.2 97.8 453.36 91.48 431.1 100.46 453.43 91.66 432.28 103.01 453.52 91.83 433.72 105.4 453.63 92 435.42 107.63 453.77 92.15 437.34 109.65 453.92 92.3 439.46 111.46 454.08 92.42 441.77 113.03 454.25 92.52 444.25 114.34 454.43 92.6 446.85 115.38 454.61 92.67 449.56 116.13 454.79 92.71 452.32 116.58 455 92.73 455.11 116.73 455.22 92.73 457.89 116.58 455.42 92.71 460.65 116.13 455.61 92.67 463.36 115.38 455.79 92.6 465.97 114.34 455.96 92.52 468.44 113.03 456.13 92.42 470.75 111.45 456.29 92.3 472.88 109.65 456.44 92.15 474.8 107.62 456.58 92 476.49 105.4 456.69 91.83 477.94 103 456.78 91.66 479.11 100.46 456.85 91.48 480.01 97.8 456.9 91.3 480.61 95.06 456.94 91.1 480.91 92.28 456.95 90.89"/><polygon class="cls-1" points="456.95 149.64 480.91 148.25 456.94 149.43 480.61 145.47 456.9 149.23 480.01 142.73 456.85 149.05 479.11 140.07 456.78 148.87 477.93 137.52 456.69 148.7 476.49 135.13 456.58 148.53 474.8 132.9 456.44 148.37 472.88 130.88 456.29 148.23 470.75 129.07 456.13 148.11 468.44 127.5 455.96 148.01 465.96 126.19 455.79 147.92 463.36 125.15 455.61 147.86 460.65 124.4 455.42 147.82 457.89 123.95 455.22 147.8 455.11 123.8 455 147.8 452.33 123.95 454.79 147.82 449.56 124.4 454.61 147.86 446.85 125.15 454.43 147.92 444.24 126.19 454.25 148.01 441.77 127.5 454.08 148.11 439.46 129.07 453.92 148.23 437.33 130.88 453.77 148.38 435.41 132.91 453.63 148.53 433.72 135.13 453.52 148.7 432.28 137.53 453.43 148.87 431.1 140.07 453.36 149.05 430.2 142.73 453.31 149.23 429.6 145.47 453.28 149.43 429.3 148.25 453.26 149.64 429.3 151.03 453.28 149.85 429.6 153.81 453.31 150.05 430.2 156.55 453.36 150.23 431.1 159.21 453.43 150.41 432.28 161.76 453.52 150.58 433.72 164.15 453.63 150.75 435.42 166.38 453.77 150.9 437.34 168.4 453.92 151.05 439.46 170.21 454.08 151.17 441.77 171.78 454.25 151.27 444.25 173.09 454.43 151.36 446.85 174.13 454.61 151.42 449.56 174.88 454.79 151.46 452.32 175.33 455 151.48 455.11 175.48 455.22 151.48 457.89 175.33 455.42 151.46 460.65 174.88 455.61 151.42 463.36 174.13 455.79 151.36 465.97 173.09 455.96 151.27 468.44 171.78 456.13 151.17 470.75 170.21 456.29 151.05 472.88 168.4 456.44 150.9 474.8 166.37 456.58 150.75 476.49 164.15 456.69 150.58 477.94 161.75 456.78 150.41 479.11 159.21 456.85 150.23 480.01 156.55 456.9 150.05 480.61 153.81 456.94 149.85 480.91 151.03 456.95 149.64"/><polygon class="cls-1" points="314.14 90.89 338.1 89.5 314.12 90.68 337.8 86.72 314.09 90.48 337.2 83.98 314.04 90.3 336.3 81.32 313.97 90.12 335.12 78.77 313.88 89.95 333.68 76.38 313.77 89.78 331.98 74.15 313.63 89.62 330.06 72.13 313.48 89.48 327.94 70.32 313.32 89.36 325.63 68.75 313.15 89.26 323.15 67.44 312.97 89.17 320.54 66.4 312.79 89.11 317.84 65.65 312.61 89.07 315.08 65.2 312.4 89.05 312.29 65.05 312.18 89.05 309.51 65.2 311.98 89.07 306.75 65.65 311.79 89.11 304.04 66.4 311.61 89.17 301.43 67.44 311.44 89.26 298.96 68.75 311.27 89.36 296.65 70.32 311.11 89.48 294.52 72.13 310.96 89.62 292.6 74.16 310.82 89.78 290.91 76.38 310.71 89.95 289.46 78.78 310.62 90.12 288.29 81.32 310.55 90.3 287.39 83.98 310.5 90.48 286.79 86.72 310.46 90.68 286.49 89.5 310.45 90.89 286.49 92.28 310.46 91.1 286.79 95.06 310.5 91.3 287.39 97.8 310.55 91.48 288.29 100.46 310.62 91.66 289.47 103.01 310.71 91.83 290.91 105.4 310.82 92 292.6 107.63 310.96 92.15 294.52 109.65 311.11 92.3 296.65 111.46 311.27 92.42 298.96 113.03 311.44 92.52 301.44 114.34 311.61 92.6 304.04 115.38 311.79 92.67 306.75 116.13 311.98 92.71 309.51 116.58 312.18 92.73 312.29 116.73 312.4 92.73 315.07 116.58 312.61 92.71 317.84 116.13 312.79 92.67 320.55 115.38 312.97 92.6 323.16 114.34 313.15 92.52 325.63 113.03 313.32 92.42 327.94 111.45 313.48 92.3 330.07 109.65 313.63 92.15 331.99 107.62 313.77 92 333.68 105.4 313.88 91.83 335.12 103 313.97 91.66 336.3 100.46 314.04 91.48 337.2 97.8 314.09 91.3 337.8 95.06 314.12 91.1 338.1 92.28 314.14 90.89"/><polygon class="cls-1" points="314.14 149.64 338.1 148.25 314.12 149.43 337.8 145.47 314.09 149.23 337.2 142.73 314.04 149.05 336.3 140.07 313.97 148.87 335.12 137.52 313.88 148.7 333.68 135.13 313.77 148.53 331.98 132.9 313.63 148.37 330.06 130.88 313.48 148.23 327.94 129.07 313.32 148.11 325.63 127.5 313.15 148.01 323.15 126.19 312.97 147.92 320.54 125.15 312.79 147.86 317.84 124.4 312.61 147.82 315.08 123.95 312.4 147.8 312.29 123.8 312.18 147.8 309.51 123.95 311.98 147.82 306.75 124.4 311.79 147.86 304.04 125.15 311.61 147.92 301.43 126.19 311.44 148.01 298.96 127.5 311.27 148.11 296.65 129.07 311.11 148.23 294.52 130.88 310.96 148.38 292.6 132.91 310.82 148.53 290.91 135.13 310.71 148.7 289.46 137.53 310.62 148.87 288.29 140.07 310.55 149.05 287.39 142.73 310.5 149.23 286.79 145.47 310.46 149.43 286.49 148.25 310.45 149.64 286.49 151.03 310.46 149.85 286.79 153.81 310.5 150.05 287.39 156.55 310.55 150.23 288.29 159.21 310.62 150.41 289.47 161.76 310.71 150.58 290.91 164.15 310.82 150.75 292.6 166.38 310.96 150.9 294.52 168.4 311.11 151.05 296.65 170.21 311.27 151.17 298.96 171.78 311.44 151.27 301.44 173.09 311.61 151.36 304.04 174.13 311.79 151.42 306.75 174.88 311.98 151.46 309.51 175.33 312.18 151.48 312.29 175.48 312.4 151.48 315.07 175.33 312.61 151.46 317.84 174.88 312.79 151.42 320.55 174.13 312.97 151.36 323.16 173.09 313.15 151.27 325.63 171.78 313.32 151.17 327.94 170.21 313.48 151.05 330.07 168.4 313.63 150.9 331.99 166.37 313.77 150.75 333.68 164.15 313.88 150.58 335.12 161.75 313.97 150.41 336.3 159.21 314.04 150.23 337.2 156.55 314.09 150.05 337.8 153.81 314.12 149.85 338.1 151.03 314.14 149.64"/><polygon class="cls-3" points="417.73 .03 461.96 44.26 305.39 44.31 349.67 .03 417.73 .03"/></svg>