<?xml version="1.0" encoding="UTF-8"?>
<svg id="Layer_3" xmlns="http://www.w3.org/2000/svg" xmlns:xlink="http://www.w3.org/1999/xlink" version="1.1" viewBox="0 0 770 192">
  <!-- Generator: Adobe Illustrator 29.6.1, SVG Export Plug-In . SVG Version: 2.1.1 Build 9)  -->
  <defs>
    <style>
      .st0, .st1 {
        fill: none;
      }

      .st1 {
        stroke: #fcca0c;
        stroke-miterlimit: 10;
        stroke-width: 1.07px;
      }

      .st2 {
        fill: #e83c56;
      }

      .st3 {
        fill: #1f3a75;
      }

      .st4 {
        fill: #ea536a;
      }

      .st5, .st6 {
        isolation: isolate;
      }

      .st7 {
        fill: #ee768f;
      }

      .st8 {
        fill: #fffef3;
      }

      .st9 {
        clip-path: url(#clippath-1);
      }

      .st10 {
        clip-path: url(#clippath-3);
      }

      .st11 {
        clip-path: url(#clippath-2);
      }

      .st12 {
        fill: #ec6278;
      }

      .st6 {
        mix-blend-mode: multiply;
      }

      .st6, .st13 {
        fill: #ef7c97;
      }

      .st14 {
        fill: #2a2748;
      }

      .st15 {
        opacity: .8;
      }

      .st16 {
        fill: #e9445c;
      }

      .st17 {
        fill: #ea4c63;
      }

      .st18 {
        fill: #eb5a71;
      }

      .st19 {
        fill: #ed6f87;
      }

      .st20 {
        clip-path: url(#clippath);
      }

      .st21 {
        fill: #ed6880;
      }
    </style>
    <clipPath id="clippath">
      <path class="st0" d="M712.5,4.21c0,71.17-18.67,134.06-57.15,187.79H114.65C76.17,138.27,57.5,75.38,57.5,4.21,57.5,2.8,57.54,1.4,57.55,0h654.9c.01,1.4.05,2.8.05,4.21Z"/>
    </clipPath>
    <clipPath id="clippath-1">
      <rect class="st0" x="41.23" y="4.1" width="694.99" height="352.35"/>
    </clipPath>
    <clipPath id="clippath-2">
      <path class="st0" d="M597.13,96.99l31.24-31.24C647.3,46.82,660.11,24.08,666.8,0H103.2c6.69,24.08,19.5,46.82,38.43,65.75l31.24,31.24,95,95.01h234.25l95-95.01h.01Z"/>
    </clipPath>
    <clipPath id="clippath-3">
      <polygon class="st0" points="428.3 -.12 385 187.22 341.7 -.12 428.3 -.12"/>
    </clipPath>
  </defs>
  <g class="st5">
    <g id="Layer_1">
      <path class="st3" d="M712.5,4.21c0,71.17-18.67,134.06-57.15,187.79H114.65C76.17,138.27,57.5,75.38,57.5,4.21c0-1.41.04-2.81.05-4.21h654.9c.01,1.4.05,2.8.05,4.21Z"/>
      <g class="st20">
        <g class="st9">
          <g>
            <polygon class="st14" points="52.61 23.81 63.99 4.1 41.23 4.1 52.61 23.81"/>
            <polygon class="st14" points="85.37 23.81 96.75 4.1 73.99 4.1 85.37 23.81"/>
            <polygon class="st14" points="118.13 23.81 129.51 4.1 106.75 4.1 118.13 23.81"/>
            <polygon class="st14" points="150.89 23.81 162.27 4.1 139.51 4.1 150.89 23.81"/>
            <polygon class="st14" points="183.65 23.81 195.03 4.1 172.27 4.1 183.65 23.81"/>
            <polygon class="st14" points="216.41 23.81 227.79 4.1 205.03 4.1 216.41 23.81"/>
            <polygon class="st14" points="249.17 23.81 260.55 4.1 237.79 4.1 249.17 23.81"/>
            <polygon class="st14" points="281.93 23.81 293.31 4.1 270.55 4.1 281.93 23.81"/>
            <polygon class="st14" points="314.69 23.81 326.07 4.1 303.31 4.1 314.69 23.81"/>
            <polygon class="st14" points="347.45 23.81 358.83 4.1 336.07 4.1 347.45 23.81"/>
            <polygon class="st14" points="380.21 23.81 391.59 4.1 368.83 4.1 380.21 23.81"/>
            <polygon class="st14" points="412.97 23.81 424.35 4.1 401.59 4.1 412.97 23.81"/>
            <polygon class="st14" points="445.73 23.81 457.11 4.1 434.35 4.1 445.73 23.81"/>
            <polygon class="st14" points="478.49 23.81 489.87 4.1 467.11 4.1 478.49 23.81"/>
            <polygon class="st14" points="511.25 23.81 522.63 4.1 499.87 4.1 511.25 23.81"/>
            <polygon class="st14" points="544.01 23.81 555.39 4.1 532.63 4.1 544.01 23.81"/>
            <polygon class="st14" points="576.77 23.81 588.15 4.1 565.39 4.1 576.77 23.81"/>
            <polygon class="st14" points="609.53 23.81 620.91 4.1 598.15 4.1 609.53 23.81"/>
            <polygon class="st14" points="642.29 23.81 653.67 4.1 630.91 4.1 642.29 23.81"/>
            <polygon class="st14" points="675.05 23.81 686.43 4.1 663.67 4.1 675.05 23.81"/>
            <polygon class="st14" points="707.81 23.81 719.19 4.1 696.43 4.1 707.81 23.81"/>
            <polygon class="st14" points="740.57 23.81 751.95 4.1 729.19 4.1 740.57 23.81"/>
            <polygon class="st14" points="52.61 53.52 63.99 33.81 41.23 33.81 52.61 53.52"/>
            <polygon class="st14" points="85.37 53.52 96.75 33.81 73.99 33.81 85.37 53.52"/>
            <polygon class="st14" points="118.13 53.52 129.51 33.81 106.75 33.81 118.13 53.52"/>
            <polygon class="st14" points="150.89 53.52 162.27 33.81 139.51 33.81 150.89 53.52"/>
            <polygon class="st14" points="183.65 53.52 195.03 33.81 172.27 33.81 183.65 53.52"/>
            <polygon class="st14" points="216.41 53.52 227.79 33.81 205.03 33.81 216.41 53.52"/>
            <polygon class="st14" points="249.17 53.52 260.55 33.81 237.79 33.81 249.17 53.52"/>
            <polygon class="st14" points="281.93 53.52 293.31 33.81 270.55 33.81 281.93 53.52"/>
            <polygon class="st14" points="314.69 53.52 326.07 33.81 303.31 33.81 314.69 53.52"/>
            <polygon class="st14" points="347.45 53.52 358.83 33.81 336.07 33.81 347.45 53.52"/>
            <polygon class="st14" points="380.21 53.52 391.59 33.81 368.83 33.81 380.21 53.52"/>
            <polygon class="st14" points="412.97 53.52 424.35 33.81 401.59 33.81 412.97 53.52"/>
            <polygon class="st14" points="445.73 53.52 457.11 33.81 434.35 33.81 445.73 53.52"/>
            <polygon class="st14" points="478.49 53.52 489.87 33.81 467.11 33.81 478.49 53.52"/>
            <polygon class="st14" points="511.25 53.52 522.63 33.81 499.87 33.81 511.25 53.52"/>
            <polygon class="st14" points="544.01 53.52 555.39 33.81 532.63 33.81 544.01 53.52"/>
            <polygon class="st14" points="576.77 53.52 588.15 33.81 565.39 33.81 576.77 53.52"/>
            <polygon class="st14" points="609.53 53.52 620.91 33.81 598.15 33.81 609.53 53.52"/>
            <polygon class="st14" points="642.29 53.52 653.67 33.81 630.91 33.81 642.29 53.52"/>
            <polygon class="st14" points="675.05 53.52 686.43 33.81 663.67 33.81 675.05 53.52"/>
            <polygon class="st14" points="707.81 53.52 719.19 33.81 696.43 33.81 707.81 53.52"/>
            <polygon class="st14" points="740.57 53.52 751.95 33.81 729.19 33.81 740.57 53.52"/>
            <polygon class="st14" points="52.61 83.23 63.99 63.52 41.23 63.52 52.61 83.23"/>
            <polygon class="st14" points="85.37 83.23 96.75 63.52 73.99 63.52 85.37 83.23"/>
            <polygon class="st14" points="118.13 83.23 129.51 63.52 106.75 63.52 118.13 83.23"/>
            <polygon class="st14" points="150.89 83.23 162.27 63.52 139.51 63.52 150.89 83.23"/>
            <polygon class="st14" points="183.65 83.23 195.03 63.52 172.27 63.52 183.65 83.23"/>
            <polygon class="st14" points="216.41 83.23 227.79 63.52 205.03 63.52 216.41 83.23"/>
            <polygon class="st14" points="249.17 83.23 260.55 63.52 237.79 63.52 249.17 83.23"/>
            <polygon class="st14" points="281.93 83.23 293.31 63.52 270.55 63.52 281.93 83.23"/>
            <polygon class="st14" points="314.69 83.23 326.07 63.52 303.31 63.52 314.69 83.23"/>
            <polygon class="st14" points="347.45 83.23 358.83 63.52 336.07 63.52 347.45 83.23"/>
            <polygon class="st14" points="380.21 83.23 391.59 63.52 368.83 63.52 380.21 83.23"/>
            <polygon class="st14" points="412.97 83.23 424.35 63.52 401.59 63.52 412.97 83.23"/>
            <polygon class="st14" points="445.73 83.23 457.11 63.52 434.35 63.52 445.73 83.23"/>
            <polygon class="st14" points="478.49 83.23 489.87 63.52 467.11 63.52 478.49 83.23"/>
            <polygon class="st14" points="511.25 83.23 522.63 63.52 499.87 63.52 511.25 83.23"/>
            <polygon class="st14" points="544.01 83.23 555.39 63.52 532.63 63.52 544.01 83.23"/>
            <polygon class="st14" points="576.77 83.23 588.15 63.52 565.39 63.52 576.77 83.23"/>
            <polygon class="st14" points="609.53 83.23 620.91 63.52 598.15 63.52 609.53 83.23"/>
            <polygon class="st14" points="642.29 83.23 653.67 63.52 630.91 63.52 642.29 83.23"/>
            <polygon class="st14" points="675.05 83.23 686.43 63.52 663.67 63.52 675.05 83.23"/>
            <polygon class="st14" points="707.81 83.23 719.19 63.52 696.43 63.52 707.81 83.23"/>
            <polygon class="st14" points="740.57 83.23 751.95 63.52 729.19 63.52 740.57 83.23"/>
            <polygon class="st14" points="52.61 112.94 63.99 93.23 41.23 93.23 52.61 112.94"/>
            <polygon class="st14" points="85.37 112.94 96.75 93.23 73.99 93.23 85.37 112.94"/>
            <polygon class="st14" points="118.13 112.94 129.51 93.23 106.75 93.23 118.13 112.94"/>
            <polygon class="st14" points="150.89 112.94 162.27 93.23 139.51 93.23 150.89 112.94"/>
            <polygon class="st14" points="183.65 112.94 195.03 93.23 172.27 93.23 183.65 112.94"/>
            <polygon class="st14" points="216.41 112.94 227.79 93.23 205.03 93.23 216.41 112.94"/>
            <polygon class="st14" points="249.17 112.94 260.55 93.23 237.79 93.23 249.17 112.94"/>
            <polygon class="st14" points="281.93 112.94 293.31 93.23 270.55 93.23 281.93 112.94"/>
            <polygon class="st14" points="314.69 112.94 326.07 93.23 303.31 93.23 314.69 112.94"/>
            <polygon class="st14" points="347.45 112.94 358.83 93.23 336.07 93.23 347.45 112.94"/>
            <polygon class="st14" points="380.21 112.94 391.59 93.23 368.83 93.23 380.21 112.94"/>
            <polygon class="st14" points="412.97 112.94 424.35 93.23 401.59 93.23 412.97 112.94"/>
            <polygon class="st14" points="445.73 112.94 457.11 93.23 434.35 93.23 445.73 112.94"/>
            <polygon class="st14" points="478.49 112.94 489.87 93.23 467.11 93.23 478.49 112.94"/>
            <polygon class="st14" points="511.25 112.94 522.63 93.23 499.87 93.23 511.25 112.94"/>
            <polygon class="st14" points="544.01 112.94 555.39 93.23 532.63 93.23 544.01 112.94"/>
            <polygon class="st14" points="576.77 112.94 588.15 93.23 565.39 93.23 576.77 112.94"/>
            <polygon class="st14" points="609.53 112.94 620.91 93.23 598.15 93.23 609.53 112.94"/>
            <polygon class="st14" points="642.29 112.94 653.67 93.23 630.91 93.23 642.29 112.94"/>
            <polygon class="st14" points="675.05 112.94 686.43 93.23 663.67 93.23 675.05 112.94"/>
            <polygon class="st14" points="707.81 112.94 719.19 93.23 696.43 93.23 707.81 112.94"/>
            <polygon class="st14" points="740.57 112.94 751.95 93.23 729.19 93.23 740.57 112.94"/>
            <polygon class="st14" points="52.61 142.65 63.99 122.94 41.23 122.94 52.61 142.65"/>
            <polygon class="st14" points="85.37 142.65 96.75 122.94 73.99 122.94 85.37 142.65"/>
            <polygon class="st14" points="118.13 142.65 129.51 122.94 106.75 122.94 118.13 142.65"/>
            <polygon class="st14" points="150.89 142.65 162.27 122.94 139.51 122.94 150.89 142.65"/>
            <polygon class="st14" points="183.65 142.65 195.03 122.94 172.27 122.94 183.65 142.65"/>
            <polygon class="st14" points="216.41 142.65 227.79 122.94 205.03 122.94 216.41 142.65"/>
            <polygon class="st14" points="249.17 142.65 260.55 122.94 237.79 122.94 249.17 142.65"/>
            <polygon class="st14" points="281.93 142.65 293.31 122.94 270.55 122.94 281.93 142.65"/>
            <polygon class="st14" points="314.69 142.65 326.07 122.94 303.31 122.94 314.69 142.65"/>
            <polygon class="st14" points="347.45 142.65 358.83 122.94 336.07 122.94 347.45 142.65"/>
            <polygon class="st14" points="380.21 142.65 391.59 122.94 368.83 122.94 380.21 142.65"/>
            <polygon class="st14" points="412.97 142.65 424.35 122.94 401.59 122.94 412.97 142.65"/>
            <polygon class="st14" points="445.73 142.65 457.11 122.94 434.35 122.94 445.73 142.65"/>
            <polygon class="st14" points="478.49 142.65 489.87 122.94 467.11 122.94 478.49 142.65"/>
            <polygon class="st14" points="511.25 142.65 522.63 122.94 499.87 122.94 511.25 142.65"/>
            <polygon class="st14" points="544.01 142.65 555.39 122.94 532.63 122.94 544.01 142.65"/>
            <polygon class="st14" points="576.77 142.65 588.15 122.94 565.39 122.94 576.77 142.65"/>
            <polygon class="st14" points="609.53 142.65 620.91 122.94 598.15 122.94 609.53 142.65"/>
            <polygon class="st14" points="642.29 142.65 653.67 122.94 630.91 122.94 642.29 142.65"/>
            <polygon class="st14" points="675.05 142.65 686.43 122.94 663.67 122.94 675.05 142.65"/>
            <polygon class="st14" points="707.81 142.65 719.19 122.94 696.43 122.94 707.81 142.65"/>
            <polygon class="st14" points="740.57 142.65 751.95 122.94 729.19 122.94 740.57 142.65"/>
            <polygon class="st14" points="52.61 172.36 63.99 152.65 41.23 152.65 52.61 172.36"/>
            <polygon class="st14" points="85.37 172.36 96.75 152.65 73.99 152.65 85.37 172.36"/>
            <polygon class="st14" points="118.13 172.36 129.51 152.65 106.75 152.65 118.13 172.36"/>
            <polygon class="st14" points="150.89 172.36 162.27 152.65 139.51 152.65 150.89 172.36"/>
            <polygon class="st14" points="183.65 172.36 195.03 152.65 172.27 152.65 183.65 172.36"/>
            <polygon class="st14" points="216.41 172.36 227.79 152.65 205.03 152.65 216.41 172.36"/>
            <polygon class="st14" points="249.17 172.36 260.55 152.65 237.79 152.65 249.17 172.36"/>
            <polygon class="st14" points="281.93 172.36 293.31 152.65 270.55 152.65 281.93 172.36"/>
            <polygon class="st14" points="314.69 172.36 326.07 152.65 303.31 152.65 314.69 172.36"/>
            <polygon class="st14" points="347.45 172.36 358.83 152.65 336.07 152.65 347.45 172.36"/>
            <polygon class="st14" points="380.21 172.36 391.59 152.65 368.83 152.65 380.21 172.36"/>
            <polygon class="st14" points="412.97 172.36 424.35 152.65 401.59 152.65 412.97 172.36"/>
            <polygon class="st14" points="445.73 172.36 457.11 152.65 434.35 152.65 445.73 172.36"/>
            <polygon class="st14" points="478.49 172.36 489.87 152.65 467.11 152.65 478.49 172.36"/>
            <polygon class="st14" points="511.25 172.36 522.63 152.65 499.87 152.65 511.25 172.36"/>
            <polygon class="st14" points="544.01 172.36 555.39 152.65 532.63 152.65 544.01 172.36"/>
            <polygon class="st14" points="576.77 172.36 588.15 152.65 565.39 152.65 576.77 172.36"/>
            <polygon class="st14" points="609.53 172.36 620.91 152.65 598.15 152.65 609.53 172.36"/>
            <polygon class="st14" points="642.29 172.36 653.67 152.65 630.91 152.65 642.29 172.36"/>
            <polygon class="st14" points="675.05 172.36 686.43 152.65 663.67 152.65 675.05 172.36"/>
            <polygon class="st14" points="707.81 172.36 719.19 152.65 696.43 152.65 707.81 172.36"/>
            <polygon class="st14" points="740.57 172.36 751.95 152.65 729.19 152.65 740.57 172.36"/>
            <polygon class="st14" points="52.61 202.07 63.99 182.36 41.23 182.36 52.61 202.07"/>
            <polygon class="st14" points="85.37 202.07 96.75 182.36 73.99 182.36 85.37 202.07"/>
            <polygon class="st14" points="118.13 202.07 129.51 182.36 106.75 182.36 118.13 202.07"/>
            <polygon class="st14" points="150.89 202.07 162.27 182.36 139.51 182.36 150.89 202.07"/>
            <polygon class="st14" points="183.65 202.07 195.03 182.36 172.27 182.36 183.65 202.07"/>
            <polygon class="st14" points="216.41 202.07 227.79 182.36 205.03 182.36 216.41 202.07"/>
            <polygon class="st14" points="249.17 202.07 260.55 182.36 237.79 182.36 249.17 202.07"/>
            <polygon class="st14" points="281.93 202.07 293.31 182.36 270.55 182.36 281.93 202.07"/>
            <polygon class="st14" points="314.69 202.07 326.07 182.36 303.31 182.36 314.69 202.07"/>
            <polygon class="st14" points="347.45 202.07 358.83 182.36 336.07 182.36 347.45 202.07"/>
            <polygon class="st14" points="380.21 202.07 391.59 182.36 368.83 182.36 380.21 202.07"/>
            <polygon class="st14" points="412.97 202.07 424.35 182.36 401.59 182.36 412.97 202.07"/>
            <polygon class="st14" points="445.73 202.07 457.11 182.36 434.35 182.36 445.73 202.07"/>
            <polygon class="st14" points="478.49 202.07 489.87 182.36 467.11 182.36 478.49 202.07"/>
            <polygon class="st14" points="511.25 202.07 522.63 182.36 499.87 182.36 511.25 202.07"/>
            <polygon class="st14" points="544.01 202.07 555.39 182.36 532.63 182.36 544.01 202.07"/>
            <polygon class="st14" points="576.77 202.07 588.15 182.36 565.39 182.36 576.77 202.07"/>
            <polygon class="st14" points="609.53 202.07 620.91 182.36 598.15 182.36 609.53 202.07"/>
            <polygon class="st14" points="642.29 202.07 653.67 182.36 630.91 182.36 642.29 202.07"/>
            <polygon class="st14" points="675.05 202.07 686.43 182.36 663.67 182.36 675.05 202.07"/>
            <polygon class="st14" points="707.81 202.07 719.19 182.36 696.43 182.36 707.81 202.07"/>
            <polygon class="st14" points="740.57 202.07 751.95 182.36 729.19 182.36 740.57 202.07"/>
            <polygon class="st14" points="52.61 231.79 63.99 212.07 41.23 212.07 52.61 231.79"/>
            <polygon class="st14" points="85.37 231.79 96.75 212.07 73.99 212.07 85.37 231.79"/>
            <polygon class="st14" points="118.13 231.79 129.51 212.07 106.75 212.07 118.13 231.79"/>
            <polygon class="st14" points="150.89 231.79 162.27 212.07 139.51 212.07 150.89 231.79"/>
            <polygon class="st14" points="183.65 231.79 195.03 212.07 172.27 212.07 183.65 231.79"/>
            <polygon class="st14" points="216.41 231.79 227.79 212.07 205.03 212.07 216.41 231.79"/>
            <polygon class="st14" points="249.17 231.79 260.55 212.07 237.79 212.07 249.17 231.79"/>
            <polygon class="st14" points="281.93 231.79 293.31 212.07 270.55 212.07 281.93 231.79"/>
            <polygon class="st14" points="314.69 231.79 326.07 212.07 303.31 212.07 314.69 231.79"/>
            <polygon class="st14" points="347.45 231.79 358.83 212.07 336.07 212.07 347.45 231.79"/>
            <polygon class="st14" points="380.21 231.79 391.59 212.07 368.83 212.07 380.21 231.79"/>
            <polygon class="st14" points="412.97 231.79 424.35 212.07 401.59 212.07 412.97 231.79"/>
            <polygon class="st14" points="445.73 231.79 457.11 212.07 434.35 212.07 445.73 231.79"/>
            <polygon class="st14" points="478.49 231.79 489.87 212.07 467.11 212.07 478.49 231.79"/>
            <polygon class="st14" points="511.25 231.79 522.63 212.07 499.87 212.07 511.25 231.79"/>
            <polygon class="st14" points="544.01 231.79 555.39 212.07 532.63 212.07 544.01 231.79"/>
            <polygon class="st14" points="576.77 231.79 588.15 212.07 565.39 212.07 576.77 231.79"/>
            <polygon class="st14" points="609.53 231.79 620.91 212.07 598.15 212.07 609.53 231.79"/>
            <polygon class="st14" points="642.29 231.79 653.67 212.07 630.91 212.07 642.29 231.79"/>
            <polygon class="st14" points="675.05 231.79 686.43 212.07 663.67 212.07 675.05 231.79"/>
            <polygon class="st14" points="707.81 231.79 719.19 212.07 696.43 212.07 707.81 231.79"/>
            <polygon class="st14" points="740.57 231.79 751.95 212.07 729.19 212.07 740.57 231.79"/>
            <polygon class="st14" points="52.61 261.49 63.99 241.79 41.23 241.79 52.61 261.49"/>
            <polygon class="st14" points="85.37 261.49 96.75 241.79 73.99 241.79 85.37 261.49"/>
            <polygon class="st14" points="118.13 261.49 129.51 241.79 106.75 241.79 118.13 261.49"/>
            <polygon class="st14" points="150.89 261.49 162.27 241.79 139.51 241.79 150.89 261.49"/>
            <polygon class="st14" points="183.65 261.49 195.03 241.79 172.27 241.79 183.65 261.49"/>
            <polygon class="st14" points="216.41 261.49 227.79 241.79 205.03 241.79 216.41 261.49"/>
            <polygon class="st14" points="249.17 261.49 260.55 241.79 237.79 241.79 249.17 261.49"/>
            <polygon class="st14" points="281.93 261.49 293.31 241.79 270.55 241.79 281.93 261.49"/>
            <polygon class="st14" points="314.69 261.49 326.07 241.79 303.31 241.79 314.69 261.49"/>
            <polygon class="st14" points="347.45 261.49 358.83 241.79 336.07 241.79 347.45 261.49"/>
            <polygon class="st14" points="380.21 261.49 391.59 241.79 368.83 241.79 380.21 261.49"/>
            <polygon class="st14" points="412.97 261.49 424.35 241.79 401.59 241.79 412.97 261.49"/>
            <polygon class="st14" points="445.73 261.49 457.11 241.79 434.35 241.79 445.73 261.49"/>
            <polygon class="st14" points="478.49 261.49 489.87 241.79 467.11 241.79 478.49 261.49"/>
            <polygon class="st14" points="511.25 261.49 522.63 241.79 499.87 241.79 511.25 261.49"/>
            <polygon class="st14" points="544.01 261.49 555.39 241.79 532.63 241.79 544.01 261.49"/>
            <polygon class="st14" points="576.77 261.49 588.15 241.79 565.39 241.79 576.77 261.49"/>
            <polygon class="st14" points="609.53 261.49 620.91 241.79 598.15 241.79 609.53 261.49"/>
            <polygon class="st14" points="642.29 261.49 653.67 241.79 630.91 241.79 642.29 261.49"/>
            <polygon class="st14" points="675.05 261.49 686.43 241.79 663.67 241.79 675.05 261.49"/>
            <polygon class="st14" points="707.81 261.49 719.19 241.79 696.43 241.79 707.81 261.49"/>
            <polygon class="st14" points="740.57 261.49 751.95 241.79 729.19 241.79 740.57 261.49"/>
            <polygon class="st14" points="52.61 291.2 63.99 271.49 41.23 271.49 52.61 291.2"/>
            <polygon class="st14" points="85.37 291.2 96.75 271.49 73.99 271.49 85.37 291.2"/>
            <polygon class="st14" points="118.13 291.2 129.51 271.49 106.75 271.49 118.13 291.2"/>
            <polygon class="st14" points="150.89 291.2 162.27 271.49 139.51 271.49 150.89 291.2"/>
            <polygon class="st14" points="183.65 291.2 195.03 271.49 172.27 271.49 183.65 291.2"/>
            <polygon class="st14" points="216.41 291.2 227.79 271.49 205.03 271.49 216.41 291.2"/>
            <polygon class="st14" points="249.17 291.2 260.55 271.49 237.79 271.49 249.17 291.2"/>
            <polygon class="st14" points="281.93 291.2 293.31 271.49 270.55 271.49 281.93 291.2"/>
            <polygon class="st14" points="314.69 291.2 326.07 271.49 303.31 271.49 314.69 291.2"/>
            <polygon class="st14" points="347.45 291.2 358.83 271.49 336.07 271.49 347.45 291.2"/>
            <polygon class="st14" points="380.21 291.2 391.59 271.49 368.83 271.49 380.21 291.2"/>
            <polygon class="st14" points="412.97 291.2 424.35 271.49 401.59 271.49 412.97 291.2"/>
            <polygon class="st14" points="445.73 291.2 457.11 271.49 434.35 271.49 445.73 291.2"/>
            <polygon class="st14" points="478.49 291.2 489.87 271.49 467.11 271.49 478.49 291.2"/>
            <polygon class="st14" points="511.25 291.2 522.63 271.49 499.87 271.49 511.25 291.2"/>
            <polygon class="st14" points="544.01 291.2 555.39 271.49 532.63 271.49 544.01 291.2"/>
            <polygon class="st14" points="576.77 291.2 588.15 271.49 565.39 271.49 576.77 291.2"/>
            <polygon class="st14" points="609.53 291.2 620.91 271.49 598.15 271.49 609.53 291.2"/>
            <polygon class="st14" points="642.29 291.2 653.67 271.49 630.91 271.49 642.29 291.2"/>
            <polygon class="st14" points="675.05 291.2 686.43 271.49 663.67 271.49 675.05 291.2"/>
            <polygon class="st14" points="707.81 291.2 719.19 271.49 696.43 271.49 707.81 291.2"/>
            <polygon class="st14" points="740.57 291.2 751.95 271.49 729.19 271.49 740.57 291.2"/>
            <polygon class="st14" points="52.61 320.92 63.99 301.2 41.23 301.2 52.61 320.92"/>
            <polygon class="st14" points="85.37 320.92 96.75 301.2 73.99 301.2 85.37 320.92"/>
            <polygon class="st14" points="118.13 320.92 129.51 301.2 106.75 301.2 118.13 320.92"/>
            <polygon class="st14" points="150.89 320.92 162.27 301.2 139.51 301.2 150.89 320.92"/>
            <polygon class="st14" points="183.65 320.92 195.03 301.2 172.27 301.2 183.65 320.92"/>
            <polygon class="st14" points="216.41 320.92 227.79 301.2 205.03 301.2 216.41 320.92"/>
            <polygon class="st14" points="249.17 320.92 260.55 301.2 237.79 301.2 249.17 320.92"/>
            <polygon class="st14" points="281.93 320.92 293.31 301.2 270.55 301.2 281.93 320.92"/>
            <polygon class="st14" points="314.69 320.92 326.07 301.2 303.31 301.2 314.69 320.92"/>
            <polygon class="st14" points="347.45 320.92 358.83 301.2 336.07 301.2 347.45 320.92"/>
            <polygon class="st14" points="380.21 320.92 391.59 301.2 368.83 301.2 380.21 320.92"/>
            <polygon class="st14" points="412.97 320.92 424.35 301.2 401.59 301.2 412.97 320.92"/>
            <polygon class="st14" points="445.73 320.92 457.11 301.2 434.35 301.2 445.73 320.92"/>
            <polygon class="st14" points="478.49 320.92 489.87 301.2 467.11 301.2 478.49 320.92"/>
            <polygon class="st14" points="511.25 320.92 522.63 301.2 499.87 301.2 511.25 320.92"/>
            <polygon class="st14" points="544.01 320.92 555.39 301.2 532.63 301.2 544.01 320.92"/>
            <polygon class="st14" points="576.77 320.92 588.15 301.2 565.39 301.2 576.77 320.92"/>
            <polygon class="st14" points="609.53 320.92 620.91 301.2 598.15 301.2 609.53 320.92"/>
            <polygon class="st14" points="642.29 320.92 653.67 301.2 630.91 301.2 642.29 320.92"/>
            <polygon class="st14" points="675.05 320.92 686.43 301.2 663.67 301.2 675.05 320.92"/>
            <polygon class="st14" points="707.81 320.92 719.19 301.2 696.43 301.2 707.81 320.92"/>
            <polygon class="st14" points="740.57 320.92 751.95 301.2 729.19 301.2 740.57 320.92"/>
            <polygon class="st14" points="52.61 350.63 63.99 330.92 41.23 330.92 52.61 350.63"/>
            <polygon class="st14" points="85.37 350.63 96.75 330.92 73.99 330.92 85.37 350.63"/>
            <polygon class="st14" points="118.13 350.63 129.51 330.92 106.75 330.92 118.13 350.63"/>
            <polygon class="st14" points="150.89 350.63 162.27 330.92 139.51 330.92 150.89 350.63"/>
            <polygon class="st14" points="183.65 350.63 195.03 330.92 172.27 330.92 183.65 350.63"/>
            <polygon class="st14" points="216.41 350.63 227.79 330.92 205.03 330.92 216.41 350.63"/>
            <polygon class="st14" points="249.17 350.63 260.55 330.92 237.79 330.92 249.17 350.63"/>
            <polygon class="st14" points="281.93 350.63 293.31 330.92 270.55 330.92 281.93 350.63"/>
            <polygon class="st14" points="314.69 350.63 326.07 330.92 303.31 330.92 314.69 350.63"/>
            <polygon class="st14" points="347.45 350.63 358.83 330.92 336.07 330.92 347.45 350.63"/>
            <polygon class="st14" points="380.21 350.63 391.59 330.92 368.83 330.92 380.21 350.63"/>
            <polygon class="st14" points="412.97 350.63 424.35 330.92 401.59 330.92 412.97 350.63"/>
            <polygon class="st14" points="445.73 350.63 457.11 330.92 434.35 330.92 445.73 350.63"/>
            <polygon class="st14" points="478.49 350.63 489.87 330.92 467.11 330.92 478.49 350.63"/>
            <polygon class="st14" points="511.25 350.63 522.63 330.92 499.87 330.92 511.25 350.63"/>
            <polygon class="st14" points="544.01 350.63 555.39 330.92 532.63 330.92 544.01 350.63"/>
            <polygon class="st14" points="576.77 350.63 588.15 330.92 565.39 330.92 576.77 350.63"/>
            <polygon class="st14" points="609.53 350.63 620.91 330.92 598.15 330.92 609.53 350.63"/>
            <polygon class="st14" points="642.29 350.63 653.67 330.92 630.91 330.92 642.29 350.63"/>
            <polygon class="st14" points="675.05 350.63 686.43 330.92 663.67 330.92 675.05 350.63"/>
            <polygon class="st14" points="707.81 350.63 719.19 330.92 696.43 330.92 707.81 350.63"/>
            <polygon class="st14" points="740.57 350.63 751.95 330.92 729.19 330.92 740.57 350.63"/>
          </g>
        </g>
      </g>
      <path class="st8" d="M597.13,96.99l31.24-31.24C647.3,46.82,660.11,24.08,666.8,0H103.2c6.69,24.08,19.5,46.82,38.43,65.75l31.24,31.24,95,95.01h234.25l95-95.01s.01,0,.01,0Z"/>
      <g class="st11">
        <g>
          <line class="st1" x1="309.41" y1="-4.45" x2="299.64" y2="198.82"/>
          <line class="st1" x1="311.9" y1="-4.45" x2="307.76" y2="198.72"/>
          <line class="st1" x1="314.39" y1="-4.45" x2="315.89" y2="198.63"/>
          <line class="st1" x1="316.88" y1="-4.45" x2="324.01" y2="198.54"/>
          <line class="st1" x1="319.37" y1="-4.45" x2="332.13" y2="198.44"/>
          <line class="st1" x1="321.86" y1="-4.45" x2="340.25" y2="198.35"/>
          <line class="st1" x1="324.35" y1="-4.45" x2="348.38" y2="198.26"/>
          <line class="st1" x1="326.84" y1="-4.45" x2="356.5" y2="198.16"/>
          <line class="st1" x1="329.33" y1="-4.45" x2="364.62" y2="198.07"/>
          <line class="st1" x1="331.82" y1="-4.45" x2="372.74" y2="197.98"/>
          <line class="st1" x1="460.59" y1="-4.45" x2="470.36" y2="198.82"/>
          <line class="st1" x1="458.1" y1="-4.45" x2="462.24" y2="198.72"/>
          <line class="st1" x1="455.61" y1="-4.45" x2="454.11" y2="198.63"/>
          <line class="st1" x1="453.12" y1="-4.45" x2="445.99" y2="198.54"/>
          <line class="st1" x1="450.63" y1="-4.45" x2="437.87" y2="198.44"/>
          <line class="st1" x1="448.14" y1="-4.45" x2="429.75" y2="198.35"/>
          <line class="st1" x1="445.65" y1="-4.45" x2="421.62" y2="198.26"/>
          <line class="st1" x1="443.16" y1="-4.45" x2="413.5" y2="198.16"/>
          <line class="st1" x1="440.67" y1="-4.45" x2="405.38" y2="198.07"/>
          <line class="st1" x1="438.18" y1="-4.45" x2="397.26" y2="197.98"/>
        </g>
      </g>
      <g class="st15">
        <polygon class="st13" points="261.39 44.57 281.35 42.88 261.32 43.07 281.03 39.51 261.11 41.61 280.39 36.18 260.76 40.17 279.44 32.93 260.28 38.77 278.17 29.77 259.66 37.43 276.62 26.76 258.92 36.15 274.78 23.91 258.06 34.94 272.69 21.26 257.08 33.81 270.36 18.81 256 32.78 267.8 16.6 254.83 31.86 265.05 14.63 253.59 31.06 262.11 12.93 252.27 30.38 259.03 11.52 250.9 29.83 255.82 10.41 249.48 29.41 252.52 9.62 248.03 29.14 249.17 9.14 246.55 29 245.8 8.98 245.05 29 242.42 9.14 243.57 29.14 239.07 9.62 242.11 29.41 235.77 10.41 240.69 29.83 232.56 11.52 239.32 30.38 229.48 12.94 238.01 31.06 226.54 14.63 236.76 31.86 223.79 16.6 235.59 32.78 221.23 18.81 234.51 33.81 218.9 21.26 233.54 34.94 216.81 23.92 232.67 36.15 214.98 26.77 231.93 37.43 213.42 29.78 231.32 38.78 212.16 32.93 230.83 40.17 211.2 36.18 230.49 41.61 210.56 39.51 230.28 43.07 210.25 42.88 230.21 44.57 210.25 46.25 230.28 46.06 210.56 49.62 230.49 47.53 211.2 52.95 230.83 48.97 212.16 56.21 231.32 50.36 213.42 59.36 231.93 51.71 214.98 62.38 232.67 52.99 216.81 65.22 233.54 54.2 218.9 67.88 234.51 55.33 221.24 70.33 235.59 56.35 223.79 72.54 236.76 57.27 226.55 74.51 238.01 58.08 229.48 76.2 239.32 58.76 232.56 77.61 240.7 59.31 235.77 78.72 242.11 59.72 239.07 79.52 243.56 60 242.42 80 245.05 60.14 245.8 80.16 246.55 60.14 249.17 80 248.03 60 252.52 79.52 249.48 59.72 255.82 78.72 250.9 59.31 259.03 77.61 252.27 58.76 262.12 76.2 253.59 58.08 265.05 74.51 254.84 57.27 267.8 72.54 256 56.35 270.36 70.32 257.08 55.33 272.69 67.88 258.06 54.2 274.79 65.22 258.92 52.99 276.62 62.37 259.66 51.71 278.17 59.36 260.28 50.36 279.44 56.21 260.76 48.97 280.39 52.95 261.11 47.53 281.03 49.62 261.32 46.06 281.35 46.26 261.39 44.57"/>
      </g>
      <g class="st15">
        <polygon class="st13" points="487.9 44.57 507.92 43.82 488.06 41.2 508.06 42.34 488.54 37.84 508.33 40.88 489.33 34.54 508.75 39.47 490.44 31.33 509.3 38.09 491.85 28.25 509.98 36.78 493.55 25.32 510.78 35.53 495.52 22.56 511.7 34.36 497.73 20.01 512.73 33.28 500.18 17.67 513.86 32.31 502.84 15.58 515.07 31.45 505.68 13.75 516.35 30.7 508.7 12.19 517.69 30.09 511.85 10.93 519.09 29.61 515.1 9.97 520.53 29.26 518.43 9.34 521.99 29.05 521.8 9.02 523.49 28.98 525.17 9.02 524.98 29.05 528.54 9.34 526.45 29.26 531.87 9.97 527.89 29.61 535.13 10.93 529.28 30.09 538.28 12.19 530.63 30.7 541.29 13.75 531.91 31.45 544.14 15.58 533.12 32.31 546.8 17.68 534.25 33.29 549.25 20.01 535.27 34.36 551.46 22.56 536.19 35.53 553.43 25.32 537 36.78 555.12 28.25 537.68 38.1 556.53 31.34 538.23 39.47 557.64 34.54 538.64 40.88 558.44 37.84 538.92 42.34 558.92 41.2 539.06 43.82 559.08 44.57 539.06 45.32 558.92 47.94 538.92 46.8 558.44 51.3 538.64 48.25 557.64 54.59 538.23 49.67 556.53 57.8 537.68 51.04 555.12 60.89 537 52.36 553.42 63.82 536.19 53.61 551.46 66.58 535.27 54.78 549.24 69.13 534.24 55.85 546.8 71.46 533.12 56.83 544.14 73.56 531.91 57.69 541.29 75.39 530.63 58.43 538.28 76.95 529.28 59.05 535.13 78.21 527.89 59.53 531.87 79.16 526.45 59.88 528.54 79.8 524.98 60.09 525.17 80.12 523.49 60.16 521.8 80.12 521.99 60.09 518.43 79.8 520.53 59.88 515.1 79.16 519.09 59.53 511.84 78.21 517.69 59.05 508.69 76.94 516.35 58.43 505.68 75.39 515.07 57.69 502.83 73.55 513.86 56.83 500.18 71.46 512.73 55.85 497.73 69.13 511.7 54.77 495.51 66.57 510.78 53.61 493.55 63.82 509.98 52.36 491.85 60.89 509.3 51.04 490.44 57.8 508.75 49.67 489.33 54.59 508.33 48.25 488.54 51.3 508.06 46.8 488.06 47.94 507.92 45.32 487.9 44.57"/>
      </g>
      <polygon class="st2" points="428.3 -.13 385 187.22 341.7 -.13 428.3 -.13"/>
      <g class="st10">
        <g>
          <circle class="st2" cx="385" cy="187.22" r="251.14"/>
          <circle class="st16" cx="385" cy="187.22" r="230.46"/>
          <circle class="st17" cx="385" cy="187.22" r="209.79"/>
          <circle class="st4" cx="385" cy="187.22" r="189.12"/>
          <circle class="st18" cx="385" cy="187.22" r="168.45"/>
          <circle class="st12" cx="385" cy="187.22" r="147.77"/>
          <circle class="st21" cx="385" cy="187.22" r="127.1"/>
          <circle class="st19" cx="385" cy="187.22" r="106.43"/>
          <circle class="st7" cx="385" cy="187.22" r="85.75"/>
          <circle class="st13" cx="385" cy="187.22" r="65.08"/>
          <rect class="st6" x="385" y="-80.14" width="86.93" height="291.97"/>
        </g>
      </g>
    </g>
  </g>
</svg>