<?xml version="1.0" encoding="UTF-8"?><svg id="Layer_18" xmlns="http://www.w3.org/2000/svg" xmlns:xlink="http://www.w3.org/1999/xlink" viewBox="0 0 770 192"><defs><style>.cls-1{fill:none;stroke:#ebeaf3;stroke-miterlimit:10;stroke-width:10px;}.cls-2{fill:#fff;}.cls-3{clip-path:url(#clippath);}</style><clipPath id="clippath"><path class="cls-2" d="M709.06,68.6c0,29.73-24.34,53.84-54.04,54v69.4s-540.04,0-540.04,0v-69.4c-29.7-.16-54.04-24.27-54.04-54S85.11,14.59,114.94,14.59s54.02,24.18,54.02,54.01c0-29.83,24.18-54.01,54.01-54.01s54.01,24.18,54.01,54.01c0-29.83,24.18-54.01,54.01-54.01s54.01,24.18,54.01,54.01c0-29.83,24.19-54.01,54.01-54.01s54.01,24.18,54.01,54.01c0-29.83,24.18-54.01,54.01-54.01s54.01,24.18,54.01,54.01c0-29.83,24.19-54.01,54.02-54.01s54,24.18,54,54.01Z"/></clipPath></defs><path class="cls-2" d="M709.06,68.6c0,29.73-24.34,53.84-54.04,54v69.4s-540.04,0-540.04,0v-69.4c-29.7-.16-54.04-24.27-54.04-54S85.11,14.59,114.94,14.59s54.02,24.18,54.02,54.01c0-29.83,24.18-54.01,54.01-54.01s54.01,24.18,54.01,54.01c0-29.83,24.18-54.01,54.01-54.01s54.01,24.18,54.01,54.01c0-29.83,24.19-54.01,54.01-54.01s54.01,24.18,54.01,54.01c0-29.83,24.18-54.01,54.01-54.01s54.01,24.18,54.01,54.01c0-29.83,24.19-54.01,54.02-54.01s54,24.18,54,54.01Z"/><g class="cls-3"><polyline class="cls-1" points="87.75 178 95.57 206 103.38 178 111.2 206 119.02 178 126.84 206 134.66 178 142.48 206 150.3 178 158.12 206 165.93 178 173.75 206 181.57 178 189.39 206 197.22 178 205.04 206 212.85 178 220.67 206 228.49 178 236.32 206 244.14 178 251.96 206 259.78 178 267.6 206 275.42 178 283.24 206 291.06 178 298.88 206 306.7 178 314.53 206 322.35 178 330.17 206 337.99 178 345.81 206 353.64 178 361.46 206 369.28 178 377.1 206 384.92 178 392.75 206 400.57 178 408.39 206 416.22 178 424.04 206 431.86 178 439.68 206 447.51 178 455.33 206 463.15 178 470.98 206 478.8 178 486.62 206 494.44 178 502.26 206 510.09 178 517.91 206 525.73 178 533.55 206 541.37 178 549.2 206 557.02 178 564.85 206 572.67 178 580.5 206 588.32 178 596.15 206 603.97 178 611.8 206 619.63 178 627.45 206 635.28 178 643.1 206 650.93 178 658.76 206 666.59 178 674.42 206 682.25 178"/></g></svg>