<?xml version="1.0" encoding="UTF-8"?>
<svg id="Layer_23" xmlns="http://www.w3.org/2000/svg" xmlns:xlink="http://www.w3.org/1999/xlink" version="1.1" viewBox="0 0 770 192">
  <!-- Generator: Adobe Illustrator 29.6.1, SVG Export Plug-In . SVG Version: 2.1.1 Build 9)  -->
  <defs>
    <style>
      .st0, .st1, .st2, .st3, .st4 {
        fill: none;
      }

      .st5 {
        fill: #e83c56;
      }

      .st1 {
        stroke: #fff;
      }

      .st1, .st2, .st3, .st4 {
        stroke-miterlimit: 10;
      }

      .st2 {
        stroke: #e83c56;
      }

      .st6 {
        fill: #1f3a75;
      }

      .st3 {
        stroke: #1f3a75;
      }

      .st7 {
        clip-path: url(#clippath-1);
      }

      .st8 {
        clip-path: url(#clippath-2);
      }

      .st4 {
        stroke: #007d70;
      }

      .st9 {
        fill: #eb7389;
      }

      .st10 {
        fill: #fcca0c;
      }

      .st11 {
        fill: #007d70;
      }

      .st12 {
        clip-path: url(#clippath);
      }
    </style>
    <clipPath id="clippath">
      <path class="st0" d="M655.32,90.78h-.6c0-50.17-34.52-90.84-77.11-90.84s-77.12,40.67-77.12,90.84v.92c-77.26-29.79-154.45-29.84-231.58,0v-.92c0-50.17-34.53-90.84-77.12-90.84s-77.11,40.67-77.11,90.84c.24,27.62.34,63.76.36,101.22h539.91c.02-37.46.13-73.6.36-101.22h.01Z"/>
    </clipPath>
    <clipPath id="clippath-1">
      <path class="st0" d="M192.14,39.76l-18.19,24.24c-15.91,21.2-15.91,50.35,0,71.54l18.19,24.24,18.19-24.24c15.91-21.2,15.91-50.35,0-71.54l-18.19-24.24Z"/>
    </clipPath>
    <clipPath id="clippath-2">
      <path class="st0" d="M577.26,39.76l-18.19,24.24c-15.91,21.2-15.91,50.35,0,71.54l18.19,24.24,18.19-24.24c15.91-21.2,15.91-50.35,0-71.54l-18.19-24.24Z"/>
    </clipPath>
  </defs>
  <rect class="st9" x="192.13" y=".17" width="385.13" height="126.51"/>
  <path class="st11" d="M655.32,90.78h-.6c0-50.17-34.52-90.84-77.11-90.84s-77.12,40.67-77.12,90.84v.92c-77.26-29.79-154.45-29.84-231.58,0v-.92c0-50.17-34.53-90.84-77.12-90.84s-77.11,40.67-77.11,90.84c.24,27.62.34,63.76.36,101.22h539.91c.02-37.46.13-73.6.36-101.22h.01Z"/>
  <g class="st12">
    <g>
      <line class="st2" x1="301.54" y1="161.05" x2="292.17" y2="236.09"/>
      <line class="st2" x1="301.54" y1="161.05" x2="250.87" y2="236.09"/>
      <line class="st2" x1="301.54" y1="161.05" x2="271.52" y2="236.09"/>
      <line class="st2" x1="467.86" y1="161.05" x2="477.23" y2="236.09"/>
      <line class="st2" x1="467.86" y1="161.05" x2="518.53" y2="236.09"/>
      <line class="st2" x1="467.86" y1="161.05" x2="497.88" y2="236.09"/>
    </g>
  </g>
  <polyline class="st3" points="82.62 80.97 168.63 80.33 82.78 75.17 168.7 79.06 83.24 69.36 168.83 77.82 84.01 63.58 169.03 76.6 85.09 57.83 169.29 75.39 86.48 52.14 169.61 74.2 88.17 46.54 170 73.03 90.16 41.04 170.45 71.88 92.44 35.66 170.96 70.75 95 30.42 171.54 69.65 97.83 25.32 172.18 68.57 100.93 20.39 172.88 67.52 104.28 15.63 173.64 66.5 107.88 11.06 174.45 65.53 111.71 6.69 175.31 64.59 115.76 2.53 176.22 63.7 120.03 -1.41 177.18 62.87 124.5 -5.12 178.17 62.08 129.16 -8.6 179.21 61.35 134.01 -11.82 180.27 60.69 139.02 -14.79 181.36 60.08 144.2 -17.49 182.48 59.53 149.51 -19.91 183.62 59.05 154.95 -22.04 184.78 58.63 160.5 -23.88 185.96 58.27 166.15 -25.42 187.16 57.98 171.86 -26.66 188.37 57.75 177.63 -27.58 189.61 57.59 183.43 -28.2 190.86 57.49 189.24 -28.51 192.14 57.46 195.04 -28.51 193.42 57.49 200.85 -28.2 194.67 57.59 206.64 -27.58 195.9 57.75 212.41 -26.66 197.12 57.98 218.13 -25.42 198.32 58.27 223.78 -23.88 199.49 58.63 229.33 -22.04 200.66 59.05 234.77 -19.9 201.8 59.53 240.09 -17.48 202.91 60.08 245.26 -14.78 204.01 60.69 250.28 -11.82 205.07 61.36 255.12 -8.59 206.1 62.08 259.79 -5.12 207.1 62.87 264.26 -1.4 208.06 63.71 268.53 2.54 208.97 64.59 272.58 6.7 209.83 65.53 276.41 11.07 210.64 66.5 280 15.64 211.4 67.52 283.35 20.4 212.1 68.57 286.45 25.33 212.74 69.65 289.28 30.42 213.31 70.75 291.84 35.67 213.83 71.88 294.12 41.05 214.28 73.03 296.11 46.55 214.67 74.2 297.8 52.15 214.99 75.39 299.19 57.83 215.25 76.6 300.27 63.58 215.45 77.82 301.04 69.36 215.58 79.06 301.5 75.17 215.65 80.33 301.65 80.97"/>
  <polyline class="st3" points="467.75 80.97 553.75 80.33 467.9 75.17 553.82 79.06 468.36 69.36 553.95 77.82 469.13 63.58 554.15 76.6 470.21 57.83 554.41 75.39 471.6 52.14 554.73 74.2 473.29 46.54 555.12 73.03 475.28 41.04 555.57 71.88 477.56 35.66 556.09 70.75 480.12 30.42 556.67 69.65 482.96 25.32 557.3 68.57 486.05 20.39 558 67.52 489.41 15.63 558.76 66.5 493 11.06 559.57 65.53 496.83 6.69 560.43 64.59 500.88 2.53 561.34 63.7 505.15 -1.41 562.3 62.87 509.62 -5.12 563.3 62.08 514.29 -8.6 564.33 61.35 519.13 -11.82 565.39 60.69 524.15 -14.79 566.49 60.08 529.32 -17.49 567.61 59.53 534.63 -19.91 568.75 59.05 540.08 -22.04 569.91 58.63 545.63 -23.88 571.08 58.27 551.27 -25.42 572.28 57.98 556.99 -26.66 573.5 57.75 562.75 -27.58 574.73 57.59 568.55 -28.2 575.98 57.49 574.36 -28.51 577.26 57.46 580.16 -28.51 578.54 57.49 585.97 -28.2 579.79 57.59 591.77 -27.58 581.03 57.75 597.54 -26.66 582.24 57.98 603.26 -25.42 583.44 58.27 608.9 -23.88 584.62 58.63 614.45 -22.04 585.78 59.05 619.9 -19.9 586.92 59.53 625.21 -17.48 588.04 60.08 630.38 -14.78 589.13 60.69 635.4 -11.82 590.2 61.36 640.25 -8.59 591.23 62.08 644.91 -5.12 592.22 62.87 649.38 -1.4 593.18 63.71 653.65 2.54 594.09 64.59 657.7 6.7 594.96 65.53 661.53 11.07 595.77 66.5 665.13 15.64 596.52 67.52 668.48 20.4 597.22 68.57 671.57 25.33 597.86 69.65 674.41 30.42 598.44 70.75 676.97 35.67 598.95 71.88 679.24 41.05 599.4 73.03 681.23 46.55 599.79 74.2 682.92 52.15 600.11 75.39 684.31 57.83 600.37 76.6 685.39 63.58 600.57 77.82 686.16 69.36 600.7 79.06 686.62 75.17 600.77 80.33 686.78 80.97"/>
  <polyline class="st1" points="263.07 118.57 257 121.59 262.76 125.18 256.43 127.61 261.82 131.73 255.29 133.54 260.26 138.16 253.59 139.34 258.09 144.41 251.33 144.95 255.34 150.42 248.56 150.31 252.02 156.15 245.28 155.4 248.18 161.53 241.54 160.14 243.84 166.52 237.36 164.52 239.06 171.09 232.8 168.48 233.87 175.18 227.88 171.99 228.31 178.76 222.65 175.02 222.43 181.8 217.16 177.54 216.29 184.27 211.45 179.52 209.95 186.13 205.58 180.94 203.45 187.38 199.6 181.8 196.86 188.01 193.56 182.09 190.25 188.01 187.52 181.8 183.67 187.38 181.54 180.94 177.17 186.13 175.66 179.52 170.82 184.27 169.96 177.54 164.68 181.8 164.46 175.02 158.8 178.76 159.23 171.99 153.25 175.18 154.31 168.48 148.05 171.08 149.75 164.52 143.27 166.52 145.57 160.14 138.94 161.52 141.83 155.39 135.09 156.14 138.56 150.31 131.78 150.42 135.78 144.95 129.02 144.41 133.53 139.34 126.85 138.16 131.82 133.54 125.29 131.73 130.68 127.61 124.35 125.18 130.11 121.59 124.04 118.57"/>
  <polyline class="st1" points="645.36 118.57 639.29 121.59 645.05 125.18 638.72 127.61 644.11 131.73 637.58 133.54 642.55 138.16 635.87 139.34 640.38 144.41 633.62 144.95 637.62 150.42 630.84 150.31 634.31 156.15 627.56 155.4 630.46 161.53 623.82 160.14 626.13 166.52 619.65 164.52 621.34 171.09 615.08 168.48 616.15 175.18 610.16 171.99 610.59 178.76 604.93 175.02 604.72 181.8 599.44 177.54 598.58 184.27 593.73 179.52 592.23 186.13 587.86 180.94 585.73 187.38 581.88 181.8 579.15 188.01 575.84 182.09 572.54 188.01 569.8 181.8 565.95 187.38 563.82 180.94 559.45 186.13 557.95 179.52 553.1 184.27 552.24 177.54 546.96 181.8 546.75 175.02 541.09 178.76 541.52 171.99 535.53 175.18 536.6 168.48 530.34 171.08 532.03 164.52 525.55 166.52 527.86 160.14 521.22 161.52 524.12 155.39 517.38 156.14 520.84 150.31 514.06 150.42 518.07 144.95 511.3 144.41 515.81 139.34 509.14 138.16 514.11 133.54 507.58 131.73 512.97 127.61 506.64 125.18 512.4 121.59 506.33 118.57"/>
  <polyline class="st3" points="453.7 .17 315.7 5.87 453.7 11.57 315.7 17.28 453.7 22.99 315.7 28.69 453.7 34.4 315.7 40.1 453.7 45.81 315.7 51.51 453.7 57.22 315.7 62.93 453.7 68.64 315.7 74.35 453.7 80.05 315.7 85.76 453.7 91.47 315.7 97.18 453.7 102.89 315.7 108.6 453.7 114.31 315.7 120.02 453.7 125.73 315.7 131.44 453.7 137.14 315.7 142.85 453.7 148.56 315.7 154.27 453.7 159.98 315.7 165.7 453.7 171.41 315.7 177.12 453.7 182.84 315.7 188.56"/>
  <path class="st5" d="M248.65,80.97v37.59c0,31.22-25.3,56.52-56.51,56.52h0c-31.21,0-56.51-25.3-56.51-56.52v-37.59c0-31.22,25.3-56.52,56.51-56.52h0c31.21,0,56.51,25.3,56.51,56.52Z"/>
  <path class="st10" d="M192.14,165.09c-25.65,0-46.52-20.87-46.52-46.52v-37.6c0-25.65,20.87-46.52,46.52-46.52s46.52,20.87,46.52,46.52v37.6c0,25.65-20.87,46.52-46.52,46.52Z"/>
  <path class="st6" d="M192.14,39.76l-18.19,24.24c-15.91,21.2-15.91,50.35,0,71.54l18.19,24.24,18.19-24.24c15.91-21.2,15.91-50.35,0-71.54l-18.19-24.24h0Z"/>
  <g class="st7">
    <polyline class="st4" points="222.14 39.76 162.14 41.72 222.14 43.68 162.14 45.65 222.14 47.62 162.14 49.58 222.14 51.55 162.14 53.52 222.14 55.48 162.14 57.44 222.14 59.41 162.14 61.37 222.14 63.34 162.14 65.3 222.14 67.27 162.14 69.24 222.14 71.21 162.14 73.17 222.14 75.14 162.14 77.1 222.14 79.07 162.14 81.04 222.14 83 162.14 84.97 222.14 86.94 162.14 88.9 222.14 90.87 162.14 92.84 222.14 94.81 162.14 96.77 222.14 98.74 162.14 100.71 222.14 102.68 162.14 104.65 222.14 106.61 162.14 108.58 222.14 110.54 162.14 112.51 222.14 114.47 162.14 116.44 222.14 118.41 162.14 120.37 222.14 122.34 162.14 124.31 222.14 126.28 162.14 128.24 222.14 130.21 162.14 132.18 222.14 134.15 162.14 136.12 222.14 138.09 162.14 140.06 222.14 142.03 162.14 144 222.14 145.98 162.14 147.94 222.14 149.91 162.14 151.89 222.14 153.86 162.14 155.83 222.14 157.81 162.14 159.79"/>
  </g>
  <path class="st5" d="M192.14,58.85l-3.65,16.53c-3.19,14.45-3.19,34.33,0,48.78l3.65,16.53,3.65-16.53c3.19-14.45,3.19-34.33,0-48.78,0,0-3.65-16.53-3.65-16.53Z"/>
  <path class="st5" d="M633.77,80.98v37.59c0,31.22-25.3,56.52-56.51,56.52h0c-31.21,0-56.51-25.3-56.51-56.52v-37.59c0-31.22,25.3-56.52,56.51-56.52h0c31.21,0,56.51,25.3,56.51,56.52Z"/>
  <path class="st10" d="M577.26,165.09c-25.65,0-46.52-20.87-46.52-46.52v-37.6c0-25.65,20.87-46.52,46.52-46.52s46.52,20.87,46.52,46.52v37.6c0,25.65-20.87,46.52-46.52,46.52Z"/>
  <path class="st6" d="M577.26,39.76l-18.19,24.24c-15.91,21.2-15.91,50.35,0,71.54l18.19,24.24,18.19-24.24c15.91-21.2,15.91-50.35,0-71.54l-18.19-24.24h0Z"/>
  <g class="st8">
    <polyline class="st4" points="607.16 39.76 547.16 41.72 607.16 43.68 547.16 45.65 607.16 47.62 547.16 49.58 607.16 51.55 547.16 53.52 607.16 55.48 547.16 57.44 607.16 59.41 547.16 61.37 607.16 63.34 547.16 65.3 607.16 67.27 547.16 69.24 607.16 71.21 547.16 73.17 607.16 75.14 547.16 77.1 607.16 79.07 547.16 81.04 607.16 83 547.16 84.97 607.16 86.94 547.16 88.9 607.16 90.87 547.16 92.84 607.16 94.81 547.16 96.77 607.16 98.74 547.16 100.71 607.16 102.68 547.16 104.65 607.16 106.61 547.16 108.58 607.16 110.54 547.16 112.51 607.16 114.47 547.16 116.44 607.16 118.41 547.16 120.37 607.16 122.34 547.16 124.31 607.16 126.28 547.16 128.24 607.16 130.21 547.16 132.18 607.16 134.15 547.16 136.12 607.16 138.09 547.16 140.06 607.16 142.03 547.16 144 607.16 145.98 547.16 147.94 607.16 149.91 547.16 151.89 607.16 153.86 547.16 155.83 607.16 157.81 547.16 159.79"/>
  </g>
  <path class="st5" d="M577.26,58.85l-3.65,16.53c-3.19,14.45-3.19,34.33,0,48.78l3.65,16.53,3.65-16.53c3.19-14.45,3.19-34.33,0-48.78,0,0-3.65-16.53-3.65-16.53Z"/>
</svg>