<?xml version="1.0" encoding="UTF-8"?><svg id="Layer_25" xmlns="http://www.w3.org/2000/svg" xmlns:xlink="http://www.w3.org/1999/xlink" viewBox="0 0 770 192"><defs><style>.cls-1,.cls-2,.cls-3,.cls-4,.cls-5{fill:none;}.cls-6{clip-path:url(#clippath-1);}.cls-2{stroke:#fff;stroke-width:30px;}.cls-2,.cls-3,.cls-4,.cls-5{stroke-linecap:round;stroke-miterlimit:10;}.cls-3{stroke:#1f3a75;}.cls-7{fill:#007d70;}.cls-4{stroke:#e83c56;stroke-width:80px;}.cls-8{fill:#cbbba0;}.cls-9{fill:#dbd1c1;}.cls-10{clip-path:url(#clippath);}.cls-5{stroke:#007d70;stroke-width:120px;}</style><clipPath id="clippath"><polygon class="cls-8" points="114.68 0 214.16 192 555.23 192 655.04 -.11 114.68 0"/></clipPath><clipPath id="clippath-1"><rect class="cls-1" x="115.95" y="-.5" width="546.76" height="193.94"/></clipPath></defs><polygon class="cls-8" points="114.68 0 214.16 192 555.23 192 655.04 -.11 114.68 0"/><g class="cls-10"><g class="cls-6"><circle class="cls-9" cx="139.5" cy="8.78" r="9.28"/><circle class="cls-9" cx="173.05" cy="8.78" r="9.28"/><circle class="cls-9" cx="206.6" cy="8.78" r="9.28"/><circle class="cls-9" cx="240.15" cy="8.78" r="9.28"/><circle class="cls-9" cx="273.7" cy="8.78" r="9.28"/><circle class="cls-9" cx="307.25" cy="8.78" r="9.28"/><circle class="cls-9" cx="340.81" cy="8.78" r="9.28"/><circle class="cls-9" cx="374.36" cy="8.78" r="9.28"/><circle class="cls-9" cx="407.91" cy="8.78" r="9.28"/><circle class="cls-9" cx="441.46" cy="8.78" r="9.28"/><circle class="cls-9" cx="475.01" cy="8.78" r="9.28"/><circle class="cls-9" cx="508.56" cy="8.78" r="9.28"/><circle class="cls-9" cx="542.11" cy="8.78" r="9.28"/><circle class="cls-9" cx="575.66" cy="8.78" r="9.28"/><circle class="cls-9" cx="609.21" cy="8.78" r="9.28"/><circle class="cls-9" cx="642.77" cy="8.78" r="9.28"/><circle class="cls-9" cx="122.72" cy="42.33" r="9.28"/><circle class="cls-9" cx="156.27" cy="42.33" r="9.28"/><circle class="cls-9" cx="189.82" cy="42.33" r="9.28"/><circle class="cls-9" cx="223.38" cy="42.33" r="9.28"/><circle class="cls-9" cx="256.93" cy="42.33" r="9.28"/><circle class="cls-9" cx="290.48" cy="42.33" r="9.28"/><circle class="cls-9" cx="324.03" cy="42.33" r="9.28"/><circle class="cls-9" cx="357.58" cy="42.33" r="9.28"/><circle class="cls-9" cx="391.13" cy="42.33" r="9.28"/><circle class="cls-9" cx="424.68" cy="42.33" r="9.28"/><circle class="cls-9" cx="458.23" cy="42.33" r="9.28"/><circle class="cls-9" cx="491.79" cy="42.33" r="9.28"/><circle class="cls-9" cx="525.34" cy="42.33" r="9.28"/><circle class="cls-9" cx="558.89" cy="42.33" r="9.28"/><circle class="cls-9" cx="592.44" cy="42.33" r="9.28"/><circle class="cls-9" cx="625.99" cy="42.33" r="9.28"/><circle class="cls-9" cx="659.54" cy="42.33" r="9.28"/><circle class="cls-9" cx="139.5" cy="75.88" r="9.28"/><circle class="cls-9" cx="173.05" cy="75.88" r="9.28"/><circle class="cls-9" cx="206.6" cy="75.88" r="9.28"/><circle class="cls-9" cx="240.15" cy="75.88" r="9.28"/><circle class="cls-9" cx="273.7" cy="75.88" r="9.28"/><circle class="cls-9" cx="307.25" cy="75.88" r="9.28"/><circle class="cls-9" cx="340.81" cy="75.88" r="9.28"/><circle class="cls-9" cx="374.36" cy="75.88" r="9.28"/><circle class="cls-9" cx="407.91" cy="75.88" r="9.28"/><circle class="cls-9" cx="441.46" cy="75.88" r="9.28"/><circle class="cls-9" cx="475.01" cy="75.88" r="9.28"/><circle class="cls-9" cx="508.56" cy="75.88" r="9.28"/><circle class="cls-9" cx="542.11" cy="75.88" r="9.28"/><circle class="cls-9" cx="575.66" cy="75.88" r="9.28"/><circle class="cls-9" cx="609.21" cy="75.88" r="9.28"/><circle class="cls-9" cx="642.77" cy="75.88" r="9.28"/><circle class="cls-9" cx="122.72" cy="109.43" r="9.28"/><circle class="cls-9" cx="156.27" cy="109.43" r="9.28"/><circle class="cls-9" cx="189.82" cy="109.43" r="9.28"/><circle class="cls-9" cx="223.38" cy="109.43" r="9.28"/><circle class="cls-9" cx="256.93" cy="109.43" r="9.28"/><circle class="cls-9" cx="290.48" cy="109.43" r="9.28"/><circle class="cls-9" cx="324.03" cy="109.43" r="9.28"/><circle class="cls-9" cx="357.58" cy="109.43" r="9.28"/><circle class="cls-9" cx="391.13" cy="109.43" r="9.28"/><circle class="cls-9" cx="424.68" cy="109.43" r="9.28"/><circle class="cls-9" cx="458.23" cy="109.43" r="9.28"/><circle class="cls-9" cx="491.79" cy="109.43" r="9.28"/><circle class="cls-9" cx="525.34" cy="109.43" r="9.28"/><circle class="cls-9" cx="558.89" cy="109.43" r="9.28"/><circle class="cls-9" cx="592.44" cy="109.43" r="9.28"/><circle class="cls-9" cx="625.99" cy="109.43" r="9.28"/><circle class="cls-9" cx="659.54" cy="109.43" r="9.28"/><circle class="cls-9" cx="139.5" cy="142.98" r="9.28"/><circle class="cls-9" cx="173.05" cy="142.98" r="9.28"/><circle class="cls-9" cx="206.6" cy="142.98" r="9.28"/><circle class="cls-9" cx="240.15" cy="142.98" r="9.28"/><circle class="cls-9" cx="273.7" cy="142.98" r="9.28"/><circle class="cls-9" cx="307.25" cy="142.98" r="9.28"/><circle class="cls-9" cx="340.81" cy="142.98" r="9.28"/><circle class="cls-9" cx="374.36" cy="142.98" r="9.28"/><circle class="cls-9" cx="407.91" cy="142.98" r="9.28"/><circle class="cls-9" cx="441.46" cy="142.98" r="9.28"/><circle class="cls-9" cx="475.01" cy="142.98" r="9.28"/><circle class="cls-9" cx="508.56" cy="142.98" r="9.28"/><circle class="cls-9" cx="542.11" cy="142.98" r="9.28"/><circle class="cls-9" cx="575.66" cy="142.98" r="9.28"/><circle class="cls-9" cx="609.21" cy="142.98" r="9.28"/><circle class="cls-9" cx="642.77" cy="142.98" r="9.28"/><circle class="cls-9" cx="122.72" cy="176.53" r="9.28"/><circle class="cls-9" cx="156.27" cy="176.53" r="9.28"/><circle class="cls-9" cx="189.82" cy="176.53" r="9.28"/><circle class="cls-9" cx="223.38" cy="176.53" r="9.28"/><circle class="cls-9" cx="256.93" cy="176.53" r="9.28"/><circle class="cls-9" cx="290.48" cy="176.53" r="9.28"/><circle class="cls-9" cx="324.03" cy="176.53" r="9.28"/><circle class="cls-9" cx="357.58" cy="176.53" r="9.28"/><circle class="cls-9" cx="391.13" cy="176.53" r="9.28"/><circle class="cls-9" cx="424.68" cy="176.53" r="9.28"/><circle class="cls-9" cx="458.23" cy="176.53" r="9.28"/><circle class="cls-9" cx="491.79" cy="176.53" r="9.28"/><circle class="cls-9" cx="525.34" cy="176.53" r="9.28"/><circle class="cls-9" cx="558.89" cy="176.53" r="9.28"/><circle class="cls-9" cx="592.44" cy="176.53" r="9.28"/><circle class="cls-9" cx="625.99" cy="176.53" r="9.28"/><circle class="cls-9" cx="659.54" cy="176.53" r="9.28"/></g></g><polygon class="cls-7" points="655.04 -.11 114.68 0 139.51 47.92 630.09 47.92 655.04 -.11"/><path class="cls-5" d="M115.45,101.35c178.79-136.33,358.46-135.26,538.51,0"/><path class="cls-4" d="M115.45,101.35c178.79-136.33,358.46-135.26,538.51,0"/><path class="cls-2" d="M115.45,101.35c178.79-136.33,358.46-135.26,538.51,0"/><polyline class="cls-3" points="96.65 76.7 140.82 121.05 111.14 65.94 154.14 111.43 125.94 55.55 167.67 102.2 141.06 45.54 181.42 93.39 156.52 35.96 195.38 85.03 172.31 26.85 209.56 77.15 188.44 18.23 223.94 69.77 204.91 10.15 238.53 62.94 221.71 2.65 253.31 56.68 238.84 -4.22 268.28 51.02 256.28 -10.42 283.41 45.99 274.02 -15.89 298.69 41.63 292.02 -20.6 314.11 37.96 310.26 -24.51 329.64 35 328.69 -27.58 345.26 32.78 347.27 -29.78 360.94 31.3 365.96 -31.09 376.66 30.58 384.69 -31.5 392.4 30.62 403.42 -30.99 408.13 31.42 422.09 -29.59 423.81 32.97 440.65 -27.31 439.44 35.27 459.05 -24.17 454.97 38.29 477.25 -20.2 470.4 42.01 495.22 -15.45 485.69 46.42 512.91 -9.95 500.84 51.47 530.32 -3.75 515.82 57.15 547.42 3.11 530.63 63.41 564.2 10.58 545.25 70.24 580.65 18.62 559.68 77.59 596.78 27.18 573.9 85.44 612.57 36.23 587.92 93.76 628.05 45.72 601.73 102.52 643.2 55.63 615.33 111.68 658.04 65.92 628.72 121.23 672.58 76.57"/></svg>