<?xml version="1.0" encoding="UTF-8"?><svg xmlns="http://www.w3.org/2000/svg" xmlns:xlink="http://www.w3.org/1999/xlink" viewBox="0 0 770 192"><defs><style>.cls-1,.cls-2,.cls-3,.cls-4,.cls-5,.cls-6,.cls-7,.cls-8,.cls-9{fill:none;stroke-miterlimit:10;}.cls-1,.cls-2,.cls-3,.cls-4,.cls-6{stroke:#1f3a75;}.cls-10{isolation:isolate;}.cls-2{stroke-width:5px;}.cls-2,.cls-3,.cls-4,.cls-5,.cls-6,.cls-7,.cls-9{stroke-linecap:round;}.cls-3{stroke-width:3px;}.cls-11{mix-blend-mode:multiply;}.cls-4{stroke-width:20px;}.cls-5{stroke:#fff;stroke-width:30px;}.cls-12{fill:#007d70;}.cls-7{stroke-width:80px;}.cls-7,.cls-8{stroke:#e83c56;}.cls-13{clip-path:url(#clippath);}.cls-9{stroke:#007d70;stroke-width:120px;}</style><clipPath id="clippath"><path class="cls-12" d="M655.26,0H115.34c.05,86.14-.31,179.4-.37,192.17l540.63-.11c-.05-12.77-.41-105.92-.35-192.06Z"/></clipPath></defs><g class="cls-10"><g id="Layer_24"><path class="cls-12" d="M655.26,0H115.34c.05,86.14-.31,179.4-.37,192.17l540.63-.11c-.05-12.77-.41-105.92-.35-192.06Z"/><g class="cls-13"><path class="cls-9" d="M115.74,293.52c178.79-136.33,358.46-135.26,538.51,0"/><path class="cls-7" d="M115.74,293.52c178.79-136.33,358.46-135.26,538.51,0"/><path class="cls-5" d="M115.74,293.52c178.79-136.33,358.46-135.26,538.51,0"/><polyline class="cls-6" points="96.95 268.87 141.12 313.22 111.43 258.11 154.43 303.6 126.23 247.72 167.96 294.37 141.36 237.71 181.71 285.56 156.81 228.13 195.67 277.2 172.6 219.01 209.85 269.32 188.73 210.39 224.24 261.94 205.2 202.31 238.83 255.11 222 194.82 253.61 248.84 239.13 187.95 268.57 243.19 256.58 181.75 283.7 238.16 274.31 176.28 298.99 233.8 292.31 171.56 314.4 230.13 310.55 167.66 329.93 227.17 328.98 164.59 345.55 224.95 347.57 162.39 361.23 223.47 366.25 161.08 376.96 222.75 384.99 160.67 392.7 222.79 403.71 161.17 408.42 223.59 422.38 162.57 424.11 225.14 440.94 164.86 439.73 227.44 459.34 168 455.26 230.46 477.54 171.96 470.69 234.18 495.51 176.72 485.99 238.58 513.21 182.22 501.13 243.64 530.61 188.42 516.12 249.31 547.71 195.28 530.93 255.58 564.49 202.75 545.55 262.41 580.95 210.79 559.97 269.76 597.07 219.35 574.19 277.61 612.87 228.39 588.21 285.93 628.34 237.89 602.02 294.68 643.49 247.8 615.62 303.85 658.33 258.09 629.02 313.39 672.87 268.73"/><line class="cls-8" x1="301.84" y1="-30.95" x2="292.47" y2="44.09"/><line class="cls-8" x1="301.84" y1="-30.95" x2="251.17" y2="44.09"/><line class="cls-8" x1="301.84" y1="-30.95" x2="271.82" y2="44.09"/><line class="cls-8" x1="468.16" y1="-30.95" x2="477.53" y2="44.09"/><line class="cls-8" x1="468.16" y1="-30.95" x2="518.83" y2="44.09"/><line class="cls-8" x1="468.16" y1="-30.95" x2="498.18" y2="44.09"/></g><line class="cls-4" x1="326.44" y1="44.09" x2="326.44" y2="105.16"/><line class="cls-4" x1="443.56" y1="44.09" x2="443.56" y2="105.16"/><line class="cls-2" x1="326.44" y1="44.09" x2="326.44" y2="105.16"/><polyline class="cls-1" points="294.16 82.29 273.61 89.84 257.15 104.26 236.61 111.81 220.15 126.23 199.6 133.78 183.14 148.2 162.59 155.75 146.13 170.18 125.58 177.73 109.11 192.16"/><polyline class="cls-1" points="294.07 79.56 273.7 85.79 257.07 99.09 236.7 105.32 220.06 118.62 199.69 124.85 183.06 138.15 162.68 144.38 146.04 157.69 125.66 163.92 109.02 177.22"/><polyline class="cls-1" points="293.98 76.83 273.8 81.74 256.97 93.92 236.79 98.83 219.97 111.01 199.78 115.92 182.96 128.1 162.78 133.01 145.95 145.19 125.76 150.11 108.93 162.29"/><polyline class="cls-1" points="293.87 74.1 273.9 77.7 256.87 88.74 236.89 92.35 219.86 103.39 199.89 107 182.86 118.04 162.88 121.65 145.84 132.69 125.86 136.3 108.82 147.34"/><polyline class="cls-1" points="293.76 71.36 274.01 73.66 256.76 83.56 237 85.87 219.75 95.77 200 98.08 182.75 107.98 162.99 110.28 145.73 120.19 125.97 122.49 108.71 132.4"/><polyline class="cls-1" points="293.65 68.61 274.12 69.63 256.64 78.38 237.12 79.39 219.64 88.14 200.11 89.16 182.63 97.91 163.1 98.93 145.62 107.68 126.09 108.69 108.6 117.45"/><polyline class="cls-1" points="293.53 65.86 274.25 65.6 256.52 73.19 237.24 72.93 219.52 80.51 200.23 80.25 182.51 87.84 163.23 87.58 145.5 95.16 126.21 94.9 108.48 102.49"/><polyline class="cls-1" points="293.4 63.11 274.37 61.58 256.39 67.99 237.37 66.47 219.39 72.87 200.36 71.35 182.38 77.76 163.35 76.23 145.37 82.64 126.34 81.12 108.35 87.52"/><polyline class="cls-1" points="293.27 60.34 274.5 57.57 256.26 62.78 237.5 60.01 219.26 65.23 200.49 62.45 182.25 67.67 163.48 64.9 145.24 70.11 126.47 67.34 108.22 72.55"/><polyline class="cls-1" points="293.14 57.57 274.63 53.57 256.13 57.57 237.63 53.57 219.13 57.57 200.62 53.57 182.12 57.57 163.61 53.57 145.11 57.57 126.6 53.57 108.09 57.57"/><polyline class="cls-1" points="478.95 78.87 494.6 93.41 514.49 101.17 530.13 115.71 550.03 123.47 565.68 138 585.57 145.76 601.22 160.3 621.12 168.06 636.77 182.6 656.67 190.37"/><polyline class="cls-1" points="478.86 76.04 494.76 89.45 514.54 95.86 530.44 109.27 550.22 115.68 566.12 129.09 585.9 135.5 601.8 148.9 621.59 155.32 637.49 168.73 657.28 175.15"/><polyline class="cls-1" points="478.76 73.21 494.93 85.48 514.58 90.55 530.75 102.82 550.4 107.89 566.57 120.17 586.22 125.24 602.39 137.51 622.05 142.58 638.22 154.85 657.88 159.93"/><polyline class="cls-1" points="478.65 70.39 495.1 81.52 514.61 85.25 531.06 96.38 550.57 100.11 567.03 111.24 586.53 114.98 602.99 126.11 622.5 129.85 638.96 140.98 658.48 144.71"/><polyline class="cls-1" points="478.54 67.57 495.29 77.54 514.64 79.95 531.39 89.93 550.74 92.34 567.49 102.32 586.84 104.73 603.59 114.7 622.95 117.11 639.71 127.09 659.06 129.51"/><polyline class="cls-1" points="478.41 64.75 495.48 73.56 514.65 74.66 531.72 83.47 550.9 84.57 567.96 93.38 587.14 94.48 604.2 103.29 623.38 104.39 640.46 113.2 659.64 114.3"/><polyline class="cls-1" points="478.29 61.94 495.68 69.58 514.67 69.37 532.06 77.01 551.05 76.81 568.44 84.44 587.43 84.24 604.82 91.87 623.82 91.67 641.21 99.31 660.21 99.11"/><polyline class="cls-1" points="478.16 59.14 495.88 65.58 514.68 64.1 532.4 70.54 551.2 69.05 568.92 75.49 587.72 74.01 605.44 80.45 624.25 78.96 641.98 85.4 660.78 83.92"/><polyline class="cls-1" points="478.02 56.35 496.08 61.58 514.68 58.83 532.74 64.06 551.34 61.31 569.41 66.54 588 63.78 606.07 69.01 624.67 66.26 642.74 71.49 661.35 68.74"/><polyline class="cls-1" points="477.89 53.57 496.29 57.57 514.69 53.57 533.09 57.57 551.49 53.57 569.89 57.57 588.29 53.57 606.69 57.57 625.1 53.57 643.51 57.57 661.91 53.57"/><g class="cls-11"><line class="cls-3" x1="326.44" y1="44.09" x2="326.44" y2="105.16"/><line class="cls-3" x1="443.56" y1="44.09" x2="443.56" y2="105.16"/><line class="cls-3" x1="326.44" y1="44.09" x2="326.44" y2="105.16"/></g></g></g></svg>