<?xml version="1.0" encoding="UTF-8"?><svg id="Layer_22" xmlns="http://www.w3.org/2000/svg" xmlns:xlink="http://www.w3.org/1999/xlink" viewBox="0 0 770 192"><defs><style>.cls-1,.cls-2,.cls-3{fill:none;}.cls-2{stroke:#1f3a75;}.cls-2,.cls-3{stroke-miterlimit:10;}.cls-4{fill:#e83c56;}.cls-5{fill:#84636a;}.cls-3{stroke:#cbbba0;stroke-width:40px;}.cls-6{fill:#007d70;}.cls-7{clip-path:url(#clippath);}</style><clipPath id="clippath"><rect class="cls-1" x="115.75" y="153.17" width="538.49" height="38.72"/></clipPath></defs><rect class="cls-6" x="255.06" y="78.5" width="78.93" height="113.27" transform="translate(589.05 270.27) rotate(-180)"/><rect class="cls-6" x="516.62" y="114.34" width="78.93" height="77.55"/><rect class="cls-6" x="434.53" y="78.5" width="78.93" height="113.27"/><rect class="cls-6" x="353.99" y="27.73" width="78.93" height="164.04"/><line class="cls-3" x1="427.14" y1="27.73" x2="427.14" y2="192"/><line class="cls-3" x1="342.93" y1="27.73" x2="342.93" y2="192"/><line class="cls-3" x1="511.35" y1="78.5" x2="511.35" y2="192"/><rect class="cls-6" x="172.96" y="114.34" width="78.93" height="77.55" transform="translate(424.86 306.23) rotate(-180)"/><rect class="cls-6" x="115.75" y="153.17" width="38.72" height="38.72" transform="translate(270.23 345.06) rotate(-180)"/><rect class="cls-6" x="615.53" y="153.17" width="38.72" height="38.72" transform="translate(1269.77 345.06) rotate(-180)"/><line class="cls-3" x1="258.72" y1="78.5" x2="258.72" y2="192"/><line class="cls-3" x1="174.52" y1="114.34" x2="174.52" y2="192"/><line class="cls-3" x1="595.55" y1="114.34" x2="595.55" y2="192"/><g class="cls-7"><polyline class="cls-2" points="82.92 272.8 168.93 272.16 83.08 267 169 270.9 83.54 261.19 169.13 269.65 84.31 255.41 169.33 268.43 85.39 249.66 169.59 267.22 86.78 243.98 169.91 266.03 88.47 238.38 170.3 264.87 90.46 232.88 170.75 263.71 92.74 227.49 171.26 262.58 95.3 222.25 171.84 261.48 98.13 217.15 172.48 260.4 101.23 212.22 173.18 259.35 104.58 207.46 173.94 258.33 108.18 202.89 174.75 257.36 112.01 198.52 175.61 256.42 116.06 194.36 176.52 255.54 120.33 190.42 177.48 254.7 124.8 186.71 178.47 253.91 129.46 183.23 179.51 253.19 134.31 180.01 180.57 252.52 139.32 177.04 181.66 251.91 144.5 174.35 182.78 251.37 149.81 171.93 183.92 250.88 155.25 169.79 185.08 250.46 160.8 167.95 186.26 250.11 166.45 166.41 187.46 249.81 172.16 165.17 188.67 249.59 177.93 164.25 189.91 249.42 183.73 163.63 191.16 249.32 189.54 163.33 192.44 249.29 195.34 163.33 193.72 249.32 201.15 163.63 194.97 249.42 206.94 164.25 196.2 249.59 212.71 165.17 197.42 249.81 218.43 166.41 198.62 250.11 224.08 167.95 199.79 250.46 229.63 169.79 200.96 250.88 235.07 171.93 202.1 251.37 240.39 174.35 203.21 251.91 245.56 177.05 204.31 252.52 250.58 180.02 205.37 253.19 255.42 183.24 206.4 253.92 260.09 186.72 207.4 254.7 264.56 190.43 208.36 255.54 268.83 194.37 209.27 256.43 272.88 198.53 210.13 257.36 276.71 202.9 210.94 258.34 280.3 207.47 211.7 259.35 283.65 212.23 212.4 260.4 286.75 217.16 213.04 261.48 289.58 222.26 213.61 262.59 292.14 227.5 214.13 263.72 294.42 232.88 214.58 264.87 296.41 238.38 214.97 266.04 298.1 243.98 215.29 267.22 299.49 249.66 215.55 268.43 300.57 255.41 215.75 269.65 301.34 261.19 215.88 270.9 301.8 267 215.95 272.16 301.95 272.8"/><polyline class="cls-2" points="468.05 272.8 554.05 272.16 468.2 267 554.12 270.9 468.66 261.19 554.25 269.65 469.43 255.41 554.45 268.43 470.51 249.66 554.71 267.22 471.9 243.98 555.03 266.03 473.59 238.38 555.42 264.87 475.58 232.88 555.87 263.71 477.86 227.49 556.39 262.58 480.42 222.25 556.97 261.48 483.26 217.15 557.6 260.4 486.35 212.22 558.3 259.35 489.71 207.46 559.06 258.33 493.3 202.89 559.87 257.36 497.13 198.52 560.73 256.42 501.18 194.36 561.64 255.54 505.45 190.42 562.6 254.7 509.92 186.71 563.6 253.91 514.59 183.23 564.63 253.19 519.43 180.01 565.69 252.52 524.45 177.04 566.79 251.91 529.62 174.35 567.91 251.37 534.93 171.93 569.05 250.88 540.38 169.79 570.21 250.46 545.93 167.95 571.38 250.11 551.57 166.41 572.58 249.81 557.29 165.17 573.8 249.59 563.05 164.25 575.03 249.42 568.85 163.63 576.28 249.32 574.66 163.33 577.56 249.29 580.46 163.33 578.84 249.32 586.27 163.63 580.09 249.42 592.07 164.25 581.33 249.59 597.84 165.17 582.54 249.81 603.56 166.41 583.74 250.11 609.2 167.95 584.92 250.46 614.75 169.79 586.08 250.88 620.2 171.93 587.22 251.37 625.51 174.35 588.34 251.91 630.68 177.05 589.43 252.52 635.7 180.02 590.5 253.19 640.55 183.24 591.53 253.92 645.21 186.72 592.52 254.7 649.68 190.43 593.48 255.54 653.95 194.37 594.39 256.43 658 198.53 595.26 257.36 661.83 202.9 596.07 258.34 665.43 207.47 596.82 259.35 668.78 212.23 597.52 260.4 671.87 217.16 598.16 261.48 674.71 222.26 598.74 262.59 677.27 227.5 599.25 263.72 679.54 232.88 599.7 264.87 681.53 238.38 600.09 266.04 683.22 243.98 600.41 267.22 684.61 249.66 600.67 268.43 685.69 255.41 600.87 269.65 686.46 261.19 601 270.9 686.92 267 601.07 272.16 687.08 272.8"/></g><polygon class="cls-4" points="385 56.15 399.53 100.88 446.57 100.88 408.52 128.52 423.05 173.25 385 145.61 346.95 173.25 361.48 128.52 323.43 100.88 370.47 100.88 385 56.15"/><path class="cls-5" d="M370.47,100.88l14.53,18.8v-63.53l-14.53,44.73ZM361.48,128.52l23.52-8.85-61.57-18.8,38.05,27.64ZM385,119.67l38.05,53.58-14.53-44.73-23.52-8.85ZM385,145.61v-25.93l-38.05,53.58,38.05-27.64ZM399.53,100.88l-14.53,18.8,61.57-18.8h-47.03Z"/></svg>