<?xml version="1.0" encoding="UTF-8"?>
<svg id="Layer_9" xmlns="http://www.w3.org/2000/svg" xmlns:xlink="http://www.w3.org/1999/xlink" version="1.1" viewBox="0 0 770 192">
  <!-- Generator: Adobe Illustrator 29.6.1, SVG Export Plug-In . SVG Version: 2.1.1 Build 9)  -->
  <defs>
    <style>
      .st0, .st1, .st2, .st3, .st4 {
        fill: none;
      }

      .st5 {
        fill: #e83c56;
      }

      .st1 {
        stroke: #e83c56;
      }

      .st1, .st2, .st3, .st4 {
        stroke-miterlimit: 10;
      }

      .st6 {
        fill: #1f3a75;
      }

      .st2 {
        stroke: #007d70;
      }

      .st2, .st4 {
        stroke-width: 5px;
      }

      .st7 {
        fill: #fff;
      }

      .st3, .st4 {
        stroke: #fffef3;
      }

      .st8 {
        fill: #ef7c97;
      }

      .st9 {
        clip-path: url(#clippath);
      }
    </style>
    <clipPath id="clippath">
      <polygon class="st0" points="692.94 183.27 712.94 174.52 692.94 165.79 712.94 157.06 692.94 148.33 712.94 139.6 692.94 130.87 712.94 122.14 692.94 113.41 712.94 104.68 692.94 95.95 712.94 87.22 692.94 78.48 712.94 69.76 692.94 61.03 712.94 52.31 692.94 43.57 712.94 34.85 692.94 26.12 712.94 17.4 692.94 8.66 712.94 -.06 385.5 -.06 384.5 -.06 57.06 -.06 77.06 8.66 57.06 17.4 77.06 26.12 57.06 34.85 77.06 43.57 57.06 52.31 77.06 61.03 57.06 69.76 77.06 78.48 57.06 87.22 77.06 95.95 57.06 104.68 77.06 113.41 57.06 122.14 77.06 130.87 57.06 139.6 77.06 148.33 57.06 157.06 77.06 165.79 57.06 174.52 77.06 183.27 57.06 192 712.94 192 692.94 183.27"/>
    </clipPath>
  </defs>
  <polygon class="st6" points="692.94 183.27 712.94 174.52 692.94 165.79 712.94 157.06 692.94 148.33 712.94 139.6 692.94 130.87 712.94 122.14 692.94 113.41 712.94 104.68 692.94 95.95 712.94 87.22 692.94 78.48 712.94 69.76 692.94 61.03 712.94 52.31 692.94 43.57 712.94 34.85 692.94 26.12 712.94 17.4 692.94 8.66 712.94 -.06 385.5 -.06 384.5 -.06 57.06 -.06 77.06 8.66 57.06 17.4 77.06 26.12 57.06 34.85 77.06 43.57 57.06 52.31 77.06 61.03 57.06 69.76 77.06 78.48 57.06 87.22 77.06 95.95 57.06 104.68 77.06 113.41 57.06 122.14 77.06 130.87 57.06 139.6 77.06 148.33 57.06 157.06 77.06 165.79 57.06 174.52 77.06 183.27 57.06 192 712.94 192 692.94 183.27"/>
  <g class="st9">
    <g>
      <polygon class="st8" points="256.63 109.34 370.53 104.05 256.55 107.32 369.73 93.47 256.33 105.36 368.13 82.94 255.97 103.46 365.72 72.53 255.46 101.61 362.52 62.35 254.82 99.8 358.54 52.44 254.03 98.04 353.82 42.86 253.11 96.34 348.39 33.69 252.05 94.7 342.28 24.97 250.87 93.14 335.53 16.75 249.57 91.67 328.18 9.05 248.16 90.31 320.26 1.94 246.66 89.06 311.81 -4.55 245.08 87.94 302.87 -10.38 243.44 86.96 293.5 -15.52 241.74 86.11 283.74 -19.93 239.99 85.4 273.66 -23.58 238.2 84.83 263.32 -26.43 236.37 84.4 252.81 -28.47 234.49 84.11 242.2 -29.69 232.56 83.97 231.57 -30.09 230.58 83.97 220.94 -29.69 228.64 84.11 210.32 -28.47 226.76 84.4 199.81 -26.43 224.93 84.83 189.47 -23.57 223.15 85.4 179.39 -19.93 221.4 86.11 169.63 -15.51 219.7 86.96 160.26 -10.37 218.06 87.95 151.32 -4.54 216.48 89.07 142.87 1.95 214.98 90.31 134.95 9.06 213.57 91.67 127.59 16.76 212.27 93.14 120.84 24.98 211.09 94.7 114.74 33.7 210.03 96.34 109.31 42.87 209.11 98.04 104.59 52.45 208.32 99.8 100.62 62.36 207.68 101.61 97.42 72.54 207.17 103.46 95.01 82.95 206.81 105.36 93.41 93.48 206.59 107.32 92.61 104.06 206.51 109.34 92.61 114.63 206.59 111.36 93.41 125.22 206.81 113.32 95.01 135.75 207.17 115.23 97.42 146.15 207.68 117.08 100.62 156.34 208.32 118.89 104.6 166.25 209.11 120.65 109.32 175.82 210.03 122.35 114.75 185 211.09 123.99 120.85 193.72 212.27 125.55 127.6 201.94 213.57 127.02 134.96 209.64 214.98 128.38 142.88 216.74 216.48 129.62 151.33 223.23 218.06 130.74 160.27 229.07 219.7 131.73 169.64 234.21 221.4 132.58 179.4 238.61 223.15 133.29 189.48 242.26 224.94 133.86 199.82 245.12 226.77 134.28 210.33 247.16 228.64 134.57 220.94 248.38 230.58 134.72 231.57 248.78 232.56 134.72 242.2 248.38 234.5 134.57 252.81 247.16 236.37 134.28 263.33 245.11 238.2 133.85 273.67 242.26 239.99 133.29 283.75 238.61 241.74 132.58 293.51 234.2 243.44 131.73 302.88 229.06 245.08 130.74 311.82 223.23 246.66 129.62 320.27 216.73 248.16 128.38 328.19 209.63 249.57 127.01 335.54 201.93 250.87 125.55 342.29 193.71 252.05 123.99 348.4 184.99 253.11 122.35 353.83 175.81 254.03 120.65 358.55 166.24 254.82 118.89 362.52 156.33 255.46 117.08 365.72 146.14 255.97 115.23 368.13 135.74 256.33 113.32 369.73 125.21 256.55 111.36 370.53 114.63 256.63 109.34"/>
      <polygon class="st8" points="561.53 109.34 675.43 104.05 561.46 107.32 674.64 93.47 561.24 105.36 673.03 82.94 560.87 103.46 670.62 72.53 560.37 101.61 667.42 62.35 559.72 99.8 663.45 52.44 558.93 98.04 658.73 42.86 558.01 96.34 653.3 33.69 556.96 94.7 647.19 24.97 555.77 93.14 640.44 16.75 554.47 91.67 633.08 9.05 553.06 90.31 625.16 1.94 551.56 89.06 616.71 -4.55 549.99 87.94 607.77 -10.38 548.34 86.96 598.4 -15.52 546.64 86.11 588.64 -19.93 544.89 85.4 578.56 -23.58 543.11 84.83 568.23 -26.43 541.28 84.4 557.71 -28.47 539.4 84.11 547.1 -29.69 537.46 83.97 536.47 -30.09 535.48 83.97 525.84 -29.69 533.55 84.11 515.23 -28.47 531.67 84.4 504.71 -26.43 529.84 84.83 494.37 -23.57 528.05 85.4 484.29 -19.93 526.3 86.11 474.53 -15.51 524.6 86.96 465.16 -10.37 522.96 87.95 456.22 -4.54 521.38 89.07 447.77 1.95 519.88 90.31 439.85 9.06 518.47 91.67 432.5 16.76 517.17 93.14 425.75 24.98 515.99 94.7 419.64 33.7 514.93 96.34 414.21 42.87 514.01 98.04 409.5 52.45 513.23 99.8 405.52 62.36 512.58 101.61 402.32 72.54 512.08 103.46 399.91 82.95 511.71 105.36 398.31 93.48 511.49 107.32 397.51 104.06 511.41 109.34 397.51 114.63 511.49 111.36 398.31 125.22 511.71 113.32 399.91 135.75 512.08 115.23 402.32 146.15 512.58 117.08 405.53 156.34 513.23 118.89 409.5 166.25 514.01 120.65 414.22 175.82 514.94 122.35 419.65 185 515.99 123.99 425.76 193.72 517.17 125.55 432.51 201.94 518.48 127.02 439.86 209.64 519.88 128.38 447.79 216.74 521.38 129.62 456.24 223.23 522.96 130.74 465.17 229.07 524.61 131.73 474.55 234.21 526.31 132.58 484.3 238.61 528.05 133.29 494.38 242.26 529.84 133.86 504.72 245.12 531.67 134.28 515.23 247.16 533.55 134.57 525.85 248.38 535.48 134.72 536.47 248.78 537.47 134.72 547.1 248.38 539.4 134.57 557.72 247.16 541.28 134.28 568.24 245.11 543.11 133.85 578.57 242.26 544.9 133.29 588.65 238.61 546.64 132.58 598.41 234.2 548.34 131.73 607.79 229.06 549.99 130.74 616.72 223.23 551.57 129.62 625.17 216.73 553.07 128.38 633.09 209.63 554.47 127.01 640.45 201.93 555.77 125.55 647.2 193.71 556.96 123.99 653.3 184.99 558.01 122.35 658.73 175.81 558.94 120.65 663.45 166.24 559.72 118.89 667.42 156.33 560.37 117.08 670.62 146.14 560.87 115.23 673.03 135.74 561.24 113.32 674.64 125.21 561.46 111.36 675.43 114.63 561.53 109.34"/>
    </g>
  </g>
  <polyline class="st3" points="292.51 91.13 300.21 131.13 307.92 91.13 315.62 131.13 323.32 91.13 331.03 131.13 338.73 91.13 346.44 131.13 354.15 91.13 361.85 131.13 369.56 91.13 377.27 131.13 384.97 91.13 392.68 131.13 400.39 91.13 408.1 131.13 415.81 91.13 423.51 131.13 431.22 91.13 438.93 131.13 446.64 91.13 454.35 131.13 462.06 91.13 469.78 131.13 477.49 91.13"/>
  <circle class="st7" cx="232.07" cy="109.64" r="82.06"/>
  <polygon class="st0" points="232.21 179.39 232.08 179.27 231.94 179.39 232.07 179.59 232.21 179.39"/>
  <polygon class="st5" points="289.13 112.86 269 114.38 288.6 119.23 268.41 119.13 287.57 125.49 267.45 123.87 286.1 131.6 266.14 128.58 284.22 137.55 264.5 133.24 281.99 143.32 262.56 137.84 279.45 148.9 260.34 142.37 276.64 154.29 257.88 146.83 273.59 159.51 255.19 151.19 270.33 164.56 252.3 155.46 266.88 169.43 249.22 159.64 263.26 174.15 245.98 163.71 259.49 178.71 242.58 167.67 255.58 183.13 239.04 171.53 251.52 187.41 235.38 175.28 247.31 191.57 240.78 186.3 240.65 186.19 232.07 179.24 222.42 187.06 216.83 191.57 228.17 176.09 228.76 175.28 212.63 187.42 225.1 171.54 208.57 183.13 221.56 167.68 204.65 178.71 218.16 163.7 200.87 174.14 214.91 159.63 197.25 169.42 211.83 155.45 193.8 164.53 208.93 151.17 190.53 159.49 206.25 146.81 187.49 154.27 203.79 142.36 184.68 148.88 201.57 137.83 182.14 143.3 199.64 133.23 179.91 137.54 198 128.56 178.04 131.59 196.69 123.86 176.56 125.48 195.72 119.12 175.54 119.22 195.14 114.38 175 112.85 194.94 109.65 175 106.43 195.14 104.91 175.54 100.06 195.73 100.16 176.56 93.8 196.69 95.43 178.04 87.69 198 90.72 179.92 81.74 199.64 86.05 182.15 75.97 201.58 81.45 184.69 70.39 203.8 76.92 187.5 65 206.26 72.47 190.55 59.78 208.95 68.1 193.81 54.74 211.84 63.83 197.26 49.86 214.92 59.66 200.88 45.14 218.16 55.58 204.65 40.58 221.56 51.62 208.56 36.16 225.09 47.76 212.62 31.88 228.76 44.01 216.82 27.73 231.59 40.39 247.31 27.72 235.37 44.01 251.51 31.87 239.04 47.75 255.57 36.16 242.58 51.62 259.49 40.58 245.98 55.59 263.27 45.15 249.23 59.67 266.89 49.88 252.31 63.85 270.34 54.76 255.2 68.12 273.6 59.8 257.89 72.48 276.65 65.02 260.35 76.94 279.46 70.41 262.56 81.47 282 75.99 264.5 86.07 284.23 81.76 266.14 90.73 286.1 87.7 267.45 95.43 287.58 93.81 268.41 100.17 288.6 100.07 269 104.91 289.13 106.44 269.2 109.65 289.13 112.86"/>
  <polyline class="st0" points="233.59 178.01 232.07 179.24 222.42 187.06"/>
  <polyline class="st0" points="232.07 179.24 240.65 186.19 240.78 186.3"/>
  <polygon class="st5" points="232.21 179.39 232.08 179.27 231.94 179.39 232.07 179.59 232.21 179.39"/>
  <line class="st4" x1="219.33" y1="67.6" x2="204.95" y2="95.94"/>
  <line class="st2" x1="231.59" y1="40.39" x2="231.59" y2="179.39"/>
  <line class="st1" x1="150.2" y1="104.03" x2="167.94" y2="82.95"/>
  <line class="st1" x1="161.72" y1="90.34" x2="173.2" y2="88.66"/>
  <line class="st1" x1="154.04" y1="135.11" x2="182.2" y2="155.45"/>
  <line class="st1" x1="164.5" y1="142.66" x2="176.71" y2="137.65"/>
  <line class="st1" x1="313.05" y1="96.33" x2="285.13" y2="69.98"/>
  <line class="st1" x1="286.89" y1="82.95" x2="300.4" y2="84.39"/>
  <line class="st1" x1="311.68" y1="129.62" x2="281.84" y2="162.04"/>
  <line class="st1" x1="284.48" y1="145.83" x2="302.71" y2="139.37"/>
  <line class="st1" x1="296.76" y1="112.62" x2="314.13" y2="109.64"/>
  <line class="st1" x1="302.71" y1="101.18" x2="310.13" y2="110.33"/>
  <line class="st1" x1="178.82" y1="47.2" x2="187.59" y2="57.46"/>
  <line class="st1" x1="182.2" y1="51.16" x2="193.08" y2="49.33"/>
  <circle class="st7" cx="537.93" cy="109.64" r="82.06"/>
  <polygon class="st0" points="538.08 179.39 537.94 179.27 537.8 179.39 537.94 179.59 538.08 179.39"/>
  <polygon class="st5" points="594.99 112.86 574.86 114.38 594.46 119.23 574.27 119.13 593.43 125.49 573.31 123.87 591.96 131.6 572 128.58 590.08 137.55 570.36 133.24 587.85 143.32 568.42 137.84 585.31 148.9 566.2 142.37 582.5 154.29 563.74 146.83 579.45 159.51 561.05 151.19 576.19 164.56 558.16 155.46 572.74 169.43 555.08 159.64 569.12 174.15 551.84 163.71 565.35 178.71 548.44 167.67 561.44 183.13 544.9 171.53 557.38 187.41 541.24 175.28 553.17 191.57 546.64 186.3 546.51 186.19 537.93 179.24 528.28 187.06 522.69 191.57 534.03 176.09 534.62 175.28 518.49 187.42 530.96 171.54 514.43 183.13 527.42 167.68 510.51 178.71 524.02 163.7 506.73 174.14 520.77 159.63 503.11 169.42 517.69 155.45 499.66 164.53 514.79 151.17 496.39 159.49 512.11 146.81 493.35 154.27 509.65 142.36 490.54 148.88 507.43 137.83 488 143.3 505.5 133.23 485.77 137.54 503.86 128.56 483.9 131.59 502.55 123.86 482.42 125.48 501.58 119.12 481.4 119.22 501 114.38 480.86 112.85 500.8 109.65 480.86 106.43 501 104.91 481.4 100.06 501.59 100.16 482.42 93.8 502.55 95.43 483.9 87.69 503.86 90.72 485.78 81.74 505.5 86.05 488.01 75.97 507.44 81.45 490.55 70.39 509.66 76.92 493.36 65 512.12 72.47 496.41 59.78 514.81 68.1 499.67 54.74 517.7 63.83 503.12 49.86 520.78 59.66 506.74 45.14 524.02 55.58 510.51 40.58 527.42 51.62 514.42 36.16 530.95 47.76 518.48 31.88 534.62 44.01 522.68 27.73 537.45 40.39 553.17 27.72 541.23 44.01 557.37 31.87 544.9 47.75 561.43 36.16 548.44 51.62 565.35 40.58 551.84 55.59 569.13 45.15 555.09 59.67 572.75 49.88 558.17 63.85 576.2 54.76 561.06 68.12 579.46 59.8 563.75 72.48 582.51 65.02 566.21 76.94 585.32 70.41 568.42 81.47 587.86 75.99 570.36 86.07 590.09 81.76 572 90.73 591.96 87.7 573.31 95.43 593.44 93.81 574.27 100.17 594.46 100.07 574.86 104.91 594.99 106.44 575.06 109.65 594.99 112.86"/>
  <polyline class="st0" points="539.45 178.01 537.93 179.24 528.28 187.06"/>
  <polyline class="st0" points="537.93 179.24 546.51 186.19 546.64 186.3"/>
  <polygon class="st5" points="538.08 179.39 537.94 179.27 537.8 179.39 537.94 179.59 538.08 179.39"/>
  <line class="st4" x1="525.19" y1="67.6" x2="510.82" y2="95.94"/>
  <line class="st2" x1="537.45" y1="40.39" x2="537.45" y2="179.39"/>
  <line class="st1" x1="456.07" y1="104.03" x2="473.8" y2="82.95"/>
  <line class="st1" x1="467.58" y1="90.34" x2="479.06" y2="88.66"/>
  <line class="st1" x1="459.9" y1="135.11" x2="488.07" y2="155.45"/>
  <line class="st1" x1="470.36" y1="142.66" x2="482.57" y2="137.65"/>
  <line class="st1" x1="618.91" y1="96.33" x2="591" y2="69.98"/>
  <line class="st1" x1="592.75" y1="82.95" x2="606.26" y2="84.39"/>
  <line class="st1" x1="617.54" y1="129.62" x2="587.7" y2="162.04"/>
  <line class="st1" x1="590.34" y1="145.83" x2="608.57" y2="139.37"/>
  <line class="st1" x1="602.62" y1="112.62" x2="619.99" y2="109.64"/>
  <line class="st1" x1="608.57" y1="101.18" x2="615.99" y2="110.33"/>
  <line class="st1" x1="484.68" y1="47.2" x2="493.45" y2="57.46"/>
  <line class="st1" x1="488.07" y1="51.16" x2="498.94" y2="49.33"/>
</svg>