<?xml version="1.0" encoding="UTF-8"?><svg id="Layer_11" xmlns="http://www.w3.org/2000/svg" xmlns:xlink="http://www.w3.org/1999/xlink" viewBox="0 0 770 192"><defs><style>.cls-1,.cls-2{fill:#e83c56;}.cls-3{fill:none;stroke:#fff;stroke-width:15px;}.cls-3,.cls-2{stroke-miterlimit:10;}.cls-4{fill:#1f3a75;}.cls-5{fill:#1d1d1b;}.cls-2{stroke:#e83c56;}.cls-6{clip-path:url(#clippath);}</style><clipPath id="clippath"><path class="cls-5" d="M507.49,95.97c30.16-37.91,36.66-73.92,23.25-95.97H238.26c-13.4,22.05-6.91,58.06,23.25,95.97-30.47,38.23-36.84,74.48-22.95,96.37h291.88c13.89-21.89,7.52-58.14-22.95-96.37Z"/></clipPath></defs><path class="cls-4" d="M115.24.23l22.39,1.96-14.66,17.04,22.39,1.96-14.66,17.04,22.39,1.97-93.55,52.79,101.29-33.78-102.79,59,110.53-39.99-110.53,62.81,118.26-43.8-118.26,65.43,126.01-46.41-14.65,17.05,22.39,1.97-14.65,17.05,22.39,1.97-14.65,17.05,22.39,1.97-16.35,19.03h388.13l-16.35-19.03,22.39-1.97-14.65-17.05,22.39-1.97-14.65-17.05,22.39-1.97-14.65-17.05,126.01,46.41-118.26-65.43,118.26,43.8-110.53-62.81,110.53,39.99-102.79-59,101.29,33.78-93.55-52.79,22.39-1.97-14.66-17.04,22.39-1.96-14.66-17.04,22.39-1.96-.23-.23H115.47l-.23.23Z"/><path class="cls-5" d="M507.49,95.97c30.16-37.91,36.66-73.92,23.25-95.97H238.26c-13.4,22.05-6.91,58.06,23.25,95.97-30.47,38.23-36.84,74.48-22.95,96.37h291.88c13.89-21.89,7.52-58.14-22.95-96.37Z"/><g class="cls-6"><rect class="cls-2" x="216.09" y="-15.82" width="331.75" height="38.3"/><polyline class="cls-3" points="198.25 -8 211.55 48 224.85 -8 238.15 48 251.45 -8 264.76 48 278.06 -8 291.36 48 304.67 -8 317.97 48 331.27 -8 344.57 48 357.87 -8 371.17 48 384.47 -8 397.78 48 411.08 -8 424.38 48 437.69 -8 450.99 48 464.3 -8 477.6 48 490.91 -8 504.21 48 517.51 -8 530.82 48 544.13 -8 557.44 48 570.76 -8"/><path class="cls-1" d="M481.12,171.35l-25.41,25.41-70.71,70.71-96.12-96.12c-19.53-19.52-19.53-51.18,0-70.71,19.53-19.52,51.18-19.52,70.71,0l25.41,25.41,25.41-25.41c19.52-19.52,51.18-19.52,70.71,0,19.53,19.53,19.53,51.19,0,70.71Z"/><polyline class="cls-3" points="198.25 162.01 211.55 218.01 224.85 162.01 238.15 218.01 251.45 162.01 264.76 218.01 278.06 162.01 291.36 218.01 304.67 162.01 317.97 218.01 331.27 162.01 344.57 218.01 357.87 162.01 371.17 218.01 384.47 162.01 397.78 218.01 411.08 162.01 424.38 218.01 437.69 162.01 450.99 218.01 464.3 162.01 477.6 218.01 490.91 162.01 504.21 218.01 517.51 162.01 530.82 218.01 544.13 162.01 557.44 218.01 570.76 162.01"/></g></svg>