<?xml version="1.0" encoding="UTF-8"?><svg id="Layer_10" xmlns="http://www.w3.org/2000/svg" viewBox="0 0 770 192"><defs><style>.cls-1{stroke:#ef7c97;}.cls-1,.cls-2{fill:none;stroke-miterlimit:10;}.cls-3{fill:#e83c56;}.cls-4{fill:#1f3a75;}.cls-5{fill:#007d70;}.cls-2{stroke:#1f3a75;stroke-width:10px;}</style></defs><polygon class="cls-4" points="661.49 171.5 645.52 155.11 667.87 150.17 651.9 133.77 711.95 141.24 658.28 112.44 711.95 119.04 664.66 91.11 711.95 93.87 671.04 69.77 711.95 71.43 677.42 48.44 699.77 43.51 683.8 27.11 706.15 22.18 690.18 5.78 712.94 0 57.06 0 79.82 5.78 63.85 22.18 86.2 27.11 70.23 43.51 92.58 48.44 58.05 71.43 98.96 69.77 58.05 93.87 105.34 91.11 58.05 119.04 111.72 112.44 58.05 141.24 118.1 133.77 102.13 150.17 124.48 155.11 108.51 171.5 130.87 176.45 115.47 192 654.53 192 639.13 176.45 661.49 171.5"/><circle class="cls-5" cx="259.81" cy="59.3" r="9.56"/><path class="cls-3" d="M327,96h115v38.5c0,31.74-25.76,57.5-57.5,57.5h0c-31.74,0-57.5-25.76-57.5-57.5v-38.5h0Z"/><line class="cls-2" x1="338.53" y1="131.25" x2="377.23" y2="176.18"/><line class="cls-2" x1="430.47" y1="131.25" x2="391.77" y2="176.18"/><rect class="cls-5" x="327" y="0" width="115" height="96"/><polyline class="cls-1" points="352.34 190.84 349.89 186.87 345.26 186.26 342.81 182.3 338.19 181.69 335.74 177.72 331.12 177.11 328.67 173.15 324.05 172.54 321.6 168.57 316.97 167.96 314.52 163.99 309.9 163.39 307.45 159.42 302.83 158.81 300.38 154.84 295.75 154.23 293.3 150.27 288.68 149.66 286.24 145.7 281.62 145.09 279.17 141.13 274.56 140.52 272.11 136.56 267.49 135.95 265.03 131.98 260.41 131.37 257.96 127.41 253.34 126.8 250.9 122.83 246.27 122.23 243.83 118.26 239.2 117.65 236.75 113.68 232.13 113.08 229.68 109.11 225.06 108.5 222.61 104.53 217.98 103.92 215.53 99.96 210.91 99.35 208.46 95.38 203.83 94.77 201.38 90.8 196.75 90.19 194.3 86.23 189.68 85.62 187.23 81.65 182.6 81.04 180.15 77.07 175.52 76.46 173.07 72.49 168.44 71.88 165.99 67.91 161.36 67.3 158.91 63.33 154.28 62.72 151.83 58.75 147.21 58.14 144.76 54.17 140.13 53.56 137.68 49.59 133.05 48.98 130.6 45.01 125.97 44.4 123.51 40.43 118.88 39.82 116.43 35.85 111.8 35.24 109.35 31.27 104.72 30.65 102.25 26.68 97.62 26.06"/><polyline class="cls-1" points="352.37 190.86 349.93 187.1 345.46 186.79 343.02 183.04 338.55 182.73 336.11 178.97 331.64 178.66 329.2 174.9 324.73 174.59 322.29 170.84 317.82 170.53 315.38 166.77 310.91 166.46 308.47 162.7 304 162.39 301.56 158.63 297.09 158.32 294.65 154.57 290.18 154.26 287.75 150.51 283.28 150.2 280.85 146.44 276.38 146.14 273.94 142.38 269.48 142.07 267.03 138.31 262.56 138 260.12 134.25 255.66 133.94 253.22 130.18 248.75 129.87 246.31 126.12 241.84 125.81 239.4 122.05 234.93 121.74 232.49 117.98 228.02 117.67 225.58 113.92 221.11 113.6 218.67 109.85 214.2 109.54 211.76 105.78 207.29 105.47 204.84 101.71 200.37 101.4 197.93 97.64 193.46 97.33 191.01 93.57 186.54 93.26 184.1 89.5 179.63 89.19 177.18 85.43 172.71 85.12 170.27 81.36 165.79 81.05 163.35 77.29 158.88 76.98 156.43 73.22 151.96 72.91 149.52 69.15 145.05 68.84 142.61 65.08 138.13 64.77 135.69 61.01 131.21 60.7 128.77 56.93 124.29 56.62 121.85 52.86 117.37 52.55 114.92 48.79 110.45 48.47 107.99 44.71 103.51 44.39"/><polyline class="cls-1" points="352.41 190.88 349.97 187.34 345.67 187.33 343.22 183.78 338.92 183.77 336.48 180.22 332.17 180.21 329.73 176.66 325.42 176.65 322.98 173.1 318.68 173.09 316.23 169.54 311.93 169.53 309.49 165.98 305.18 165.97 302.74 162.42 298.43 162.41 295.99 158.87 291.69 158.86 289.25 155.31 284.95 155.3 282.52 151.76 278.21 151.75 275.77 148.2 271.47 148.19 269.03 144.64 264.72 144.63 262.28 141.09 257.98 141.08 255.54 137.53 251.23 137.52 248.79 133.97 244.48 133.96 242.04 130.41 237.74 130.4 235.3 126.85 230.99 126.84 228.55 123.3 224.24 123.28 221.8 119.74 217.49 119.73 215.05 116.18 210.74 116.17 208.3 112.62 203.99 112.6 201.55 109.06 197.24 109.04 194.8 105.49 190.49 105.48 188.04 101.93 183.73 101.92 181.29 98.37 176.98 98.36 174.54 94.81 170.23 94.8 167.78 91.25 163.48 91.24 161.04 87.69 156.73 87.68 154.29 84.13 149.97 84.12 147.53 80.57 143.22 80.55 140.78 77 136.46 76.99 134.02 73.44 129.7 73.43 127.26 69.88 122.95 69.86 120.5 66.31 116.18 66.3 113.73 62.74 109.41 62.72"/><polyline class="cls-1" points="352.46 190.91 350.01 187.57 345.87 187.86 343.42 184.52 339.29 184.81 336.84 181.47 332.71 181.76 330.25 178.42 326.12 178.71 323.67 175.37 319.54 175.66 317.08 172.32 312.95 172.61 310.5 169.27 306.37 169.56 303.91 166.21 299.78 166.5 297.33 163.17 293.2 163.46 290.75 160.12 286.62 160.41 284.18 157.07 280.05 157.36 277.6 154.03 273.47 154.32 271.01 150.97 266.88 151.26 264.43 147.92 260.3 148.22 257.85 144.88 253.72 145.17 251.27 141.83 247.13 142.12 244.68 138.78 240.55 139.07 238.1 135.73 233.96 136.02 231.51 132.68 227.38 132.96 224.92 129.62 220.79 129.91 218.34 126.57 214.2 126.86 211.75 123.52 207.61 123.81 205.16 120.47 201.03 120.76 198.57 117.42 194.44 117.71 191.98 114.37 187.85 114.65 185.39 111.31 181.26 111.6 178.8 108.26 174.67 108.55 172.21 105.21 168.08 105.5 165.63 102.16 161.49 102.44 159.04 99.1 154.9 99.39 152.45 96.05 148.31 96.34 145.85 93 141.72 93.28 139.26 89.94 135.12 90.23 132.66 86.89 128.52 87.17 126.07 83.83 121.93 84.12 119.46 80.77 115.31 81.05"/><polyline class="cls-1" points="352.51 190.93 350.04 187.8 346.09 188.39 343.61 185.26 339.67 185.85 337.19 182.72 333.25 183.3 330.77 180.17 326.82 180.76 324.35 177.63 320.4 178.22 317.93 175.09 313.98 175.68 311.5 172.55 307.56 173.14 305.08 170.01 301.14 170.59 298.66 167.46 294.72 168.05 292.25 164.93 288.31 165.52 285.83 162.39 281.89 162.98 279.42 159.85 275.47 160.44 273 157.31 269.05 157.89 266.57 154.76 262.63 155.35 260.16 152.22 256.21 152.81 253.74 149.68 249.79 150.27 247.31 147.14 243.37 147.73 240.89 144.6 236.95 145.19 234.47 142.06 230.52 142.64 228.04 139.51 224.1 140.1 221.62 136.97 217.67 137.56 215.19 134.43 211.25 135.02 208.77 131.89 204.82 132.47 202.34 129.34 198.39 129.93 195.92 126.8 191.97 127.39 189.49 124.25 185.54 124.84 183.06 121.71 179.11 122.3 176.63 119.16 172.69 119.75 170.21 116.62 166.26 117.21 163.79 114.08 159.84 114.67 157.36 111.54 153.41 112.12 150.93 108.99 146.98 109.58 144.49 106.44 140.54 107.03 138.06 103.9 134.11 104.48 131.63 101.35 127.67 101.94 125.19 98.8 121.23 99.39"/><polyline class="cls-1" points="352.57 190.95 350.06 188.03 346.31 188.92 343.8 186 340.05 186.88 337.54 183.96 333.79 184.85 331.28 181.93 327.53 182.82 325.02 179.9 321.27 180.78 318.76 177.86 315.02 178.75 312.51 175.83 308.76 176.72 306.25 173.8 302.5 174.69 299.99 171.77 296.25 172.65 293.74 169.74 290 170.62 287.49 167.7 283.75 168.59 281.24 165.67 277.49 166.56 274.97 163.64 271.23 164.52 268.72 161.61 264.97 162.49 262.46 159.57 258.72 160.46 256.2 157.54 252.46 158.43 249.94 155.51 246.19 156.39 243.68 153.47 239.94 154.36 237.42 151.44 233.67 152.32 231.16 149.41 227.41 150.29 224.9 147.37 221.15 148.26 218.64 145.34 214.89 146.22 212.37 143.3 208.62 144.19 206.11 141.27 202.36 142.15 199.85 139.23 196.1 140.12 193.58 137.2 189.83 138.08 187.32 135.16 183.56 136.05 181.05 133.13 177.31 134.01 174.79 131.09 171.04 131.98 168.53 129.06 164.78 129.94 162.26 127.02 158.51 127.91 156 124.99 152.24 125.87 149.72 122.95 145.97 123.83 143.46 120.91 139.7 121.8 137.18 118.87 133.43 119.76 130.9 116.83 127.14 117.72"/><polyline class="cls-1" points="352.64 190.97 350.07 188.27 346.54 189.44 343.98 186.74 340.44 187.92 337.88 185.22 334.35 186.39 331.79 183.69 328.25 184.87 325.69 182.17 322.15 183.34 319.6 180.64 316.07 181.82 313.51 179.12 309.97 180.3 307.41 177.59 303.88 178.77 301.31 176.07 297.78 177.25 295.22 174.55 291.69 175.72 289.14 173.02 285.61 174.2 283.04 171.5 279.51 172.68 276.95 169.97 273.41 171.15 270.85 168.45 267.32 169.63 264.76 166.92 261.23 168.1 258.66 165.4 255.13 166.58 252.56 163.87 249.03 165.05 246.47 162.35 242.93 163.53 240.37 160.82 236.83 162 234.27 159.3 230.73 160.48 228.17 157.77 224.64 158.95 222.07 156.25 218.53 157.42 215.97 154.72 212.43 155.9 209.87 153.19 206.33 154.37 203.77 151.67 200.23 152.84 197.67 150.14 194.13 151.32 191.56 148.61 188.02 149.79 185.46 147.09 181.93 148.27 179.37 145.56 175.83 146.74 173.26 144.04 169.73 145.21 167.16 142.51 163.62 143.69 161.05 140.98 157.52 142.16 154.95 139.45 151.41 140.63 148.84 137.93 145.3 139.1 142.73 136.4 139.19 137.57 136.61 134.87 133.07 136.04"/><polyline class="cls-1" points="352.71 190.99 350.08 188.51 346.78 189.97 344.15 187.49 340.84 188.95 338.21 186.47 334.91 187.94 332.28 185.46 328.98 186.92 326.35 184.44 323.05 185.9 320.43 183.43 317.13 184.89 314.5 182.41 311.2 183.87 308.57 181.39 305.26 182.86 302.64 180.38 299.33 181.84 296.71 179.36 293.41 180.82 290.78 178.34 287.48 179.81 284.85 177.33 281.55 178.79 278.91 176.31 275.61 177.77 272.98 175.3 269.68 176.76 267.05 174.28 263.75 175.74 261.12 173.26 257.81 174.73 255.18 172.25 251.88 173.71 249.25 171.23 245.94 172.69 243.31 170.21 240.01 171.67 237.37 169.19 234.07 170.66 231.44 168.18 228.13 169.64 225.5 167.16 222.19 168.62 219.56 166.14 216.26 167.6 213.62 165.12 210.32 166.59 207.68 164.11 204.38 165.57 201.74 163.09 198.44 164.55 195.8 162.07 192.5 163.53 189.86 161.05 186.56 162.52 183.93 160.04 180.62 161.5 177.99 159.02 174.68 160.48 172.05 158 168.74 159.46 166.11 156.98 162.8 158.45 160.16 155.96 156.85 157.43 154.22 154.95 150.91 156.41 148.27 153.93 144.96 155.39 142.32 152.91 139 154.37"/><polyline class="cls-1" points="352.79 191 350.08 188.75 347.02 190.49 344.31 188.24 341.25 189.98 338.54 187.73 335.48 189.47 332.77 187.22 329.72 188.96 327.01 186.72 323.96 188.46 321.25 186.21 318.2 187.95 315.49 185.7 312.43 187.44 309.72 185.19 306.65 186.93 303.95 184.69 300.89 186.42 298.18 184.18 295.12 185.92 292.41 183.67 289.36 185.41 286.65 183.16 283.59 184.9 280.87 182.65 277.81 184.39 275.1 182.14 272.04 183.88 269.33 181.64 266.27 183.37 263.56 181.13 260.5 182.87 257.79 180.62 254.73 182.36 252.02 180.11 248.96 181.85 246.25 179.6 243.18 181.34 240.47 179.09 237.41 180.83 234.7 178.59 231.63 180.32 228.92 178.08 225.86 179.81 223.15 177.57 220.08 179.31 217.37 177.06 214.3 178.8 211.59 176.55 208.53 178.29 205.81 176.04 202.75 177.78 200.04 175.53 196.97 177.27 194.26 175.02 191.2 176.76 188.49 174.52 185.42 176.25 182.71 174.01 179.65 175.74 176.93 173.5 173.87 175.24 171.15 172.99 168.09 174.73 165.37 172.48 162.3 174.22 159.59 171.97 156.52 173.71 153.81 171.46 150.74 173.2 148.01 170.95 144.94 172.69"/><polyline class="cls-1" points="352.88 191 350.08 189 347.27 191 344.47 189 341.66 191 338.86 189 336.06 191 333.26 189 330.46 191 327.66 189 324.86 191 322.06 189 319.26 191 316.46 189 313.66 191 310.85 189 308.05 191 305.24 189 302.44 191 299.64 189 296.84 191 294.04 189 291.24 191 288.43 189 285.63 191 282.82 189 280.02 191 277.21 189 274.41 191 271.61 189 268.8 191 266 189 263.19 191 260.39 189 257.58 191 254.78 189 251.97 191 249.17 189 246.36 191 243.56 189 240.75 191 237.95 189 235.14 191 232.33 189 229.52 191 226.72 189 223.91 191 221.1 189 218.3 191 215.49 189 212.68 191 209.88 189 207.07 191 204.26 189 201.45 191 198.65 189 195.85 191 193.04 189 190.23 191 187.43 189 184.62 191 181.81 189 179 191 176.19 189 173.38 191 170.57 189 167.76 191 164.95 189 162.14 191 159.33 189 156.52 191 153.7 189 150.89 191"/><polyline class="cls-1" points="414.53 189.16 419.15 188.55 421.6 184.58 426.22 183.98 428.67 180.01 433.3 179.4 435.75 175.43 440.37 174.83 442.82 170.86 447.44 170.25 449.89 166.28 454.52 165.67 456.97 161.71 461.59 161.1 464.04 157.13 468.66 156.52 471.11 152.56 475.74 151.95 478.18 147.98 482.8 147.38 485.25 143.41 489.86 142.81 492.31 138.84 496.93 138.24 499.38 134.27 504 133.66 506.45 129.69 511.08 129.09 513.52 125.12 518.14 124.51 520.59 120.55 525.21 119.94 527.66 115.97 532.29 115.36 534.74 111.4 539.36 110.79 541.81 106.82 546.43 106.21 548.88 102.25 553.51 101.64 555.96 97.67 560.58 97.06 563.03 93.09 567.66 92.48 570.11 88.51 574.73 87.9 577.19 83.94 581.81 83.33 584.26 79.36 588.89 78.75 591.34 74.78 595.97 74.17 598.42 70.2 603.05 69.59 605.5 65.62 610.13 65.01 612.58 61.04 617.2 60.43 619.66 56.46 624.28 55.85 626.73 51.88 631.36 51.27 633.81 47.3 638.44 46.69 640.9 42.72 645.52 42.11 647.98 38.14 652.61 37.53 655.06 33.56 659.69 32.95 662.15 28.97 666.79 28.36 669.25 24.38"/><polyline class="cls-1" points="414.56 189.14 419.03 188.83 421.47 185.07 425.95 184.76 428.39 181 432.85 180.69 435.29 176.94 439.76 176.63 442.2 172.87 446.67 172.56 449.12 168.8 453.59 168.49 456.03 164.74 460.49 164.43 462.94 160.67 467.41 160.36 469.85 156.6 474.32 156.29 476.75 152.54 481.22 152.23 483.65 148.47 488.12 148.17 490.55 144.41 495.02 144.1 497.46 140.35 501.93 140.04 504.37 136.28 508.84 135.97 511.28 132.21 515.75 131.91 518.19 128.15 522.65 127.84 525.1 124.08 529.57 123.77 532.01 120.02 536.48 119.71 538.92 115.95 543.38 115.64 545.83 111.88 550.3 111.57 552.74 107.81 557.21 107.5 559.65 103.75 564.12 103.43 566.57 99.68 571.04 99.36 573.48 95.61 577.95 95.29 580.4 91.54 584.87 91.23 587.31 87.47 591.78 87.15 594.23 83.4 598.7 83.08 601.14 79.32 605.62 79.01 608.06 75.25 612.53 74.94 614.98 71.18 619.44 70.87 621.89 67.11 626.36 66.8 628.81 63.04 633.28 62.73 635.72 58.97 640.2 58.66 642.65 54.9 647.12 54.59 649.57 50.83 654.04 50.51 656.49 46.75 660.97 46.43 663.43 42.67"/><polyline class="cls-1" points="414.6 189.12 418.91 189.11 421.35 185.56 425.66 185.55 428.1 182 432.41 181.99 434.85 178.44 439.15 178.43 441.59 174.88 445.9 174.87 448.34 171.32 452.65 171.31 455.09 167.76 459.4 167.75 461.84 164.2 466.15 164.19 468.59 160.65 472.89 160.64 475.33 157.09 479.63 157.08 482.07 153.54 486.37 153.53 488.81 149.98 493.11 149.97 495.55 146.42 499.86 146.41 502.3 142.86 506.61 142.85 509.04 139.31 513.35 139.3 515.79 135.75 520.09 135.74 522.53 132.19 526.84 132.18 529.28 128.63 533.59 128.62 536.03 125.08 540.33 125.07 542.78 121.52 547.09 121.5 549.53 117.96 553.83 117.95 556.28 114.4 560.59 114.38 563.03 110.84 567.34 110.82 569.78 107.28 574.09 107.26 576.53 103.71 580.84 103.7 583.28 100.15 587.59 100.14 590.04 96.59 594.35 96.58 596.79 93.03 601.1 93.02 603.54 89.47 607.85 89.46 610.29 85.91 614.6 85.9 617.04 82.35 621.35 82.34 623.8 78.78 628.11 78.77 630.56 75.22 634.87 75.21 637.32 71.66 641.63 71.64 644.07 68.09 648.39 68.08 650.83 64.53 655.15 64.51 657.61 60.95"/><polyline class="cls-1" points="414.65 189.09 418.78 189.38 421.24 186.04 425.37 186.33 427.82 182.99 431.95 183.28 434.4 179.94 438.54 180.23 440.99 176.89 445.12 177.18 447.58 173.84 451.71 174.13 454.16 170.79 458.29 171.08 460.74 167.74 464.88 168.03 467.33 164.69 471.46 164.98 473.91 161.64 478.04 161.93 480.49 158.6 484.61 158.89 487.06 155.55 491.19 155.84 493.64 152.5 497.78 152.79 500.23 149.45 504.36 149.74 506.81 146.4 510.94 146.69 513.39 143.35 517.52 143.64 519.98 140.3 524.11 140.59 526.56 137.25 530.7 137.54 533.15 134.2 537.28 134.49 539.73 131.15 543.87 131.44 546.32 128.1 550.45 128.39 552.91 125.05 557.04 125.34 559.5 122 563.63 122.28 566.08 118.94 570.22 119.23 572.67 115.89 576.81 116.18 579.26 112.84 583.4 113.13 585.85 109.79 589.99 110.07 592.45 106.73 596.58 107.02 599.03 103.68 603.16 103.97 605.62 100.63 609.75 100.92 612.21 97.58 616.34 97.87 618.8 94.52 622.94 94.81 625.39 91.47 629.53 91.76 631.99 88.41 636.13 88.7 638.59 85.36 642.73 85.65 645.19 82.3 649.33 82.59 651.8 79.24"/><polyline class="cls-1" points="414.7 189.07 418.65 189.66 421.13 186.53 425.07 187.12 427.55 183.99 431.49 184.57 433.97 181.44 437.92 182.03 440.39 178.9 444.34 179.49 446.81 176.36 450.76 176.95 453.24 173.82 457.18 174.41 459.66 171.28 463.6 171.87 466.08 168.74 470.02 169.32 472.5 166.2 476.44 166.79 478.91 163.66 482.85 164.25 485.32 161.12 489.27 161.71 491.74 158.58 495.69 159.17 498.17 156.03 502.11 156.62 504.59 153.49 508.53 154.08 511 150.95 514.95 151.54 517.43 148.41 521.38 149 523.85 145.87 527.8 146.46 530.27 143.33 534.22 143.92 536.69 140.79 540.64 141.37 543.12 138.24 547.07 138.83 549.54 135.7 553.49 136.29 555.97 133.16 559.92 133.74 562.39 130.61 566.34 131.2 568.82 128.07 572.77 128.66 575.25 125.53 579.2 126.11 581.68 122.98 585.63 123.57 588.1 120.44 592.05 121.02 594.53 117.89 598.48 118.48 600.95 115.35 604.9 115.94 607.38 112.81 611.33 113.4 613.81 110.26 617.76 110.85 620.24 107.72 624.19 108.3 626.68 105.17 630.62 105.76 633.11 102.63 637.06 103.21 639.54 100.08 643.5 100.66 645.99 97.53"/><polyline class="cls-1" points="414.76 189.05 418.51 189.93 421.02 187.01 424.77 187.9 427.28 184.98 431.03 185.87 433.54 182.95 437.29 183.83 439.8 180.91 443.55 181.8 446.06 178.88 449.81 179.77 452.31 176.85 456.06 177.74 458.57 174.82 462.32 175.7 464.83 172.78 468.58 173.67 471.08 170.75 474.83 171.64 477.34 168.72 481.08 169.61 483.59 166.69 487.33 167.58 489.84 164.66 493.59 165.54 496.11 162.62 499.85 163.51 502.36 160.59 506.11 161.48 508.62 158.56 512.36 159.44 514.88 156.52 518.63 157.41 521.14 154.49 524.89 155.38 527.4 152.46 531.14 153.34 533.66 150.42 537.41 151.31 539.92 148.39 543.67 149.27 546.18 146.35 549.93 147.24 552.45 144.32 556.19 145.2 558.71 142.28 562.46 143.17 564.97 140.25 568.72 141.13 571.24 138.21 574.99 139.1 577.5 136.18 581.25 137.06 583.77 134.14 587.52 135.03 590.03 132.11 593.78 133 596.29 130.07 600.04 130.96 602.56 128.04 606.31 128.92 608.82 126 612.57 126.89 615.09 123.97 618.84 124.85 621.36 121.93 625.11 122.81 627.63 119.89 631.39 120.78 633.91 117.86 637.67 118.74 640.19 115.81"/><polyline class="cls-1" points="414.83 189.03 418.36 190.21 420.93 187.5 424.46 188.68 427.02 185.98 430.56 187.16 433.12 184.45 436.65 185.63 439.21 182.93 442.75 184.11 445.31 181.4 448.84 182.58 451.4 179.88 454.93 181.06 457.49 178.36 461.03 179.53 463.59 176.83 467.12 178.01 469.68 175.31 473.21 176.49 475.77 173.78 479.3 174.96 481.86 172.26 485.39 173.44 487.96 170.74 491.49 171.91 494.05 169.21 497.59 170.39 500.15 167.69 503.68 168.86 506.24 166.16 509.77 167.34 512.34 164.64 515.87 165.81 518.44 163.11 521.97 164.29 524.53 161.59 528.07 162.76 530.63 160.06 534.17 161.24 536.73 158.54 540.27 159.71 542.83 157.01 546.37 158.19 548.93 155.48 552.47 156.66 555.03 153.96 558.57 155.13 561.13 152.43 564.67 153.61 567.24 150.9 570.77 152.08 573.34 149.38 576.87 150.55 579.44 147.85 582.98 149.03 585.54 146.33 589.07 147.5 591.64 144.8 595.17 145.98 597.74 143.27 601.28 144.45 603.84 141.75 607.38 142.92 609.95 140.22 613.49 141.4 616.06 138.69 619.6 139.87 622.17 137.16 625.71 138.34 628.28 135.63 631.82 136.81 634.4 134.1"/><polyline class="cls-1" points="414.9 189.01 418.21 190.48 420.84 188 424.14 189.46 426.77 186.98 430.08 188.44 432.7 185.96 436.01 187.43 438.64 184.95 441.94 186.41 444.56 183.93 447.86 185.4 450.48 182.92 453.79 184.38 456.41 181.9 459.72 183.36 462.35 180.88 465.65 182.35 468.28 179.87 471.58 181.33 474.21 178.85 477.51 180.32 480.14 177.84 483.44 179.3 486.07 176.82 489.37 178.28 492 175.8 495.31 177.27 497.94 174.79 501.24 176.25 503.87 173.77 507.17 175.23 509.8 172.75 513.11 174.22 515.74 171.74 519.04 173.2 521.67 170.72 524.98 172.18 527.61 169.7 530.92 171.17 533.55 168.69 536.85 170.15 539.48 167.67 542.79 169.13 545.42 166.65 548.73 168.11 551.36 165.63 554.67 167.1 557.3 164.62 560.61 166.08 563.24 163.6 566.55 165.06 569.18 162.58 572.49 164.04 575.12 161.56 578.42 163.02 581.05 160.55 584.36 162.01 586.99 159.53 590.3 160.99 592.93 158.51 596.24 159.97 598.87 157.49 602.18 158.95 604.82 156.47 608.13 157.94 610.76 155.46 614.07 156.92 616.71 154.44 620.02 155.9 622.65 153.42 625.97 154.88 628.61 152.4"/><polyline class="cls-1" points="414.98 189 418.04 190.74 420.76 188.5 423.82 190.23 426.53 187.99 429.59 189.73 432.3 187.48 435.35 189.22 438.06 186.97 441.11 188.71 443.82 186.46 446.87 188.2 449.58 185.96 452.64 187.69 455.35 185.45 458.41 187.19 461.12 184.94 464.18 186.68 466.89 184.43 469.95 186.17 472.65 183.92 475.71 185.66 478.42 183.42 481.48 185.15 484.19 182.91 487.25 184.65 489.96 182.4 493.03 184.14 495.73 181.89 498.79 183.63 501.5 181.38 504.56 183.12 507.28 180.87 510.34 182.61 513.05 180.37 516.11 182.1 518.82 179.86 521.88 181.6 524.59 179.35 527.66 181.09 530.37 178.84 533.43 180.58 536.14 178.33 539.21 180.07 541.92 177.82 544.98 179.56 547.69 177.31 550.76 179.05 553.47 176.8 556.54 178.54 559.25 176.3 562.31 178.03 565.03 175.79 568.09 177.52 570.8 175.28 573.87 177.02 576.57 174.77 579.64 176.51 582.35 174.26 585.41 176 588.13 173.75 591.19 175.49 593.91 173.24 596.97 174.98 599.69 172.73 602.76 174.47 605.47 172.22 608.54 173.96 611.25 171.72 614.32 173.45 617.04 171.21 620.11 172.94 622.83 170.69"/><polyline class="cls-1" points="415.07 189 417.88 191 420.68 189 423.49 191 426.29 189 429.09 191 431.89 189 434.69 191 437.49 189 440.29 191 443.09 189 445.89 191 448.69 189 451.49 191 454.29 189 457.1 191 459.9 189 462.71 191 465.51 189 468.31 191 471.11 189 473.91 191 476.71 189 479.52 191 482.32 189 485.13 191 487.93 189 490.74 191 493.54 189 496.34 191 499.15 189 501.95 191 504.76 189 507.56 191 510.37 189 513.17 191 515.98 189 518.78 191 521.59 189 524.4 191 527.2 189 530.01 191 532.81 189 535.62 191 538.43 189 541.23 191 544.04 189 546.85 191 549.65 189 552.46 191 555.27 189 558.08 191 560.88 189 563.69 191 566.5 189 569.3 191 572.11 189 574.91 191 577.72 189 580.53 191 583.33 189 586.14 191 588.95 189 591.76 191 594.57 189 597.38 191 600.19 189 603 191 605.81 189 608.62 191 611.43 189 614.25 191 617.06 189"/><circle class="cls-5" cx="299.9" cy="99.04" r="6.02"/><circle class="cls-5" cx="303.95" cy="41.15" r="7.69"/><circle class="cls-5" cx="472.82" cy="36.95" r="6.76"/><circle class="cls-5" cx="510.32" cy="52.16" r="8.45"/><circle class="cls-5" cx="476.64" cy="89.48" r="9.56"/></svg>