<?xml version="1.0" encoding="UTF-8"?>
<svg id="Layer_8" xmlns="http://www.w3.org/2000/svg" version="1.1" viewBox="0 0 770 192">
  <!-- Generator: Adobe Illustrator 29.6.1, SVG Export Plug-In . SVG Version: 2.1.1 Build 9)  -->
  <defs>
    <style>
      .st0 {
        fill: #e83c56;
      }

      .st1 {
        fill: #c62846;
      }

      .st2 {
        fill: #1f3a75;
      }

      .st3 {
        fill: #f9c8bd;
      }

      .st4 {
        fill: #ee7175;
      }

      .st5 {
        fill: #fffef3;
      }

      .st6 {
        fill: none;
        stroke: #1f3a75;
        stroke-miterlimit: 10;
      }

      .st7 {
        fill: #fcdbcf;
      }

      .st8 {
        fill: #eb5964;
      }

      .st9 {
        fill: #f49f98;
      }

      .st10 {
        fill: #007d70;
      }

      .st11 {
        fill: #f6b4aa;
      }

      .st12 {
        fill: #feece1;
      }

      .st13 {
        fill: #f18986;
      }
    </style>
  </defs>
  <polygon class="st2" points="203.82 38.33 115.06 192.07 292.57 192.07 203.82 38.33"/>
  <path class="st10" d="M230.95,112.1c0-14.98-12.14-27.13-27.13-27.13s-27.13,12.14-27.13,27.13,27.13,79.97,27.13,79.97c0,0,27.13-64.99,27.13-79.97Z"/>
  <polygon class="st2" points="566.18 38.33 477.42 192.07 654.94 192.07 566.18 38.33"/>
  <path class="st10" d="M593.31,112.1c0-14.98-12.14-27.13-27.13-27.13s-27.13,12.14-27.13,27.13,27.13,79.97,27.13,79.97c0,0,27.13-64.99,27.13-79.97Z"/>
  <line class="st6" x1="203.82" y1="103.22" x2="203.82" y2="192.07"/>
  <line class="st6" x1="566.18" y1="103.22" x2="566.18" y2="192.07"/>
  <polygon class="st13" points="438.98 108.16 480.94 105.43 438.88 105.06 480.63 99.97 438.63 101.98 480.01 94.53 438.2 98.94 479.09 89.12 437.59 95.92 477.85 83.78 436.81 92.95 476.29 78.51 435.85 90.03 474.46 73.34 434.75 87.17 472.32 68.29 433.47 84.38 469.9 63.37 432.03 81.66 467.2 58.61 430.44 79.03 464.23 54 428.7 76.48 461.01 49.58 426.81 74.04 457.54 45.34 424.79 71.71 453.85 41.31 422.63 69.5 449.92 37.5 420.37 67.41 445.79 33.92 417.98 65.46 441.46 30.57 415.49 63.65 436.94 27.48 412.9 61.98 432.25 24.65 410.22 60.46 427.41 22.09 407.46 59.1 422.42 19.81 404.63 57.91 417.31 17.81 401.74 56.88 412.09 16.12 398.79 56.01 406.79 14.73 395.81 55.32 401.41 13.65 392.78 54.8 395.99 12.87 389.72 54.45 390.54 12.41 386.63 54.28 385.07 12.26 383.53 54.28 379.62 12.41 380.44 54.45 374.17 12.87 377.38 54.8 368.74 13.65 374.35 55.32 363.37 14.73 371.35 56.01 358.06 16.12 368.41 56.88 352.84 17.82 365.51 57.91 347.72 19.81 362.69 59.11 342.74 22.09 359.93 60.47 337.88 24.65 357.25 61.98 333.2 27.49 354.66 63.65 328.69 30.58 352.17 65.46 324.35 33.93 349.78 67.42 320.22 37.51 347.51 69.5 316.29 41.32 345.35 71.72 312.6 45.35 343.34 74.05 309.13 49.59 341.46 76.49 305.92 54.01 339.71 79.03 302.95 58.62 338.12 81.66 300.25 63.38 336.69 84.38 297.82 68.3 335.41 87.18 295.69 73.35 334.29 90.04 293.85 78.52 333.35 92.96 292.31 83.78 332.57 95.93 291.07 89.13 331.96 98.94 290.13 94.53 331.53 101.98 289.51 99.97 331.26 105.06 289.22 105.43 331.18 108.16 289.22 110.89 331.26 111.25 289.51 116.34 331.53 114.33 290.13 121.78 331.96 117.38 291.07 127.19 332.57 120.39 292.31 132.53 333.35 123.36 293.85 137.8 334.29 126.28 295.7 142.97 335.41 129.14 297.84 148.02 336.69 131.93 300.26 152.94 338.13 134.65 302.96 157.71 339.72 137.29 305.92 162.31 341.46 139.83 309.13 166.74 343.34 142.27 312.6 170.97 345.37 144.6 316.31 175 347.51 146.81 320.23 178.81 349.79 148.9 324.37 182.39 352.18 150.85 328.7 185.74 354.67 152.67 333.21 188.83 357.26 154.34 337.9 191.67 359.94 155.85 342.75 194.23 362.69 157.21 347.73 196.51 365.51 158.41 352.84 198.5 368.41 159.44 358.06 200.19 371.35 160.3 363.37 201.58 374.35 160.99 368.74 202.67 377.38 161.51 374.17 203.44 380.44 161.86 379.62 203.9 383.53 162.03 385.07 204.06 386.63 162.03 390.54 203.9 389.72 161.86 395.99 203.44 392.78 161.51 401.41 202.67 395.81 160.99 406.79 201.58 398.79 160.3 412.1 200.19 401.75 159.44 417.32 198.5 404.63 158.4 422.43 196.5 407.47 157.21 427.42 194.22 410.23 155.85 432.26 191.66 412.9 154.33 436.95 188.83 415.49 152.66 441.47 185.73 417.98 150.85 445.79 182.39 420.37 148.9 449.93 178.8 422.63 146.81 453.85 174.99 424.79 144.6 457.54 170.96 426.82 142.27 461.01 166.73 428.7 139.82 464.24 162.3 430.44 137.28 467.2 157.7 432.03 134.65 469.9 152.93 433.47 131.93 472.32 148.01 434.75 129.14 474.46 142.96 435.85 126.28 476.31 137.79 436.81 123.36 477.85 132.53 437.59 120.39 479.09 127.18 438.2 117.38 480.01 121.78 438.63 114.33 480.63 116.34 438.88 111.25 480.94 110.89 438.98 108.16"/>
  <path class="st1" d="M385.57,47.71h0c34.43,0,62.38,27.95,62.38,62.38v65.82h-124.75v-65.82c0-34.43,27.95-62.38,62.38-62.38,0,0-.01,0-.01,0Z"/>
  <rect class="st10" x="302.5" y="167.97" width="165.17" height="24.1"/>
  <circle class="st0" cx="385.57" cy="109.65" r="57"/>
  <circle class="st8" cx="385.57" cy="109.65" r="51.46"/>
  <circle class="st4" cx="385.57" cy="109.65" r="45.92"/>
  <circle class="st13" cx="385.57" cy="109.65" r="40.38"/>
  <circle class="st9" cx="385.57" cy="109.65" r="34.84"/>
  <circle class="st11" cx="385.57" cy="109.65" r="29.29"/>
  <circle class="st3" cx="385.57" cy="109.65" r="23.75"/>
  <circle class="st7" cx="385.57" cy="109.65" r="18.21"/>
  <circle class="st12" cx="385.57" cy="109.65" r="12.67"/>
  <circle class="st5" cx="385.57" cy="109.65" r="7.13"/>
</svg>