<?xml version="1.0" encoding="UTF-8"?><svg xmlns="http://www.w3.org/2000/svg" xmlns:xlink="http://www.w3.org/1999/xlink" viewBox="0 0 770 192"><defs><style>.cls-1,.cls-2,.cls-3,.cls-4,.cls-5,.cls-6,.cls-7{stroke-miterlimit:10;}.cls-1,.cls-3,.cls-4,.cls-5,.cls-6,.cls-7{fill:none;}.cls-1,.cls-6{stroke:#fcca0c;}.cls-1,.cls-7{stroke-width:3px;}.cls-2{fill:#fcca0c;stroke:#007d70;}.cls-2,.cls-4{stroke-width:10px;}.cls-3{stroke:#fffef3;stroke-width:.5px;}.cls-8{fill:#1f3a75;}.cls-4,.cls-5{stroke:#e83c56;}.cls-5{stroke-width:15px;}.cls-9{fill:#fffef3;}.cls-10{clip-path:url(#clippath-1);}.cls-11{clip-path:url(#clippath-2);}.cls-12{fill:#ef7c97;}.cls-13{fill:#007d70;}.cls-6{stroke-width:2px;}.cls-14{clip-path:url(#clippath);}.cls-7{stroke:#1f3a75;}</style><clipPath id="clippath"><path class="cls-8" d="M608.21,147.13c-53.4-63.72-133.57-104.23-223.21-104.23s-169.81,40.51-223.21,104.23h446.41Z"/></clipPath><clipPath id="clippath-1"><path class="cls-13" d="M299.64,192h-107.27c0-29.62,24.01-53.63,53.64-53.63s53.63,24.01,53.63,53.63Z"/></clipPath><clipPath id="clippath-2"><path class="cls-13" d="M577.6,192h-107.27c0-29.62,24.01-53.63,53.64-53.63s53.63,24.01,53.63,53.63Z"/></clipPath></defs><g id="Layer_2"><path class="cls-8" d="M608.21,147.13c-53.4-63.72-133.57-104.23-223.21-104.23s-169.81,40.51-223.21,104.23h446.41Z"/><g class="cls-14"><line class="cls-2" x1="177.95" y1="-18.62" x2="177.95" y2="163.96"/><line class="cls-2" x1="200.37" y1="-18.62" x2="200.37" y2="163.96"/><line class="cls-2" x1="222.8" y1="-18.62" x2="222.8" y2="163.96"/><line class="cls-2" x1="245.23" y1="-18.62" x2="245.23" y2="163.96"/><line class="cls-2" x1="267.65" y1="-18.62" x2="267.65" y2="163.96"/><line class="cls-2" x1="290.08" y1="-18.62" x2="290.08" y2="163.96"/><line class="cls-2" x1="312.51" y1="-18.62" x2="312.51" y2="163.96"/><line class="cls-2" x1="334.94" y1="-18.62" x2="334.94" y2="163.96"/><line class="cls-2" x1="357.36" y1="-18.62" x2="357.36" y2="163.96"/><line class="cls-2" x1="379.79" y1="-18.62" x2="379.79" y2="163.96"/><line class="cls-2" x1="402.22" y1="-18.62" x2="402.22" y2="163.96"/><line class="cls-2" x1="424.64" y1="-18.62" x2="424.64" y2="163.96"/><line class="cls-2" x1="447.07" y1="-18.62" x2="447.07" y2="163.96"/><line class="cls-2" x1="469.5" y1="-18.62" x2="469.5" y2="163.96"/><line class="cls-2" x1="491.93" y1="-18.62" x2="491.93" y2="163.96"/><line class="cls-2" x1="514.35" y1="-18.62" x2="514.35" y2="163.96"/><line class="cls-2" x1="536.78" y1="-18.62" x2="536.78" y2="163.96"/><line class="cls-2" x1="559.21" y1="-18.62" x2="559.21" y2="163.96"/><line class="cls-2" x1="581.63" y1="-18.62" x2="581.63" y2="163.96"/><line class="cls-2" x1="604.06" y1="-18.62" x2="604.06" y2="163.96"/><line class="cls-2" x1="626.49" y1="-18.62" x2="626.49" y2="163.96"/></g><rect class="cls-8" x="115" y="147.13" width="540" height="44.87"/><line class="cls-1" x1="115" y1="169.56" x2="655" y2="169.56"/></g><g id="Layer_3"><rect class="cls-12" x="115" y=".34" width="540" height="191.66"/><polygon class="cls-9" points="655 19.77 632.5 126.3 610 19.77 587.49 126.3 564.99 19.77 542.49 126.3 519.99 19.77 497.49 126.3 474.99 19.77 452.49 126.3 429.99 19.77 407.49 126.3 384.99 19.77 362.49 126.3 339.99 19.77 317.49 126.3 294.99 19.77 272.49 126.3 250 19.77 227.5 126.3 205 19.77 182.5 126.3 160 19.77 137.5 126.3 115 19.77 115 0 655 0 655 19.77"/><path class="cls-9" d="M311.7,192c0-36.04-29.66-65.7-65.7-65.7s-65.7,29.66-65.7,65.7h131.39Z"/><path class="cls-13" d="M299.64,192h-107.27c0-29.62,24.01-53.63,53.64-53.63s53.63,24.01,53.63,53.63Z"/><g class="cls-10"><polygon class="cls-8" points="274.93 193.46 313.84 189.92 274.77 190.41 313.1 182.85 274.3 187.42 311.63 175.88 273.52 184.51 309.43 169.1 272.44 181.7 306.53 162.6 271.07 179.01 302.96 156.44 269.42 176.47 298.78 150.7 267.5 174.11 294.03 145.43 265.35 171.96 288.76 140.67 262.99 170.04 283.02 136.49 260.45 168.39 276.86 132.93 257.76 167.02 270.36 130.03 254.95 165.94 263.58 127.83 252.04 165.16 256.61 126.36 249.05 164.69 249.55 125.62 246.01 164.53 242.47 125.62 242.96 164.69 235.4 126.36 239.97 165.16 228.43 127.83 237.06 165.94 221.65 130.03 234.25 167.02 215.15 132.94 231.56 168.39 208.99 136.5 229.02 170.05 203.25 140.68 226.66 171.96 197.98 145.43 224.51 174.11 193.22 150.7 222.59 176.47 189.05 156.45 220.94 179.01 185.48 162.6 219.57 181.7 182.58 169.11 218.49 184.51 180.38 175.88 217.71 187.42 178.91 182.85 217.24 190.41 178.17 189.92 217.08 193.46 178.17 196.99 217.24 196.5 178.91 204.06 217.71 199.49 180.38 211.03 218.49 202.4 182.59 217.81 219.57 205.22 185.49 224.31 220.94 207.91 189.05 230.47 222.6 210.45 193.23 236.21 224.51 212.81 197.98 241.49 226.66 214.96 203.25 246.24 229.02 216.87 209 250.42 231.56 218.52 215.15 253.98 234.25 219.89 221.66 256.88 237.06 220.97 228.43 259.08 239.97 221.75 235.4 260.55 242.96 222.22 242.47 261.29 246.01 222.38 249.55 261.29 249.05 222.22 256.61 260.55 252.04 221.75 263.58 259.08 254.95 220.97 270.36 256.88 257.77 219.89 276.86 253.98 260.46 218.52 283.02 250.41 263 216.87 288.76 246.23 265.36 214.95 294.04 241.48 267.51 212.8 298.79 236.21 269.42 210.44 302.97 230.47 271.07 207.9 306.53 224.31 272.44 205.21 309.43 217.81 273.52 202.4 311.63 211.03 274.3 199.49 313.1 204.06 274.77 196.5 313.84 197 274.93 193.46"/></g><path class="cls-9" d="M115,0v192h-57.5C59.36,103.63,85.72,49.75,115,0Z"/><path class="cls-9" d="M655,0v192s57.5,0,57.5,0c-1.86-88.37-28.22-142.25-57.5-192Z"/><path class="cls-7" d="M361.69,191.66c0-63.46-52.22-115.68-115.68-115.68s-115.68,52.22-115.68,115.68"/><path class="cls-7" d="M639.65,191.66c0-63.46-52.22-115.68-115.68-115.68s-115.68,52.22-115.68,115.68"/><polyline class="cls-3" points="604.9 189.76 630.89 188.1 604.87 187.25 630.79 184.78 604.75 184.74 630.58 181.45 604.55 182.23 630.27 178.14 604.28 179.74 629.85 174.83 603.92 177.25 629.33 171.54 603.49 174.78 628.71 168.27 602.98 172.32 627.98 165.02 602.4 169.88 627.15 161.8 601.73 167.46 626.22 158.6 600.99 165.06 625.19 155.44 600.18 162.68 624.06 152.31 599.29 160.33 622.84 149.22 598.33 158.01 621.52 146.16 597.3 155.72 620.1 143.16 596.19 153.46 618.6 140.2 595.01 151.24 617 137.28 593.77 149.05 615.31 134.42 592.46 146.9 613.54 131.62 591.08 144.79 611.68 128.87 589.64 142.73 609.74 126.18 588.13 140.71 607.72 123.55 586.56 138.73 605.62 120.98 584.94 136.81 603.44 118.48 583.25 134.93 601.18 116.05 581.51 133.11 598.86 113.69 579.71 131.34 596.46 111.4 577.86 129.62 593.99 109.18 575.96 127.97 591.46 107.04 574.01 126.37 588.86 104.98 572.01 124.83 586.2 103 569.97 123.36 583.48 101.1 567.88 121.95 580.7 99.29 565.75 120.61 577.87 97.56 563.58 119.33 574.98 95.92 561.37 118.12 572.05 94.37 559.13 116.98 569.06 92.9 556.86 115.91 566.03 91.54 554.55 114.91 562.96 90.27 552.22 113.99 559.85 89.09 549.86 113.13 556.71 88.01 547.47 112.36 553.53 87.03 545.06 111.66 550.32 86.15 542.63 111.03 547.08 85.38 540.18 110.49 543.82 84.7 537.72 110.02 540.54 84.13 535.24 109.62 537.25 83.66 532.75 109.31 533.94 83.3 530.25 109.08 530.62 83.04 527.74 108.92 527.3 82.88 525.23 108.84 523.97 82.83 522.71 108.84 520.65 82.88 520.2 108.92 517.32 83.04 517.69 109.08 514 83.3 515.19 109.31 510.69 83.66 512.7 109.63 507.39 84.13 510.22 110.02 504.11 84.7 507.75 110.49 500.85 85.38 505.3 111.04 497.61 86.16 502.87 111.66 494.4 87.04 500.46 112.36 491.22 88.02 498.08 113.14 488.08 89.1 495.71 113.99 484.96 90.27 493.38 114.92 481.89 91.55 491.07 115.91 478.86 92.91 488.8 116.98 475.88 94.37 486.55 118.13 472.94 95.93 484.35 119.34 470.05 97.57 482.18 120.61 467.22 99.3 480.05 121.96 464.44 101.11 477.96 123.37 461.72 103.01 475.92 124.84 459.06 105 473.92 126.38 456.47 107.06 471.97 127.98 453.93 109.2 470.07 129.64 451.47 111.42 468.22 131.35 449.07 113.71 466.42 133.12 446.74 116.07 464.68 134.94 444.49 118.5 463 136.82 442.31 121 461.37 138.75 440.21 123.57 459.8 140.72 438.19 126.2 458.3 142.74 436.25 128.89 456.85 144.81 434.39 131.64 455.48 146.92 432.62 134.44 454.17 149.07 430.93 137.3 452.92 151.25 429.34 140.21 451.75 153.48 427.83 143.18 450.64 155.74 426.42 146.18 449.61 158.03 425.1 149.23 448.65 160.35 423.87 152.32 447.76 162.7 422.75 155.45 446.94 165.07 421.72 158.62 446.21 167.47 420.79 161.81 445.54 169.89 419.96 165.04 444.96 172.33 419.23 168.28 444.45 174.79 418.61 171.55 444.02 177.26 418.09 174.84 443.67 179.74 417.67 178.14 443.39 182.24 417.36 181.46 443.19 184.74 417.15 184.78 443.08 187.25 417.05 188.1 443.04 189.76"/><polyline class="cls-3" points="326.94 189.76 352.93 188.1 326.9 187.25 352.82 184.78 326.78 184.74 352.62 181.45 326.59 182.23 352.3 178.14 326.31 179.74 351.89 174.83 325.96 177.25 351.37 171.54 325.53 174.78 350.74 168.27 325.02 172.32 350.02 165.02 324.43 169.88 349.19 161.8 323.77 167.46 348.26 158.6 323.03 165.06 347.23 155.44 322.22 162.68 346.1 152.31 321.33 160.33 344.88 149.22 320.37 158.01 343.55 146.16 319.33 155.72 342.14 143.16 318.23 153.46 340.63 140.2 317.05 151.24 339.04 137.28 315.81 149.05 337.35 134.42 314.49 146.9 335.58 131.62 313.12 144.79 333.72 128.87 311.67 142.73 331.78 126.18 310.17 140.71 329.75 123.55 308.6 138.73 327.65 120.98 306.97 136.81 325.47 118.48 305.29 134.93 323.22 116.05 303.54 133.11 320.89 113.69 301.75 131.34 318.5 111.4 299.9 129.62 316.03 109.18 298 127.97 313.5 107.04 296.04 126.37 310.9 104.98 294.05 124.83 308.24 103 292 123.36 305.52 101.1 289.92 121.95 302.74 99.29 287.79 120.61 299.91 97.56 285.62 119.33 297.02 95.92 283.41 118.12 294.08 94.37 281.17 116.98 291.1 92.9 278.89 115.91 288.07 91.54 276.59 114.91 285 90.27 274.25 113.99 281.89 89.09 271.89 113.13 278.74 88.01 269.51 112.36 275.56 87.03 267.1 111.66 272.35 86.15 264.66 111.03 269.11 85.38 262.22 110.49 265.86 84.7 259.75 110.02 262.58 84.13 257.28 109.62 259.28 83.66 254.79 109.31 255.97 83.3 252.29 109.08 252.66 83.04 249.78 108.92 249.33 82.88 247.27 108.84 246.01 82.83 244.75 108.84 242.68 82.88 242.24 108.92 239.36 83.04 239.73 109.08 236.04 83.3 237.23 109.31 232.73 83.66 234.74 109.63 229.43 84.13 232.26 110.02 226.15 84.7 229.79 110.49 222.89 85.38 227.34 111.04 219.65 86.16 224.91 111.66 216.44 87.04 222.5 112.36 213.26 88.02 220.11 113.14 210.11 89.1 217.75 113.99 207 90.27 215.41 114.92 203.93 91.55 213.11 115.91 200.9 92.91 210.83 116.98 197.91 94.37 208.59 118.13 194.98 95.93 206.38 119.34 192.09 97.57 204.22 120.61 189.26 99.3 202.09 121.96 186.48 101.11 200 123.37 183.76 103.01 197.96 124.84 181.1 105 195.96 126.38 178.5 107.06 194.01 127.98 175.97 109.2 192.11 129.64 173.5 111.42 190.26 131.35 171.11 113.71 188.46 133.12 168.78 116.07 186.72 134.94 166.53 118.5 185.03 136.82 164.35 121 183.41 138.75 162.25 123.57 181.84 140.72 160.23 126.2 180.33 142.74 158.29 128.89 178.89 144.81 156.43 131.64 177.51 146.92 154.66 134.44 176.2 149.07 152.97 137.3 174.96 151.25 151.37 140.21 173.78 153.48 149.87 143.18 172.68 155.74 148.45 146.18 171.64 158.03 147.13 149.23 170.68 160.35 145.91 152.32 169.79 162.7 144.78 155.45 168.98 165.07 143.75 158.62 168.24 167.47 142.82 161.81 167.58 169.89 142 165.04 166.99 172.33 141.27 168.28 166.49 174.79 140.65 171.55 166.05 177.26 140.13 174.84 165.7 179.74 139.71 178.14 165.43 182.24 139.4 181.46 165.23 184.74 139.19 184.78 165.11 187.25 139.09 188.1 165.07 189.76"/><path class="cls-9" d="M589.67,192c0-36.04-29.66-65.7-65.7-65.7s-65.7,29.66-65.7,65.7h131.39Z"/><circle class="cls-5" cx="245.76" cy="191.69" r="67.69"/><line class="cls-4" x1="313.44" y1="186.69" x2="451.28" y2="186.69"/><circle class="cls-5" cx="523.97" cy="191.69" r="67.69"/><circle class="cls-6" cx="523.97" cy="191.69" r="67.69"/><circle class="cls-6" cx="245.76" cy="191.69" r="67.69"/><path class="cls-13" d="M577.6,192h-107.27c0-29.62,24.01-53.63,53.64-53.63s53.63,24.01,53.63,53.63Z"/><g class="cls-11"><polygon class="cls-8" points="552.89 193.46 591.8 189.92 552.74 190.41 591.07 182.85 552.27 187.42 589.59 175.88 551.49 184.51 587.39 169.1 550.41 181.7 584.49 162.6 549.03 179.01 580.93 156.44 547.38 176.47 576.75 150.7 545.47 174.11 572 145.43 543.32 171.96 566.72 140.67 540.96 170.04 560.98 136.49 538.42 168.39 554.82 132.93 535.73 167.02 548.32 130.03 532.92 165.94 541.54 127.83 530.01 165.16 534.58 126.36 527.02 164.69 527.51 125.62 523.97 164.53 520.43 125.62 520.92 164.69 513.37 126.36 517.94 165.16 506.4 127.83 515.02 165.94 499.62 130.03 512.21 167.02 493.11 132.94 509.52 168.39 486.96 136.5 506.98 170.05 481.21 140.68 504.62 171.96 475.94 145.43 502.47 174.11 471.19 150.7 500.56 176.47 467.01 156.45 498.91 179.01 463.45 162.6 497.53 181.7 460.55 169.11 496.45 184.51 458.35 175.88 495.68 187.42 456.87 182.85 495.21 190.41 456.14 189.92 495.05 193.46 456.14 196.99 495.21 196.5 456.87 204.06 495.68 199.49 458.35 211.03 496.45 202.4 460.55 217.81 497.53 205.22 463.45 224.31 498.91 207.91 467.01 230.47 500.56 210.45 471.19 236.21 502.47 212.81 475.94 241.49 504.62 214.96 481.22 246.24 506.98 216.87 486.96 250.42 509.52 218.52 493.12 253.98 512.21 219.89 499.62 256.88 515.03 220.97 506.4 259.08 517.94 221.75 513.37 260.55 520.92 222.22 520.43 261.29 523.97 222.38 527.51 261.29 527.02 222.22 534.58 260.55 530.01 221.75 541.54 259.08 532.92 220.97 548.32 256.88 535.73 219.89 554.83 253.98 538.42 218.52 560.98 250.41 540.96 216.87 566.73 246.23 543.32 214.95 572 241.48 545.47 212.8 576.75 236.21 547.38 210.44 580.93 230.47 549.04 207.9 584.49 224.31 550.41 205.21 587.39 217.81 551.49 202.4 589.59 211.03 552.27 199.49 591.07 204.06 552.74 196.5 591.8 197 552.89 193.46"/></g><line class="cls-6" x1="313.44" y1="186.69" x2="456.28" y2="186.69"/></g></svg>