<?xml version="1.0" encoding="UTF-8"?><svg id="Layer_6" xmlns="http://www.w3.org/2000/svg" xmlns:xlink="http://www.w3.org/1999/xlink" viewBox="0 0 770 192"><defs><style>.cls-1{stroke:#eeabcb;stroke-width:3px;}.cls-1,.cls-2,.cls-3{fill:none;stroke-miterlimit:10;}.cls-2{stroke-width:.7px;}.cls-2,.cls-3{stroke:#1f3a75;}.cls-3{stroke-width:.5px;}.cls-4{fill:#ef7c97;}.cls-5{fill:#ce507e;}.cls-6{clip-path:url(#clippath);}</style><clipPath id="clippath"><polygon class="cls-4" points="115 0 214.46 192 555.54 192 655 0 115 0"/></clipPath></defs><polygon class="cls-4" points="115 0 214.46 192 555.54 192 655 0 115 0"/><g class="cls-6"><line class="cls-2" x1="243.9" y1="31.09" x2="325.64" y2="-39.39"/><line class="cls-2" x1="246.69" y1="31.09" x2="326.81" y2="-39.39"/><line class="cls-2" x1="249.49" y1="31.09" x2="327.99" y2="-39.39"/><line class="cls-2" x1="252.28" y1="31.09" x2="329.16" y2="-39.39"/><line class="cls-2" x1="255.08" y1="31.09" x2="330.34" y2="-39.39"/><line class="cls-2" x1="257.87" y1="31.09" x2="331.51" y2="-39.39"/><line class="cls-2" x1="260.67" y1="31.09" x2="332.69" y2="-39.39"/><line class="cls-2" x1="263.46" y1="31.09" x2="333.87" y2="-39.39"/><line class="cls-2" x1="266.25" y1="31.09" x2="335.04" y2="-39.39"/><line class="cls-2" x1="269.05" y1="31.09" x2="336.22" y2="-39.39"/><line class="cls-2" x1="271.84" y1="31.09" x2="337.39" y2="-39.39"/><line class="cls-2" x1="274.64" y1="31.09" x2="338.57" y2="-39.39"/><line class="cls-2" x1="277.43" y1="31.09" x2="339.74" y2="-39.39"/><line class="cls-2" x1="280.22" y1="31.09" x2="340.92" y2="-39.39"/><line class="cls-2" x1="283.02" y1="31.09" x2="342.09" y2="-39.39"/><line class="cls-2" x1="285.81" y1="31.09" x2="343.27" y2="-39.39"/><line class="cls-2" x1="288.61" y1="31.09" x2="344.45" y2="-39.39"/><line class="cls-2" x1="291.4" y1="31.09" x2="345.62" y2="-39.39"/><line class="cls-2" x1="294.19" y1="31.09" x2="346.8" y2="-39.39"/><line class="cls-2" x1="296.99" y1="31.09" x2="347.97" y2="-39.39"/><line class="cls-2" x1="299.78" y1="31.09" x2="349.15" y2="-39.39"/><line class="cls-2" x1="302.58" y1="31.09" x2="350.32" y2="-39.39"/><line class="cls-2" x1="305.37" y1="31.09" x2="351.5" y2="-39.39"/><line class="cls-2" x1="308.16" y1="31.09" x2="352.67" y2="-39.39"/><line class="cls-2" x1="310.96" y1="31.09" x2="353.85" y2="-39.39"/><line class="cls-2" x1="313.75" y1="31.09" x2="355.02" y2="-39.39"/><line class="cls-2" x1="316.55" y1="31.09" x2="356.2" y2="-39.39"/><line class="cls-2" x1="319.34" y1="31.09" x2="357.38" y2="-39.39"/><line class="cls-2" x1="322.13" y1="31.09" x2="358.55" y2="-39.39"/><line class="cls-2" x1="324.93" y1="31.09" x2="359.73" y2="-39.39"/><line class="cls-2" x1="327.72" y1="31.09" x2="360.9" y2="-39.39"/><line class="cls-2" x1="330.52" y1="31.09" x2="362.08" y2="-39.39"/><line class="cls-2" x1="333.31" y1="31.09" x2="363.25" y2="-39.39"/><line class="cls-2" x1="336.1" y1="31.09" x2="364.43" y2="-39.39"/><line class="cls-2" x1="338.9" y1="31.09" x2="365.6" y2="-39.39"/><line class="cls-2" x1="341.69" y1="31.09" x2="366.78" y2="-39.39"/><line class="cls-2" x1="344.49" y1="31.09" x2="367.96" y2="-39.39"/><line class="cls-2" x1="347.28" y1="31.09" x2="369.13" y2="-39.39"/><line class="cls-2" x1="350.07" y1="31.09" x2="370.31" y2="-39.39"/><line class="cls-2" x1="352.87" y1="31.09" x2="371.48" y2="-39.39"/><line class="cls-2" x1="355.66" y1="31.09" x2="372.66" y2="-39.39"/><line class="cls-2" x1="358.46" y1="31.09" x2="373.83" y2="-39.39"/><line class="cls-2" x1="361.25" y1="31.09" x2="375.01" y2="-39.39"/><line class="cls-2" x1="364.04" y1="31.09" x2="376.18" y2="-39.39"/><line class="cls-2" x1="366.84" y1="31.09" x2="377.36" y2="-39.39"/><line class="cls-2" x1="369.63" y1="31.09" x2="378.53" y2="-39.39"/><line class="cls-2" x1="372.43" y1="31.09" x2="379.71" y2="-39.39"/><line class="cls-2" x1="375.22" y1="31.09" x2="380.89" y2="-39.39"/><line class="cls-2" x1="378.01" y1="31.09" x2="382.06" y2="-39.39"/><line class="cls-2" x1="380.81" y1="31.09" x2="383.24" y2="-39.39"/><line class="cls-2" x1="383.6" y1="31.09" x2="384.41" y2="-39.39"/><line class="cls-2" x1="386.4" y1="31.09" x2="385.59" y2="-39.39"/><line class="cls-2" x1="389.19" y1="31.09" x2="386.76" y2="-39.39"/><line class="cls-2" x1="391.99" y1="31.09" x2="387.94" y2="-39.39"/><line class="cls-2" x1="394.78" y1="31.09" x2="389.11" y2="-39.39"/><line class="cls-2" x1="397.57" y1="31.09" x2="390.29" y2="-39.39"/><line class="cls-2" x1="400.37" y1="31.09" x2="391.47" y2="-39.39"/><line class="cls-2" x1="403.16" y1="31.09" x2="392.64" y2="-39.39"/><line class="cls-2" x1="405.96" y1="31.09" x2="393.82" y2="-39.39"/><line class="cls-2" x1="408.75" y1="31.09" x2="394.99" y2="-39.39"/><line class="cls-2" x1="411.54" y1="31.09" x2="396.17" y2="-39.39"/><line class="cls-2" x1="414.34" y1="31.09" x2="397.34" y2="-39.39"/><line class="cls-2" x1="417.13" y1="31.09" x2="398.52" y2="-39.39"/><line class="cls-2" x1="419.93" y1="31.09" x2="399.69" y2="-39.39"/><line class="cls-2" x1="422.72" y1="31.09" x2="400.87" y2="-39.39"/><line class="cls-2" x1="425.51" y1="31.09" x2="402.04" y2="-39.39"/><line class="cls-2" x1="428.31" y1="31.09" x2="403.22" y2="-39.39"/><line class="cls-2" x1="431.1" y1="31.09" x2="404.4" y2="-39.39"/><line class="cls-2" x1="433.9" y1="31.09" x2="405.57" y2="-39.39"/><line class="cls-2" x1="436.69" y1="31.09" x2="406.75" y2="-39.39"/><line class="cls-2" x1="439.48" y1="31.09" x2="407.92" y2="-39.39"/><line class="cls-2" x1="442.28" y1="31.09" x2="409.1" y2="-39.39"/><line class="cls-2" x1="445.07" y1="31.09" x2="410.27" y2="-39.39"/><line class="cls-2" x1="447.87" y1="31.09" x2="411.45" y2="-39.39"/><line class="cls-2" x1="450.66" y1="31.09" x2="412.62" y2="-39.39"/><line class="cls-2" x1="453.45" y1="31.09" x2="413.8" y2="-39.39"/><line class="cls-2" x1="456.25" y1="31.09" x2="414.98" y2="-39.39"/><line class="cls-2" x1="459.04" y1="31.09" x2="416.15" y2="-39.39"/><line class="cls-2" x1="461.84" y1="31.09" x2="417.33" y2="-39.39"/><line class="cls-2" x1="464.63" y1="31.09" x2="418.5" y2="-39.39"/><line class="cls-2" x1="467.42" y1="31.09" x2="419.68" y2="-39.39"/><line class="cls-2" x1="470.22" y1="31.09" x2="420.85" y2="-39.39"/><line class="cls-2" x1="473.01" y1="31.09" x2="422.03" y2="-39.39"/><line class="cls-2" x1="475.81" y1="31.09" x2="423.2" y2="-39.39"/><line class="cls-2" x1="478.6" y1="31.09" x2="424.38" y2="-39.39"/><line class="cls-2" x1="481.39" y1="31.09" x2="425.55" y2="-39.39"/><line class="cls-2" x1="484.19" y1="31.09" x2="426.73" y2="-39.39"/><line class="cls-2" x1="486.98" y1="31.09" x2="427.91" y2="-39.39"/><line class="cls-2" x1="489.78" y1="31.09" x2="429.08" y2="-39.39"/><line class="cls-2" x1="492.57" y1="31.09" x2="430.26" y2="-39.39"/><line class="cls-2" x1="495.36" y1="31.09" x2="431.43" y2="-39.39"/><line class="cls-2" x1="498.16" y1="31.09" x2="432.61" y2="-39.39"/><line class="cls-2" x1="500.95" y1="31.09" x2="433.78" y2="-39.39"/><line class="cls-2" x1="503.75" y1="31.09" x2="434.96" y2="-39.39"/><line class="cls-2" x1="506.54" y1="31.09" x2="436.13" y2="-39.39"/><line class="cls-2" x1="509.33" y1="31.09" x2="437.31" y2="-39.39"/><line class="cls-2" x1="512.13" y1="31.09" x2="438.49" y2="-39.39"/><line class="cls-2" x1="514.92" y1="31.09" x2="439.66" y2="-39.39"/><line class="cls-2" x1="517.72" y1="31.09" x2="440.84" y2="-39.39"/><line class="cls-2" x1="520.51" y1="31.09" x2="442.01" y2="-39.39"/><line class="cls-2" x1="523.31" y1="31.09" x2="443.19" y2="-39.39"/><line class="cls-2" x1="526.1" y1="31.09" x2="444.36" y2="-39.39"/></g><line class="cls-3" x1="346.78" y1="115.31" x2="358.5" y2="82.35"/><line class="cls-3" x1="350.37" y1="115.31" x2="361.09" y2="82.35"/><line class="cls-3" x1="353.96" y1="115.31" x2="363.68" y2="82.35"/><line class="cls-3" x1="357.55" y1="115.31" x2="366.27" y2="82.35"/><line class="cls-3" x1="361.14" y1="115.31" x2="368.87" y2="82.35"/><line class="cls-3" x1="364.72" y1="115.31" x2="371.46" y2="82.35"/><line class="cls-3" x1="368.31" y1="115.31" x2="374.05" y2="82.35"/><line class="cls-3" x1="371.9" y1="115.31" x2="376.64" y2="82.35"/><line class="cls-3" x1="375.49" y1="115.31" x2="379.23" y2="82.35"/><line class="cls-3" x1="379.08" y1="115.31" x2="381.82" y2="82.35"/><line class="cls-3" x1="382.67" y1="115.31" x2="384.42" y2="82.35"/><line class="cls-3" x1="386.26" y1="115.31" x2="387.01" y2="82.35"/><line class="cls-3" x1="389.85" y1="115.31" x2="389.6" y2="82.35"/><line class="cls-3" x1="393.43" y1="115.31" x2="392.19" y2="82.35"/><line class="cls-3" x1="397.02" y1="115.31" x2="394.78" y2="82.35"/><line class="cls-3" x1="400.61" y1="115.31" x2="397.38" y2="82.35"/><line class="cls-3" x1="404.2" y1="115.31" x2="399.97" y2="82.35"/><line class="cls-3" x1="407.79" y1="115.31" x2="402.56" y2="82.35"/><line class="cls-3" x1="411.38" y1="115.31" x2="405.15" y2="82.35"/><line class="cls-3" x1="414.97" y1="115.31" x2="407.74" y2="82.35"/><line class="cls-3" x1="418.55" y1="115.31" x2="410.33" y2="82.35"/><line class="cls-3" x1="422.14" y1="115.31" x2="412.93" y2="82.35"/><path class="cls-5" d="M488.3,30.95h-206.61c0,20.02,46.25,36.25,103.31,36.25,57.05,0,103.3-16.23,103.3-36.25Z"/><path class="cls-1" d="M340.83,160.11c10.29,10.29,24.51,16.66,40.22,16.66,15.71,0,29.93-6.37,40.22-16.66"/></svg>