<?xml version="1.0" encoding="UTF-8"?><svg id="Layer_7" xmlns="http://www.w3.org/2000/svg" xmlns:xlink="http://www.w3.org/1999/xlink" viewBox="0 0 770 192"><defs><style>.cls-1,.cls-2{fill:none;}.cls-3{fill:#fffef3;}.cls-4{clip-path:url(#clippath-1);}.cls-5{fill:#007d70;}.cls-2{stroke:#fed303;stroke-linecap:round;stroke-miterlimit:10;stroke-width:10px;}.cls-6{clip-path:url(#clippath);}</style><clipPath id="clippath"><polygon class="cls-5" points="589.11 40.68 640.9 40.68 640.9 70.68 555.5 70.68 555.5 192 214.41 192 214.41 0 555.5 0 555.5 33.22 622.58 -41.58 644.92 -21.55 589.11 40.68"/></clipPath><clipPath id="clippath-1"><rect class="cls-1" x="212.71" y="-40.72" width="451.8" height="273.78"/></clipPath></defs><polygon class="cls-5" points="589.11 40.68 640.9 40.68 640.9 70.68 555.5 70.68 555.5 192 214.41 192 214.41 0 555.5 0 555.5 33.22 622.58 -41.58 644.92 -21.55 589.11 40.68"/><g class="cls-6"><g class="cls-4"><g id="_Grid_Repeat_"><line class="cls-2" x1="207.75" y1="-2.51" x2="207.75" y2="25.51"/></g><g id="_Grid_Repeat_-2"><line class="cls-2" x1="243.15" y1="25.51" x2="243.15" y2="-2.51"/></g><g id="_Grid_Repeat_-3"><line class="cls-2" x1="278.56" y1="-2.51" x2="278.56" y2="25.51"/></g><g id="_Grid_Repeat_-4"><line class="cls-2" x1="313.97" y1="25.51" x2="313.97" y2="-2.51"/></g><g id="_Grid_Repeat_-5"><line class="cls-2" x1="349.38" y1="-2.51" x2="349.38" y2="25.51"/></g><g id="_Grid_Repeat_-6"><line class="cls-2" x1="384.79" y1="25.51" x2="384.79" y2="-2.51"/></g><g id="_Grid_Repeat_-7"><line class="cls-2" x1="420.2" y1="-2.51" x2="420.2" y2="25.51"/></g><g id="_Grid_Repeat_-8"><line class="cls-2" x1="455.61" y1="25.51" x2="455.61" y2="-2.51"/></g><g id="_Grid_Repeat_-9"><line class="cls-2" x1="491.02" y1="-2.51" x2="491.02" y2="25.51"/></g><g id="_Grid_Repeat_-10"><line class="cls-2" x1="526.43" y1="25.51" x2="526.43" y2="-2.51"/></g><g id="_Grid_Repeat_-11"><line class="cls-2" x1="561.84" y1="-2.51" x2="561.84" y2="25.51"/></g><g id="_Grid_Repeat_-12"><line class="cls-2" x1="597.24" y1="25.51" x2="597.24" y2="-2.51"/></g><g id="_Grid_Repeat_-13"><line class="cls-2" x1="632.65" y1="-2.51" x2="632.65" y2="25.51"/></g><g id="_Grid_Repeat_-14"><line class="cls-2" x1="668.06" y1="25.51" x2="668.06" y2="-2.51"/></g><g id="_Grid_Repeat_-15"><line class="cls-2" x1="225.45" y1="30.43" x2="225.45" y2="58.45"/></g><g id="_Grid_Repeat_-16"><line class="cls-2" x1="260.86" y1="58.45" x2="260.86" y2="30.43"/></g><g id="_Grid_Repeat_-17"><line class="cls-2" x1="296.27" y1="30.43" x2="296.27" y2="58.45"/></g><g id="_Grid_Repeat_-18"><line class="cls-2" x1="331.68" y1="58.45" x2="331.68" y2="30.43"/></g><g id="_Grid_Repeat_-19"><line class="cls-2" x1="367.09" y1="30.43" x2="367.09" y2="58.45"/></g><g id="_Grid_Repeat_-20"><line class="cls-2" x1="402.5" y1="58.45" x2="402.5" y2="30.43"/></g><g id="_Grid_Repeat_-21"><line class="cls-2" x1="437.9" y1="30.43" x2="437.9" y2="58.45"/></g><g id="_Grid_Repeat_-22"><line class="cls-2" x1="473.31" y1="58.45" x2="473.31" y2="30.43"/></g><g id="_Grid_Repeat_-23"><line class="cls-2" x1="508.72" y1="30.43" x2="508.72" y2="58.45"/></g><g id="_Grid_Repeat_-24"><line class="cls-2" x1="544.13" y1="58.45" x2="544.13" y2="30.43"/></g><g id="_Grid_Repeat_-25"><line class="cls-2" x1="579.54" y1="30.43" x2="579.54" y2="58.45"/></g><g id="_Grid_Repeat_-26"><line class="cls-2" x1="614.95" y1="58.45" x2="614.95" y2="30.43"/></g><g id="_Grid_Repeat_-27"><line class="cls-2" x1="650.36" y1="30.43" x2="650.36" y2="58.45"/></g><g id="_Grid_Repeat_-28"><line class="cls-2" x1="207.75" y1="63.37" x2="207.75" y2="91.39"/></g><g id="_Grid_Repeat_-29"><line class="cls-2" x1="243.15" y1="91.39" x2="243.15" y2="63.37"/></g><g id="_Grid_Repeat_-30"><line class="cls-2" x1="278.56" y1="63.37" x2="278.56" y2="91.39"/></g><g id="_Grid_Repeat_-31"><line class="cls-2" x1="313.97" y1="91.39" x2="313.97" y2="63.37"/></g><g id="_Grid_Repeat_-32"><line class="cls-2" x1="349.38" y1="63.37" x2="349.38" y2="91.39"/></g><g id="_Grid_Repeat_-33"><line class="cls-2" x1="384.79" y1="91.39" x2="384.79" y2="63.37"/></g><g id="_Grid_Repeat_-34"><line class="cls-2" x1="420.2" y1="63.37" x2="420.2" y2="91.39"/></g><g id="_Grid_Repeat_-35"><line class="cls-2" x1="455.61" y1="91.39" x2="455.61" y2="63.37"/></g><g id="_Grid_Repeat_-36"><line class="cls-2" x1="491.02" y1="63.37" x2="491.02" y2="91.39"/></g><g id="_Grid_Repeat_-37"><line class="cls-2" x1="526.43" y1="91.39" x2="526.43" y2="63.37"/></g><g id="_Grid_Repeat_-38"><line class="cls-2" x1="561.84" y1="63.37" x2="561.84" y2="91.39"/></g><g id="_Grid_Repeat_-39"><line class="cls-2" x1="597.24" y1="91.39" x2="597.24" y2="63.37"/></g><g id="_Grid_Repeat_-40"><line class="cls-2" x1="632.65" y1="63.37" x2="632.65" y2="91.39"/></g><g id="_Grid_Repeat_-41"><line class="cls-2" x1="668.06" y1="91.39" x2="668.06" y2="63.37"/></g><g id="_Grid_Repeat_-42"><line class="cls-2" x1="225.45" y1="96.3" x2="225.45" y2="124.32"/></g><g id="_Grid_Repeat_-43"><line class="cls-2" x1="260.86" y1="124.32" x2="260.86" y2="96.3"/></g><g id="_Grid_Repeat_-44"><line class="cls-2" x1="296.27" y1="96.3" x2="296.27" y2="124.32"/></g><g id="_Grid_Repeat_-45"><line class="cls-2" x1="331.68" y1="124.32" x2="331.68" y2="96.3"/></g><g id="_Grid_Repeat_-46"><line class="cls-2" x1="367.09" y1="96.3" x2="367.09" y2="124.32"/></g><g id="_Grid_Repeat_-47"><line class="cls-2" x1="402.5" y1="124.32" x2="402.5" y2="96.3"/></g><g id="_Grid_Repeat_-48"><line class="cls-2" x1="437.9" y1="96.3" x2="437.9" y2="124.32"/></g><g id="_Grid_Repeat_-49"><line class="cls-2" x1="473.31" y1="124.32" x2="473.31" y2="96.3"/></g><g id="_Grid_Repeat_-50"><line class="cls-2" x1="508.72" y1="96.3" x2="508.72" y2="124.32"/></g><g id="_Grid_Repeat_-51"><line class="cls-2" x1="544.13" y1="124.32" x2="544.13" y2="96.3"/></g><g id="_Grid_Repeat_-52"><line class="cls-2" x1="579.54" y1="96.3" x2="579.54" y2="124.32"/></g><g id="_Grid_Repeat_-53"><line class="cls-2" x1="614.95" y1="124.32" x2="614.95" y2="96.3"/></g><g id="_Grid_Repeat_-54"><line class="cls-2" x1="650.36" y1="96.3" x2="650.36" y2="124.32"/></g><g id="_Grid_Repeat_-55"><line class="cls-2" x1="207.75" y1="129.24" x2="207.75" y2="157.26"/></g><g id="_Grid_Repeat_-56"><line class="cls-2" x1="243.15" y1="157.26" x2="243.15" y2="129.24"/></g><g id="_Grid_Repeat_-57"><line class="cls-2" x1="278.56" y1="129.24" x2="278.56" y2="157.26"/></g><g id="_Grid_Repeat_-58"><line class="cls-2" x1="313.97" y1="157.26" x2="313.97" y2="129.24"/></g><g id="_Grid_Repeat_-59"><line class="cls-2" x1="349.38" y1="129.24" x2="349.38" y2="157.26"/></g><g id="_Grid_Repeat_-60"><line class="cls-2" x1="384.79" y1="157.26" x2="384.79" y2="129.24"/></g><g id="_Grid_Repeat_-61"><line class="cls-2" x1="420.2" y1="129.24" x2="420.2" y2="157.26"/></g><g id="_Grid_Repeat_-62"><line class="cls-2" x1="455.61" y1="157.26" x2="455.61" y2="129.24"/></g><g id="_Grid_Repeat_-63"><line class="cls-2" x1="491.02" y1="129.24" x2="491.02" y2="157.26"/></g><g id="_Grid_Repeat_-64"><line class="cls-2" x1="526.43" y1="157.26" x2="526.43" y2="129.24"/></g><g id="_Grid_Repeat_-65"><line class="cls-2" x1="561.84" y1="129.24" x2="561.84" y2="157.26"/></g><g id="_Grid_Repeat_-66"><line class="cls-2" x1="597.24" y1="157.26" x2="597.24" y2="129.24"/></g><g id="_Grid_Repeat_-67"><line class="cls-2" x1="632.65" y1="129.24" x2="632.65" y2="157.26"/></g><g id="_Grid_Repeat_-68"><line class="cls-2" x1="668.06" y1="157.26" x2="668.06" y2="129.24"/></g><g id="_Grid_Repeat_-69"><line class="cls-2" x1="225.45" y1="162.18" x2="225.45" y2="190.2"/></g><g id="_Grid_Repeat_-70"><line class="cls-2" x1="260.86" y1="190.2" x2="260.86" y2="162.18"/></g><g id="_Grid_Repeat_-71"><line class="cls-2" x1="296.27" y1="162.18" x2="296.27" y2="190.2"/></g><g id="_Grid_Repeat_-72"><line class="cls-2" x1="331.68" y1="190.2" x2="331.68" y2="162.18"/></g><g id="_Grid_Repeat_-73"><line class="cls-2" x1="367.09" y1="162.18" x2="367.09" y2="190.2"/></g><g id="_Grid_Repeat_-74"><line class="cls-2" x1="402.5" y1="190.2" x2="402.5" y2="162.18"/></g><g id="_Grid_Repeat_-75"><line class="cls-2" x1="437.9" y1="162.18" x2="437.9" y2="190.2"/></g><g id="_Grid_Repeat_-76"><line class="cls-2" x1="473.31" y1="190.2" x2="473.31" y2="162.18"/></g><g id="_Grid_Repeat_-77"><line class="cls-2" x1="508.72" y1="162.18" x2="508.72" y2="190.2"/></g><g id="_Grid_Repeat_-78"><line class="cls-2" x1="544.13" y1="190.2" x2="544.13" y2="162.18"/></g><g id="_Grid_Repeat_-79"><line class="cls-2" x1="579.54" y1="162.18" x2="579.54" y2="190.2"/></g><g id="_Grid_Repeat_-80"><line class="cls-2" x1="614.95" y1="190.2" x2="614.95" y2="162.18"/></g><g id="_Grid_Repeat_-81"><line class="cls-2" x1="650.36" y1="162.18" x2="650.36" y2="190.2"/></g><g id="_Grid_Repeat_-82"><line class="cls-2" x1="207.75" y1="195.12" x2="207.75" y2="223.14"/></g><g id="_Grid_Repeat_-83"><line class="cls-2" x1="243.15" y1="223.14" x2="243.15" y2="195.12"/></g><g id="_Grid_Repeat_-84"><line class="cls-2" x1="278.56" y1="195.12" x2="278.56" y2="223.14"/></g><g id="_Grid_Repeat_-85"><line class="cls-2" x1="313.97" y1="223.14" x2="313.97" y2="195.12"/></g><g id="_Grid_Repeat_-86"><line class="cls-2" x1="349.38" y1="195.12" x2="349.38" y2="223.14"/></g><g id="_Grid_Repeat_-87"><line class="cls-2" x1="384.79" y1="223.14" x2="384.79" y2="195.12"/></g><g id="_Grid_Repeat_-88"><line class="cls-2" x1="420.2" y1="195.12" x2="420.2" y2="223.14"/></g><g id="_Grid_Repeat_-89"><line class="cls-2" x1="455.61" y1="223.14" x2="455.61" y2="195.12"/></g><g id="_Grid_Repeat_-90"><line class="cls-2" x1="491.02" y1="195.12" x2="491.02" y2="223.14"/></g><g id="_Grid_Repeat_-91"><line class="cls-2" x1="526.43" y1="223.14" x2="526.43" y2="195.12"/></g><g id="_Grid_Repeat_-92"><line class="cls-2" x1="561.84" y1="195.12" x2="561.84" y2="223.14"/></g><g id="_Grid_Repeat_-93"><line class="cls-2" x1="597.24" y1="223.14" x2="597.24" y2="195.12"/></g><g id="_Grid_Repeat_-94"><line class="cls-2" x1="632.65" y1="195.12" x2="632.65" y2="223.14"/></g><g id="_Grid_Repeat_-95"><line class="cls-2" x1="668.06" y1="223.14" x2="668.06" y2="195.12"/></g></g></g><path class="cls-3" d="M214.41,192v-121.07c80.36,17.15,136.41,57.8,169.07,121.07"/><path class="cls-3" d="M555.61,191.76l-.11-121.07c-80.36,17.15-136.41,57.8-169.07,121.07"/></svg>