<?xml version="1.0" encoding="UTF-8"?><svg id="Layer_5" xmlns="http://www.w3.org/2000/svg" xmlns:xlink="http://www.w3.org/1999/xlink" viewBox="0 0 770 192"><defs><style>.cls-1{fill:#0a5577;}.cls-2{fill:#007872;}.cls-3{fill:#184876;}.cls-4{fill:#1c4175;}.cls-5{fill:#1f3a75;}.cls-6{stroke:#eeabcb;stroke-width:3px;}.cls-6,.cls-7{fill:none;stroke-miterlimit:10;}.cls-8{fill:#fffef3;}.cls-9{fill:#fcca0c;}.cls-10{fill:#006177;}.cls-11{fill:#005b77;}.cls-12{fill:#006776;}.cls-13{fill:#007274;}.cls-7{stroke:#1f3a75;stroke-width:.7px;}.cls-14{fill:#ef7c97;}.cls-15{fill:#007d70;}.cls-16{fill:#124e77;}.cls-17{fill:#ce507e;}.cls-18{fill:#006d75;}.cls-19{clip-path:url(#clippath);}</style><clipPath id="clippath"><rect class="cls-14" x="115" width="540" height="192"/></clipPath></defs><path class="cls-17" d="M57.5,0h57.5v192h0c-31.74,0-57.5-25.76-57.5-57.5V0h0Z"/><path class="cls-5" d="M115.1,86.82v94.34c-26.05,0-47.17-21.12-47.17-47.17s21.12-47.17,47.17-47.17Z"/><circle class="cls-9" cx="115.1" cy="133.99" r="23.23"/><path class="cls-17" d="M655,0h57.5v134.5c0,31.74-25.76,57.5-57.5,57.5h0V0h0Z"/><path class="cls-5" d="M654.93,181.16v-94.34c26.05,0,47.17,21.12,47.17,47.17,0,26.05-21.12,47.17-47.17,47.17Z"/><circle class="cls-9" cx="654.93" cy="133.99" r="23.23"/><rect class="cls-14" x="115" width="540" height="192"/><g class="cls-19"><line class="cls-7" x1="243.9" y1="223.09" x2="325.64" y2="152.61"/><line class="cls-7" x1="246.69" y1="223.09" x2="326.81" y2="152.61"/><line class="cls-7" x1="249.49" y1="223.09" x2="327.99" y2="152.61"/><line class="cls-7" x1="252.28" y1="223.09" x2="329.16" y2="152.61"/><line class="cls-7" x1="255.08" y1="223.09" x2="330.34" y2="152.61"/><line class="cls-7" x1="257.87" y1="223.09" x2="331.51" y2="152.61"/><line class="cls-7" x1="260.67" y1="223.09" x2="332.69" y2="152.61"/><line class="cls-7" x1="263.46" y1="223.09" x2="333.87" y2="152.61"/><line class="cls-7" x1="266.25" y1="223.09" x2="335.04" y2="152.61"/><line class="cls-7" x1="269.05" y1="223.09" x2="336.22" y2="152.61"/><line class="cls-7" x1="271.84" y1="223.09" x2="337.39" y2="152.61"/><line class="cls-7" x1="274.64" y1="223.09" x2="338.57" y2="152.61"/><line class="cls-7" x1="277.43" y1="223.09" x2="339.74" y2="152.61"/><line class="cls-7" x1="280.22" y1="223.09" x2="340.92" y2="152.61"/><line class="cls-7" x1="283.02" y1="223.09" x2="342.09" y2="152.61"/><line class="cls-7" x1="285.81" y1="223.09" x2="343.27" y2="152.61"/><line class="cls-7" x1="288.61" y1="223.09" x2="344.45" y2="152.61"/><line class="cls-7" x1="291.4" y1="223.09" x2="345.62" y2="152.61"/><line class="cls-7" x1="294.19" y1="223.09" x2="346.8" y2="152.61"/><line class="cls-7" x1="296.99" y1="223.09" x2="347.97" y2="152.61"/><line class="cls-7" x1="299.78" y1="223.09" x2="349.15" y2="152.61"/><line class="cls-7" x1="302.58" y1="223.09" x2="350.32" y2="152.61"/><line class="cls-7" x1="305.37" y1="223.09" x2="351.5" y2="152.61"/><line class="cls-7" x1="308.16" y1="223.09" x2="352.67" y2="152.61"/><line class="cls-7" x1="310.96" y1="223.09" x2="353.85" y2="152.61"/><line class="cls-7" x1="313.75" y1="223.09" x2="355.02" y2="152.61"/><line class="cls-7" x1="316.55" y1="223.09" x2="356.2" y2="152.61"/><line class="cls-7" x1="319.34" y1="223.09" x2="357.38" y2="152.61"/><line class="cls-7" x1="322.13" y1="223.09" x2="358.55" y2="152.61"/><line class="cls-7" x1="324.93" y1="223.09" x2="359.73" y2="152.61"/><line class="cls-7" x1="327.72" y1="223.09" x2="360.9" y2="152.61"/><line class="cls-7" x1="330.52" y1="223.09" x2="362.08" y2="152.61"/><line class="cls-7" x1="333.31" y1="223.09" x2="363.25" y2="152.61"/><line class="cls-7" x1="336.1" y1="223.09" x2="364.43" y2="152.61"/><line class="cls-7" x1="338.9" y1="223.09" x2="365.6" y2="152.61"/><line class="cls-7" x1="341.69" y1="223.09" x2="366.78" y2="152.61"/><line class="cls-7" x1="344.49" y1="223.09" x2="367.96" y2="152.61"/><line class="cls-7" x1="347.28" y1="223.09" x2="369.13" y2="152.61"/><line class="cls-7" x1="350.07" y1="223.09" x2="370.31" y2="152.61"/><line class="cls-7" x1="352.87" y1="223.09" x2="371.48" y2="152.61"/><line class="cls-7" x1="355.66" y1="223.09" x2="372.66" y2="152.61"/><line class="cls-7" x1="358.46" y1="223.09" x2="373.83" y2="152.61"/><line class="cls-7" x1="361.25" y1="223.09" x2="375.01" y2="152.61"/><line class="cls-7" x1="364.04" y1="223.09" x2="376.18" y2="152.61"/><line class="cls-7" x1="366.84" y1="223.09" x2="377.36" y2="152.61"/><line class="cls-7" x1="369.63" y1="223.09" x2="378.53" y2="152.61"/><line class="cls-7" x1="372.43" y1="223.09" x2="379.71" y2="152.61"/><line class="cls-7" x1="375.22" y1="223.09" x2="380.89" y2="152.61"/><line class="cls-7" x1="378.01" y1="223.09" x2="382.06" y2="152.61"/><line class="cls-7" x1="380.81" y1="223.09" x2="383.24" y2="152.61"/><line class="cls-7" x1="383.6" y1="223.09" x2="384.41" y2="152.61"/><line class="cls-7" x1="386.4" y1="223.09" x2="385.59" y2="152.61"/><line class="cls-7" x1="389.19" y1="223.09" x2="386.76" y2="152.61"/><line class="cls-7" x1="391.99" y1="223.09" x2="387.94" y2="152.61"/><line class="cls-7" x1="394.78" y1="223.09" x2="389.11" y2="152.61"/><line class="cls-7" x1="397.57" y1="223.09" x2="390.29" y2="152.61"/><line class="cls-7" x1="400.37" y1="223.09" x2="391.47" y2="152.61"/><line class="cls-7" x1="403.16" y1="223.09" x2="392.64" y2="152.61"/><line class="cls-7" x1="405.96" y1="223.09" x2="393.82" y2="152.61"/><line class="cls-7" x1="408.75" y1="223.09" x2="394.99" y2="152.61"/><line class="cls-7" x1="411.54" y1="223.09" x2="396.17" y2="152.61"/><line class="cls-7" x1="414.34" y1="223.09" x2="397.34" y2="152.61"/><line class="cls-7" x1="417.13" y1="223.09" x2="398.52" y2="152.61"/><line class="cls-7" x1="419.93" y1="223.09" x2="399.69" y2="152.61"/><line class="cls-7" x1="422.72" y1="223.09" x2="400.87" y2="152.61"/><line class="cls-7" x1="425.51" y1="223.09" x2="402.04" y2="152.61"/><line class="cls-7" x1="428.31" y1="223.09" x2="403.22" y2="152.61"/><line class="cls-7" x1="431.1" y1="223.09" x2="404.4" y2="152.61"/><line class="cls-7" x1="433.9" y1="223.09" x2="405.57" y2="152.61"/><line class="cls-7" x1="436.69" y1="223.09" x2="406.75" y2="152.61"/><line class="cls-7" x1="439.48" y1="223.09" x2="407.92" y2="152.61"/><line class="cls-7" x1="442.28" y1="223.09" x2="409.1" y2="152.61"/><line class="cls-7" x1="445.07" y1="223.09" x2="410.27" y2="152.61"/><line class="cls-7" x1="447.87" y1="223.09" x2="411.45" y2="152.61"/><line class="cls-7" x1="450.66" y1="223.09" x2="412.62" y2="152.61"/><line class="cls-7" x1="453.45" y1="223.09" x2="413.8" y2="152.61"/><line class="cls-7" x1="456.25" y1="223.09" x2="414.98" y2="152.61"/><line class="cls-7" x1="459.04" y1="223.09" x2="416.15" y2="152.61"/><line class="cls-7" x1="461.84" y1="223.09" x2="417.33" y2="152.61"/><line class="cls-7" x1="464.63" y1="223.09" x2="418.5" y2="152.61"/><line class="cls-7" x1="467.42" y1="223.09" x2="419.68" y2="152.61"/><line class="cls-7" x1="470.22" y1="223.09" x2="420.85" y2="152.61"/><line class="cls-7" x1="473.01" y1="223.09" x2="422.03" y2="152.61"/><line class="cls-7" x1="475.81" y1="223.09" x2="423.2" y2="152.61"/><line class="cls-7" x1="478.6" y1="223.09" x2="424.38" y2="152.61"/><line class="cls-7" x1="481.39" y1="223.09" x2="425.55" y2="152.61"/><line class="cls-7" x1="484.19" y1="223.09" x2="426.73" y2="152.61"/><line class="cls-7" x1="486.98" y1="223.09" x2="427.91" y2="152.61"/><line class="cls-7" x1="489.78" y1="223.09" x2="429.08" y2="152.61"/><line class="cls-7" x1="492.57" y1="223.09" x2="430.26" y2="152.61"/><line class="cls-7" x1="495.36" y1="223.09" x2="431.43" y2="152.61"/><line class="cls-7" x1="498.16" y1="223.09" x2="432.61" y2="152.61"/><line class="cls-7" x1="500.95" y1="223.09" x2="433.78" y2="152.61"/><line class="cls-7" x1="503.75" y1="223.09" x2="434.96" y2="152.61"/><line class="cls-7" x1="506.54" y1="223.09" x2="436.13" y2="152.61"/><line class="cls-7" x1="509.33" y1="223.09" x2="437.31" y2="152.61"/><line class="cls-7" x1="512.13" y1="223.09" x2="438.49" y2="152.61"/><line class="cls-7" x1="514.92" y1="223.09" x2="439.66" y2="152.61"/><line class="cls-7" x1="517.72" y1="223.09" x2="440.84" y2="152.61"/><line class="cls-7" x1="520.51" y1="223.09" x2="442.01" y2="152.61"/><line class="cls-7" x1="523.31" y1="223.09" x2="443.19" y2="152.61"/><line class="cls-7" x1="526.1" y1="223.09" x2="444.36" y2="152.61"/></g><polygon class="cls-8" points="57.55 0 71.98 67.33 86.41 0 100.84 67.33 115.04 0 57.55 0"/><polygon class="cls-8" points="655 0 669.43 67.33 683.86 0 698.29 67.33 712.5 0 655 0"/><polygon class="cls-5" points="451.71 152.61 363.29 152.61 378.14 0 436.86 0 451.71 152.61"/><polygon class="cls-4" points="447.62 152.61 359.2 152.61 374.05 0 432.77 0 447.62 152.61"/><polygon class="cls-3" points="443.53 152.61 355.11 152.61 369.96 0 428.68 0 443.53 152.61"/><polygon class="cls-16" points="439.44 152.61 351.02 152.61 365.87 0 424.59 0 439.44 152.61"/><polygon class="cls-1" points="435.35 152.61 346.93 152.61 361.78 0 420.5 0 435.35 152.61"/><polygon class="cls-11" points="431.26 152.61 342.83 152.61 357.68 0 416.41 0 431.26 152.61"/><polygon class="cls-10" points="427.17 152.61 338.74 152.61 353.59 0 412.32 0 427.17 152.61"/><polygon class="cls-12" points="423.07 152.61 334.65 152.61 349.5 0 408.22 0 423.07 152.61"/><polygon class="cls-18" points="418.98 152.61 330.56 152.61 345.41 0 404.13 0 418.98 152.61"/><polygon class="cls-13" points="414.89 152.61 326.47 152.61 341.32 0 400.04 0 414.89 152.61"/><polygon class="cls-2" points="410.8 152.61 322.38 152.61 337.23 0 395.95 0 410.8 152.61"/><polygon class="cls-15" points="406.71 152.61 318.29 152.61 333.14 0 391.86 0 406.71 152.61"/><path class="cls-5" d="M363.48,138.11c-8.01,0-14.5,6.49-14.5,14.5h29c0-8.01-6.49-14.5-14.5-14.5Z"/><path class="cls-5" d="M406.52,138.11c-8.01,0-14.5,6.49-14.5,14.5h29c0-8.01-6.49-14.5-14.5-14.5Z"/><path class="cls-6" d="M283.82,17.89c-10.29-10.29-24.51-16.66-40.22-16.66s-29.93,6.37-40.22,16.66"/><path class="cls-6" d="M566.62,17.89c-10.29-10.29-24.51-16.66-40.22-16.66s-29.93,6.37-40.22,16.66"/><polygon class="cls-17" points="198.34 106.33 231.29 104.01 198.27 104.78 230.85 99.37 198.05 103.27 229.97 94.77 197.7 101.8 228.65 90.28 197.2 100.36 226.91 85.94 196.57 98.98 224.77 81.79 195.8 97.66 222.24 77.86 194.91 96.41 219.35 74.2 193.91 95.25 216.14 70.83 192.8 94.19 212.62 67.78 191.59 93.24 208.82 65.07 190.31 92.42 204.78 62.73 188.95 91.72 200.53 60.79 187.55 91.15 196.11 59.26 186.09 90.73 191.56 58.16 184.6 90.44 186.94 57.5 183.07 90.3 182.29 57.28 181.52 90.3 177.65 57.5 179.99 90.44 173.03 58.16 178.49 90.73 168.48 59.26 177.04 91.15 164.05 60.79 175.63 91.72 159.8 62.73 174.28 92.42 155.76 65.07 172.99 93.25 151.96 67.78 171.79 94.19 148.44 70.83 170.68 95.26 145.23 74.2 169.67 96.42 142.34 77.87 168.78 97.66 139.82 81.79 168.02 98.98 137.67 85.94 167.38 100.36 135.93 90.28 166.89 101.8 134.62 94.77 166.53 103.27 133.74 99.37 166.32 104.78 133.3 104.01 166.24 106.33 133.3 108.65 166.32 107.87 133.74 113.29 166.53 109.38 134.62 117.88 166.89 110.86 135.93 122.37 167.38 112.29 137.67 126.72 168.02 113.67 139.82 130.87 168.78 114.99 142.35 134.79 169.67 116.24 145.23 138.46 170.68 117.4 148.45 141.83 171.79 118.46 151.97 144.88 172.99 119.41 155.76 147.59 174.28 120.24 159.8 149.92 175.63 120.94 164.06 151.87 177.04 121.5 168.48 153.4 178.49 121.93 173.02 154.5 179.99 122.21 177.65 155.16 181.52 122.36 182.29 155.38 183.07 122.36 186.94 155.16 184.6 122.21 191.56 154.5 186.09 121.93 196.11 153.4 187.55 121.5 200.53 151.87 188.95 120.94 204.79 149.92 190.31 120.24 208.83 147.58 191.59 119.41 212.62 144.87 192.8 118.46 216.14 141.82 193.91 117.4 219.36 138.45 194.92 116.24 222.24 134.79 195.81 114.99 224.77 130.87 196.57 113.67 226.91 126.71 197.2 112.29 228.65 122.37 197.7 110.86 229.97 117.88 198.05 109.38 230.85 113.29 198.27 107.87 231.29 108.65 198.34 106.33"/><polygon class="cls-17" points="603.76 106.33 636.7 104.01 603.68 104.78 636.26 99.37 603.47 103.27 635.38 94.77 603.11 101.8 634.07 90.28 602.62 100.36 632.33 85.94 601.98 98.98 630.18 81.79 601.22 97.66 627.65 77.86 600.33 96.41 624.77 74.2 599.32 95.25 621.55 70.83 598.21 94.19 618.03 67.78 597.01 93.24 614.24 65.07 595.72 92.42 610.2 62.73 594.37 91.72 605.94 60.79 592.96 91.15 601.52 59.26 591.51 90.73 596.98 58.16 590.01 90.44 592.35 57.5 588.48 90.3 587.71 57.28 586.93 90.3 583.06 57.5 585.4 90.44 578.44 58.16 583.91 90.73 573.89 59.26 582.45 91.15 569.47 60.79 581.05 91.72 565.21 62.73 579.69 92.42 561.17 65.07 578.41 93.25 557.38 67.78 577.2 94.19 553.86 70.83 576.09 95.26 550.64 74.2 575.08 96.42 547.76 77.87 574.19 97.66 545.23 81.79 573.43 98.98 543.09 85.94 572.8 100.36 541.35 90.28 572.3 101.8 540.03 94.77 571.95 103.27 539.15 99.37 571.73 104.78 538.71 104.01 571.66 106.33 538.71 108.65 571.73 107.87 539.15 113.29 571.95 109.38 540.03 117.88 572.3 110.86 541.35 122.37 572.8 112.29 543.09 126.72 573.43 113.67 545.23 130.87 574.2 114.99 547.76 134.79 575.09 116.24 550.65 138.46 576.09 117.4 553.86 141.83 577.2 118.46 557.38 144.88 578.41 119.41 561.18 147.59 579.69 120.24 565.22 149.92 581.05 120.94 569.47 151.87 582.45 121.5 573.89 153.4 583.91 121.93 578.44 154.5 585.4 122.21 583.06 155.16 586.93 122.36 587.71 155.38 588.48 122.36 592.35 155.16 590.01 122.21 596.97 154.5 591.51 121.93 601.52 153.4 592.96 121.5 605.95 151.87 594.37 120.94 610.2 149.92 595.72 120.24 614.24 147.58 597.01 119.41 618.04 144.87 598.21 118.46 621.56 141.82 599.32 117.4 624.77 138.45 600.33 116.24 627.66 134.79 601.22 114.99 630.18 130.87 601.98 113.67 632.33 126.71 602.62 112.29 634.07 122.37 603.11 110.86 635.38 117.88 603.47 109.38 636.26 113.29 603.68 107.87 636.7 108.65 603.76 106.33"/></svg>