<?xml version="1.0" encoding="UTF-8"?><svg id="Layer_2" xmlns="http://www.w3.org/2000/svg" xmlns:xlink="http://www.w3.org/1999/xlink" viewBox="0 0 770 192"><defs><style>.cls-1{fill:none;stroke:#fcca0c;stroke-width:3px;}.cls-1,.cls-2{stroke-miterlimit:10;}.cls-2{fill:#fcca0c;stroke:#007d70;stroke-width:10px;}.cls-3{fill:#1f3a75;}.cls-4{clip-path:url(#clippath);}</style><clipPath id="clippath"><path class="cls-3" d="M608.21,147.13c-53.4-63.72-133.57-104.23-223.21-104.23s-169.81,40.51-223.21,104.23h446.41Z"/></clipPath></defs><path class="cls-3" d="M608.21,147.13c-53.4-63.72-133.57-104.23-223.21-104.23s-169.81,40.51-223.21,104.23h446.41Z"/><g class="cls-4"><line class="cls-2" x1="177.95" y1="-18.62" x2="177.95" y2="163.96"/><line class="cls-2" x1="200.37" y1="-18.62" x2="200.37" y2="163.96"/><line class="cls-2" x1="222.8" y1="-18.62" x2="222.8" y2="163.96"/><line class="cls-2" x1="245.23" y1="-18.62" x2="245.23" y2="163.96"/><line class="cls-2" x1="267.65" y1="-18.62" x2="267.65" y2="163.96"/><line class="cls-2" x1="290.08" y1="-18.62" x2="290.08" y2="163.96"/><line class="cls-2" x1="312.51" y1="-18.62" x2="312.51" y2="163.96"/><line class="cls-2" x1="334.94" y1="-18.62" x2="334.94" y2="163.96"/><line class="cls-2" x1="357.36" y1="-18.62" x2="357.36" y2="163.96"/><line class="cls-2" x1="379.79" y1="-18.62" x2="379.79" y2="163.96"/><line class="cls-2" x1="402.22" y1="-18.62" x2="402.22" y2="163.96"/><line class="cls-2" x1="424.64" y1="-18.62" x2="424.64" y2="163.96"/><line class="cls-2" x1="447.07" y1="-18.62" x2="447.07" y2="163.96"/><line class="cls-2" x1="469.5" y1="-18.62" x2="469.5" y2="163.96"/><line class="cls-2" x1="491.93" y1="-18.62" x2="491.93" y2="163.96"/><line class="cls-2" x1="514.35" y1="-18.62" x2="514.35" y2="163.96"/><line class="cls-2" x1="536.78" y1="-18.62" x2="536.78" y2="163.96"/><line class="cls-2" x1="559.21" y1="-18.62" x2="559.21" y2="163.96"/><line class="cls-2" x1="581.63" y1="-18.62" x2="581.63" y2="163.96"/><line class="cls-2" x1="604.06" y1="-18.62" x2="604.06" y2="163.96"/><line class="cls-2" x1="626.49" y1="-18.62" x2="626.49" y2="163.96"/></g><rect class="cls-3" x="115" y="147.13" width="540" height="44.87"/><line class="cls-1" x1="115" y1="169.56" x2="655" y2="169.56"/></svg>