<?xml version="1.0" encoding="UTF-8"?>
<svg id="Layer_1" xmlns="http://www.w3.org/2000/svg" xmlns:xlink="http://www.w3.org/1999/xlink" version="1.1" viewBox="0 0 770 192">
  <!-- Generator: Adobe Illustrator 29.6.1, SVG Export Plug-In . SVG Version: 2.1.1 Build 9)  -->
  <defs>
    <style>
      .st0, .st1 {
        fill: none;
      }

      .st2 {
        fill: #e83c56;
      }

      .st3 {
        clip-path: url(#clippath-1);
      }

      .st1 {
        stroke: #007d70;
        stroke-miterlimit: 10;
      }

      .st4 {
        fill: #fff;
      }

      .st5 {
        fill: #007d70;
      }

      .st6 {
        clip-path: url(#clippath);
      }
    </style>
    <clipPath id="clippath">
      <path class="st0" d="M654.8,9.3V0H115.2v9.3c0,66.3,8.6,128.7,23.8,182.7h492.2c15.1-54.1,23.8-116.4,23.8-182.7h-.2Z"/>
    </clipPath>
    <clipPath id="clippath-1">
      <rect class="st0" x="115.9" width="553.2" height="192.3"/>
    </clipPath>
  </defs>
  <g id="Layer_16">
    <path class="st2" d="M654.8,9.3V0H115.2v9.3c0,66.4,8.6,128.8,23.8,183h492.2c15.1-54.1,23.8-116.5,23.8-183h-.2Z"/>
    <g class="st6">
      <g class="st3">
        <g>
          <g id="_Grid_Repeat_">
            <polyline class="st1" points="120.9 .5 100.9 5.3 120.9 10.2 100.9 15.1 120.9 20 100.9 24.9"/>
          </g>
          <g id="_Grid_Repeat_-2">
            <polyline class="st1" points="155.1 .5 135.1 5.3 155.1 10.2 135.1 15.1 155.1 20 135.1 24.9"/>
          </g>
          <g id="_Grid_Repeat_-3">
            <polyline class="st1" points="189.3 .5 169.3 5.3 189.3 10.2 169.3 15.1 189.3 20 169.3 24.9"/>
          </g>
          <g id="_Grid_Repeat_-4">
            <polyline class="st1" points="223.5 .5 203.5 5.3 223.5 10.2 203.5 15.1 223.5 20 203.5 24.9"/>
          </g>
          <g id="_Grid_Repeat_-5">
            <polyline class="st1" points="257.8 .5 237.8 5.3 257.8 10.2 237.8 15.1 257.8 20 237.8 24.9"/>
          </g>
          <g id="_Grid_Repeat_-6">
            <polyline class="st1" points="292 .5 272 5.3 292 10.2 272 15.1 292 20 272 24.9"/>
          </g>
          <g id="_Grid_Repeat_-7">
            <polyline class="st1" points="326.2 .5 306.2 5.3 326.2 10.2 306.2 15.1 326.2 20 306.2 24.9"/>
          </g>
          <g id="_Grid_Repeat_-8">
            <polyline class="st1" points="360.4 .5 340.4 5.3 360.4 10.2 340.4 15.1 360.4 20 340.4 24.9"/>
          </g>
          <g id="_Grid_Repeat_-9">
            <polyline class="st1" points="394.6 .5 374.6 5.3 394.6 10.2 374.6 15.1 394.6 20 374.6 24.9"/>
          </g>
          <g id="_Grid_Repeat_-10">
            <polyline class="st1" points="428.9 .5 408.9 5.3 428.9 10.2 408.9 15.1 428.9 20 408.9 24.9"/>
          </g>
          <g id="_Grid_Repeat_-11">
            <polyline class="st1" points="463.1 .5 443.1 5.3 463.1 10.2 443.1 15.1 463.1 20 443.1 24.9"/>
          </g>
          <g id="_Grid_Repeat_-12">
            <polyline class="st1" points="497.3 .5 477.3 5.3 497.3 10.2 477.3 15.1 497.3 20 477.3 24.9"/>
          </g>
          <g id="_Grid_Repeat_-13">
            <polyline class="st1" points="531.5 .5 511.5 5.3 531.5 10.2 511.5 15.1 531.5 20 511.5 24.9"/>
          </g>
          <g id="_Grid_Repeat_-14">
            <polyline class="st1" points="565.7 .5 545.7 5.3 565.7 10.2 545.7 15.1 565.7 20 545.7 24.9"/>
          </g>
          <g id="_Grid_Repeat_-15">
            <polyline class="st1" points="600 .5 580 5.3 600 10.2 580 15.1 600 20 580 24.9"/>
          </g>
          <g id="_Grid_Repeat_-16">
            <polyline class="st1" points="634.2 .5 614.2 5.3 634.2 10.2 614.2 15.1 634.2 20 614.2 24.9"/>
          </g>
          <g id="_Grid_Repeat_-17">
            <polyline class="st1" points="668.4 .5 648.4 5.3 668.4 10.2 648.4 15.1 668.4 20 648.4 24.9"/>
          </g>
          <g id="_Grid_Repeat_-18">
            <polyline class="st1" points="138 35.8 118 40.7 138 45.6 118 50.4 138 55.3 118 60.2"/>
          </g>
          <g id="_Grid_Repeat_-19">
            <polyline class="st1" points="172.2 35.8 152.2 40.7 172.2 45.6 152.2 50.4 172.2 55.3 152.2 60.2"/>
          </g>
          <g id="_Grid_Repeat_-20">
            <polyline class="st1" points="206.4 35.8 186.4 40.7 206.4 45.6 186.4 50.4 206.4 55.3 186.4 60.2"/>
          </g>
          <g id="_Grid_Repeat_-21">
            <polyline class="st1" points="240.6 35.8 220.6 40.7 240.6 45.6 220.6 50.4 240.6 55.3 220.6 60.2"/>
          </g>
          <g id="_Grid_Repeat_-22">
            <polyline class="st1" points="274.9 35.8 254.9 40.7 274.9 45.6 254.9 50.4 274.9 55.3 254.9 60.2"/>
          </g>
          <g id="_Grid_Repeat_-23">
            <polyline class="st1" points="309.1 35.8 289.1 40.7 309.1 45.6 289.1 50.4 309.1 55.3 289.1 60.2"/>
          </g>
          <g id="_Grid_Repeat_-24">
            <polyline class="st1" points="343.3 35.8 323.3 40.7 343.3 45.6 323.3 50.4 343.3 55.3 323.3 60.2"/>
          </g>
          <g id="_Grid_Repeat_-25">
            <polyline class="st1" points="377.5 35.8 357.5 40.7 377.5 45.6 357.5 50.4 377.5 55.3 357.5 60.2"/>
          </g>
          <g id="_Grid_Repeat_-26">
            <polyline class="st1" points="411.8 35.8 391.8 40.7 411.8 45.6 391.8 50.4 411.8 55.3 391.8 60.2"/>
          </g>
          <g id="_Grid_Repeat_-27">
            <polyline class="st1" points="446 35.8 426 40.7 446 45.6 426 50.4 446 55.3 426 60.2"/>
          </g>
          <g id="_Grid_Repeat_-28">
            <polyline class="st1" points="480.2 35.8 460.2 40.7 480.2 45.6 460.2 50.4 480.2 55.3 460.2 60.2"/>
          </g>
          <g id="_Grid_Repeat_-29">
            <polyline class="st1" points="514.4 35.8 494.4 40.7 514.4 45.6 494.4 50.4 514.4 55.3 494.4 60.2"/>
          </g>
          <g id="_Grid_Repeat_-30">
            <polyline class="st1" points="548.6 35.8 528.6 40.7 548.6 45.6 528.6 50.4 548.6 55.3 528.6 60.2"/>
          </g>
          <g id="_Grid_Repeat_-31">
            <polyline class="st1" points="582.8 35.8 562.8 40.7 582.8 45.6 562.8 50.4 582.8 55.3 562.8 60.2"/>
          </g>
          <g id="_Grid_Repeat_-32">
            <polyline class="st1" points="617.1 35.8 597.1 40.7 617.1 45.6 597.1 50.4 617.1 55.3 597.1 60.2"/>
          </g>
          <g id="_Grid_Repeat_-33">
            <polyline class="st1" points="651.3 35.8 631.3 40.7 651.3 45.6 631.3 50.4 651.3 55.3 631.3 60.2"/>
          </g>
          <g id="_Grid_Repeat_-34">
            <polyline class="st1" points="685.5 35.8 665.5 40.7 685.5 45.6 665.5 50.4 685.5 55.3 665.5 60.2"/>
          </g>
          <g id="_Grid_Repeat_-35">
            <polyline class="st1" points="120.9 71.1 100.9 76 120.9 80.9 100.9 85.8 120.9 90.6 100.9 95.5"/>
          </g>
          <g id="_Grid_Repeat_-36">
            <polyline class="st1" points="155.1 71.1 135.1 76 155.1 80.9 135.1 85.8 155.1 90.6 135.1 95.5"/>
          </g>
          <g id="_Grid_Repeat_-37">
            <polyline class="st1" points="189.3 71.1 169.3 76 189.3 80.9 169.3 85.8 189.3 90.6 169.3 95.5"/>
          </g>
          <g id="_Grid_Repeat_-38">
            <polyline class="st1" points="223.5 71.1 203.5 76 223.5 80.9 203.5 85.8 223.5 90.6 203.5 95.5"/>
          </g>
          <g id="_Grid_Repeat_-39">
            <polyline class="st1" points="257.8 71.1 237.8 76 257.8 80.9 237.8 85.8 257.8 90.6 237.8 95.5"/>
          </g>
          <g id="_Grid_Repeat_-40">
            <polyline class="st1" points="292 71.1 272 76 292 80.9 272 85.8 292 90.6 272 95.5"/>
          </g>
          <g id="_Grid_Repeat_-41">
            <polyline class="st1" points="326.2 71.1 306.2 76 326.2 80.9 306.2 85.8 326.2 90.6 306.2 95.5"/>
          </g>
          <g id="_Grid_Repeat_-42">
            <polyline class="st1" points="360.4 71.1 340.4 76 360.4 80.9 340.4 85.8 360.4 90.6 340.4 95.5"/>
          </g>
          <g id="_Grid_Repeat_-43">
            <polyline class="st1" points="394.6 71.1 374.6 76 394.6 80.9 374.6 85.8 394.6 90.6 374.6 95.5"/>
          </g>
          <g id="_Grid_Repeat_-44">
            <polyline class="st1" points="428.9 71.1 408.9 76 428.9 80.9 408.9 85.8 428.9 90.6 408.9 95.5"/>
          </g>
          <g id="_Grid_Repeat_-45">
            <polyline class="st1" points="463.1 71.1 443.1 76 463.1 80.9 443.1 85.8 463.1 90.6 443.1 95.5"/>
          </g>
          <g id="_Grid_Repeat_-46">
            <polyline class="st1" points="497.3 71.1 477.3 76 497.3 80.9 477.3 85.8 497.3 90.6 477.3 95.5"/>
          </g>
          <g id="_Grid_Repeat_-47">
            <polyline class="st1" points="531.5 71.1 511.5 76 531.5 80.9 511.5 85.8 531.5 90.6 511.5 95.5"/>
          </g>
          <g id="_Grid_Repeat_-48">
            <polyline class="st1" points="565.7 71.1 545.7 76 565.7 80.9 545.7 85.8 565.7 90.6 545.7 95.5"/>
          </g>
          <g id="_Grid_Repeat_-49">
            <polyline class="st1" points="600 71.1 580 76 600 80.9 580 85.8 600 90.6 580 95.5"/>
          </g>
          <g id="_Grid_Repeat_-50">
            <polyline class="st1" points="634.2 71.1 614.2 76 634.2 80.9 614.2 85.8 634.2 90.6 614.2 95.5"/>
          </g>
          <g id="_Grid_Repeat_-51">
            <polyline class="st1" points="668.4 71.1 648.4 76 668.4 80.9 648.4 85.8 668.4 90.6 648.4 95.5"/>
          </g>
          <g id="_Grid_Repeat_-52">
            <polyline class="st1" points="138 106.5 118 111.4 138 116.2 118 121.1 138 126 118 130.9"/>
          </g>
          <g id="_Grid_Repeat_-53">
            <polyline class="st1" points="172.2 106.5 152.2 111.4 172.2 116.2 152.2 121.1 172.2 126 152.2 130.9"/>
          </g>
          <g id="_Grid_Repeat_-54">
            <polyline class="st1" points="206.4 106.5 186.4 111.4 206.4 116.2 186.4 121.1 206.4 126 186.4 130.9"/>
          </g>
          <g id="_Grid_Repeat_-55">
            <polyline class="st1" points="240.6 106.5 220.6 111.4 240.6 116.2 220.6 121.1 240.6 126 220.6 130.9"/>
          </g>
          <g id="_Grid_Repeat_-56">
            <polyline class="st1" points="274.9 106.5 254.9 111.4 274.9 116.2 254.9 121.1 274.9 126 254.9 130.9"/>
          </g>
          <g id="_Grid_Repeat_-57">
            <polyline class="st1" points="309.1 106.5 289.1 111.4 309.1 116.2 289.1 121.1 309.1 126 289.1 130.9"/>
          </g>
          <g id="_Grid_Repeat_-58">
            <polyline class="st1" points="343.3 106.5 323.3 111.4 343.3 116.2 323.3 121.1 343.3 126 323.3 130.9"/>
          </g>
          <g id="_Grid_Repeat_-59">
            <polyline class="st1" points="377.5 106.5 357.5 111.4 377.5 116.2 357.5 121.1 377.5 126 357.5 130.9"/>
          </g>
          <g id="_Grid_Repeat_-60">
            <polyline class="st1" points="411.8 106.5 391.8 111.4 411.8 116.2 391.8 121.1 411.8 126 391.8 130.9"/>
          </g>
          <g id="_Grid_Repeat_-61">
            <polyline class="st1" points="446 106.5 426 111.4 446 116.2 426 121.1 446 126 426 130.9"/>
          </g>
          <g id="_Grid_Repeat_-62">
            <polyline class="st1" points="480.2 106.5 460.2 111.4 480.2 116.2 460.2 121.1 480.2 126 460.2 130.9"/>
          </g>
          <g id="_Grid_Repeat_-63">
            <polyline class="st1" points="514.4 106.5 494.4 111.4 514.4 116.2 494.4 121.1 514.4 126 494.4 130.9"/>
          </g>
          <g id="_Grid_Repeat_-64">
            <polyline class="st1" points="548.6 106.5 528.6 111.4 548.6 116.2 528.6 121.1 548.6 126 528.6 130.9"/>
          </g>
          <g id="_Grid_Repeat_-65">
            <polyline class="st1" points="582.8 106.5 562.8 111.4 582.8 116.2 562.8 121.1 582.8 126 562.8 130.9"/>
          </g>
          <g id="_Grid_Repeat_-66">
            <polyline class="st1" points="617.1 106.5 597.1 111.4 617.1 116.2 597.1 121.1 617.1 126 597.1 130.9"/>
          </g>
          <g id="_Grid_Repeat_-67">
            <polyline class="st1" points="651.3 106.5 631.3 111.4 651.3 116.2 631.3 121.1 651.3 126 631.3 130.9"/>
          </g>
          <g id="_Grid_Repeat_-68">
            <polyline class="st1" points="685.5 106.5 665.5 111.4 685.5 116.2 665.5 121.1 685.5 126 665.5 130.9"/>
          </g>
          <g id="_Grid_Repeat_-69">
            <polyline class="st1" points="120.9 141.8 100.9 146.7 120.9 151.5 100.9 156.4 120.9 161.3 100.9 166.2"/>
          </g>
          <g id="_Grid_Repeat_-70">
            <polyline class="st1" points="155.1 141.8 135.1 146.7 155.1 151.5 135.1 156.4 155.1 161.3 135.1 166.2"/>
          </g>
          <g id="_Grid_Repeat_-71">
            <polyline class="st1" points="189.3 141.8 169.3 146.7 189.3 151.5 169.3 156.4 189.3 161.3 169.3 166.2"/>
          </g>
          <g id="_Grid_Repeat_-72">
            <polyline class="st1" points="223.5 141.8 203.5 146.7 223.5 151.5 203.5 156.4 223.5 161.3 203.5 166.2"/>
          </g>
          <g id="_Grid_Repeat_-73">
            <polyline class="st1" points="257.8 141.8 237.8 146.7 257.8 151.5 237.8 156.4 257.8 161.3 237.8 166.2"/>
          </g>
          <g id="_Grid_Repeat_-74">
            <polyline class="st1" points="292 141.8 272 146.7 292 151.5 272 156.4 292 161.3 272 166.2"/>
          </g>
          <g id="_Grid_Repeat_-75">
            <polyline class="st1" points="326.2 141.8 306.2 146.7 326.2 151.5 306.2 156.4 326.2 161.3 306.2 166.2"/>
          </g>
          <g id="_Grid_Repeat_-76">
            <polyline class="st1" points="360.4 141.8 340.4 146.7 360.4 151.5 340.4 156.4 360.4 161.3 340.4 166.2"/>
          </g>
          <g id="_Grid_Repeat_-77">
            <polyline class="st1" points="394.6 141.8 374.6 146.7 394.6 151.5 374.6 156.4 394.6 161.3 374.6 166.2"/>
          </g>
          <g id="_Grid_Repeat_-78">
            <polyline class="st1" points="428.9 141.8 408.9 146.7 428.9 151.5 408.9 156.4 428.9 161.3 408.9 166.2"/>
          </g>
          <g id="_Grid_Repeat_-79">
            <polyline class="st1" points="463.1 141.8 443.1 146.7 463.1 151.5 443.1 156.4 463.1 161.3 443.1 166.2"/>
          </g>
          <g id="_Grid_Repeat_-80">
            <polyline class="st1" points="497.3 141.8 477.3 146.7 497.3 151.5 477.3 156.4 497.3 161.3 477.3 166.2"/>
          </g>
          <g id="_Grid_Repeat_-81">
            <polyline class="st1" points="531.5 141.8 511.5 146.7 531.5 151.5 511.5 156.4 531.5 161.3 511.5 166.2"/>
          </g>
          <g id="_Grid_Repeat_-82">
            <polyline class="st1" points="565.7 141.8 545.7 146.7 565.7 151.5 545.7 156.4 565.7 161.3 545.7 166.2"/>
          </g>
          <g id="_Grid_Repeat_-83">
            <polyline class="st1" points="600 141.8 580 146.7 600 151.5 580 156.4 600 161.3 580 166.2"/>
          </g>
          <g id="_Grid_Repeat_-84">
            <polyline class="st1" points="634.2 141.8 614.2 146.7 634.2 151.5 614.2 156.4 634.2 161.3 614.2 166.2"/>
          </g>
          <g id="_Grid_Repeat_-85">
            <polyline class="st1" points="668.4 141.8 648.4 146.7 668.4 151.5 648.4 156.4 668.4 161.3 648.4 166.2"/>
          </g>
          <g id="_Grid_Repeat_-86">
            <polyline class="st1" points="138 177.1 118 182 138 186.9 118 191.8 138 196.6 118 201.5"/>
          </g>
          <g id="_Grid_Repeat_-87">
            <polyline class="st1" points="172.2 177.1 152.2 182 172.2 186.9 152.2 191.8 172.2 196.6 152.2 201.5"/>
          </g>
          <g id="_Grid_Repeat_-88">
            <polyline class="st1" points="206.4 177.1 186.4 182 206.4 186.9 186.4 191.8 206.4 196.6 186.4 201.5"/>
          </g>
          <g id="_Grid_Repeat_-89">
            <polyline class="st1" points="240.6 177.1 220.6 182 240.6 186.9 220.6 191.8 240.6 196.6 220.6 201.5"/>
          </g>
          <g id="_Grid_Repeat_-90">
            <polyline class="st1" points="274.9 177.1 254.9 182 274.9 186.9 254.9 191.8 274.9 196.6 254.9 201.5"/>
          </g>
          <g id="_Grid_Repeat_-91">
            <polyline class="st1" points="309.1 177.1 289.1 182 309.1 186.9 289.1 191.8 309.1 196.6 289.1 201.5"/>
          </g>
          <g id="_Grid_Repeat_-92">
            <polyline class="st1" points="343.3 177.1 323.3 182 343.3 186.9 323.3 191.8 343.3 196.6 323.3 201.5"/>
          </g>
          <g id="_Grid_Repeat_-93">
            <polyline class="st1" points="377.5 177.1 357.5 182 377.5 186.9 357.5 191.8 377.5 196.6 357.5 201.5"/>
          </g>
          <g id="_Grid_Repeat_-94">
            <polyline class="st1" points="411.8 177.1 391.8 182 411.8 186.9 391.8 191.8 411.8 196.6 391.8 201.5"/>
          </g>
          <g id="_Grid_Repeat_-95">
            <polyline class="st1" points="446 177.1 426 182 446 186.9 426 191.8 446 196.6 426 201.5"/>
          </g>
          <g id="_Grid_Repeat_-96">
            <polyline class="st1" points="480.2 177.1 460.2 182 480.2 186.9 460.2 191.8 480.2 196.6 460.2 201.5"/>
          </g>
          <g id="_Grid_Repeat_-97">
            <polyline class="st1" points="514.4 177.1 494.4 182 514.4 186.9 494.4 191.8 514.4 196.6 494.4 201.5"/>
          </g>
          <g id="_Grid_Repeat_-98">
            <polyline class="st1" points="548.6 177.1 528.6 182 548.6 186.9 528.6 191.8 548.6 196.6 528.6 201.5"/>
          </g>
          <g id="_Grid_Repeat_-99">
            <polyline class="st1" points="582.8 177.1 562.8 182 582.8 186.9 562.8 191.8 582.8 196.6 562.8 201.5"/>
          </g>
          <g id="_Grid_Repeat_-100">
            <polyline class="st1" points="617.1 177.1 597.1 182 617.1 186.9 597.1 191.8 617.1 196.6 597.1 201.5"/>
          </g>
          <g id="_Grid_Repeat_-101">
            <polyline class="st1" points="651.3 177.1 631.3 182 651.3 186.9 631.3 191.8 651.3 196.6 631.3 201.5"/>
          </g>
          <g id="_Grid_Repeat_-102">
            <polyline class="st1" points="685.5 177.1 665.5 182 685.5 186.9 665.5 191.8 685.5 196.6 665.5 201.5"/>
          </g>
        </g>
      </g>
    </g>
    <rect class="st2" x="279.6" y="5.2" width="214.2" height="112.3"/>
    <path class="st4" d="M229.2,0c.4,1.3.9,2.6,1.5,4,6.8,17.9,16.4,26.9,20.5,28,2.8,1,8.5,2.5,14.5-6.4,5.2,11.8,11,15.8,13.8,16.5,2.9.8,8.8,1.3,14.9-10.4,5.2,13.9,11.1,17.6,14,18.1,2.9.6,8.9.1,15-13.7,5.3,15.3,11.3,18.6,14.2,18.9,2.9.4,9-.9,15-16.2,5.5,16.1,11.6,18.8,14.5,18.9,2.9.2,9-1.8,14.8-17.9,5.8,16.1,11.9,18.3,14.8,18.2,2.9,0,9-2.7,14.6-18.8,6,15.5,12,16.9,15,16.6,2.9-.3,8.9-3.5,14.3-19,6.1,14.2,12.1,14.8,15,14.3s8.8-4.1,14-18.4c6.1,12.2,12.1,12,14.9,11.2,2.9-.7,8.6-4.7,13.8-16.9,6,9.5,11.8,8.3,14.6,7.3,2.8-1,8.4-5.1,13.8-14.8,5.7,6.2,11.2,3.8,14,2.6V0H229.2Z"/>
    <path class="st4" d="M225,88.8c1.6-.8,3.2-1.7,4.8-2.5,21.4-10.9,34.4-12.5,38.3-11,2.9.9,7.7,3,6.8,15.2,11.8-8.4,18.2-9.6,20.9-9,2.7.6,7.1,2.8,6.5,17.4,11.2-12.1,17-13.9,19.6-13.5s6.7,2.7,7.4,19.2c9.7-14.9,15-17.2,17.5-17s6.6,2.7,9.2,20.3c7.7-16.8,12.4-19.4,14.9-19.3,2.5,0,6.7,2.6,11.6,20.5,5.4-17.8,9.7-20.4,12.1-20.4s7.1,2.5,14.3,19.6c3-17.8,7.1-20.3,9.6-20.5s7.6,2.2,16.9,17.6c1.1-16.8,5.1-19.2,7.7-19.5,2.5-.4,8.3,1.6,19.2,14.3-.4-15.1,4-17.3,6.6-17.8,2.6-.6,9,.7,20.7,10-1-12.7,3.8-14.8,6.6-15.7,2.8-.8,9.6-.4,21.2,4.7-.6-9.9,4.8-12.1,7.8-13.3,6.7,6.9,13.3,13.7,20,20.6-89.3,86.5-231.1,86.5-320.4,0h0l.2.1Z"/>
    <polygon class="st0" points="385 30 379.4 29 253.3 5.4 385 147.6 516.7 5.4 390.6 29 385 30"/>
    <path class="st5" d="M177.8,0c28.4,104.2,90.7,175,206.2,193.5l1-1.1,1,1.1c115.5-18.5,177.8-89.3,206.2-193.5H177.8ZM385,147.6L253.3,5.4l126.1,23.6,5.6,1,5.6-1,126-23.6-131.7,142.2h.1Z"/>
  </g>
</svg>