<?xml version="1.0" encoding="UTF-8"?>
<svg id="Layer_17" xmlns="http://www.w3.org/2000/svg" xmlns:xlink="http://www.w3.org/1999/xlink" version="1.1" viewBox="0 0 770 192">
  <!-- Generator: Adobe Illustrator 29.6.1, SVG Export Plug-In . SVG Version: 2.1.1 Build 9)  -->
  <defs>
    <style>
      .st0, .st1, .st2 {
        fill: none;
      }

      .st3 {
        fill: #e83c56;
      }

      .st4 {
        fill: #fcca0c;
      }

      .st1 {
        stroke: #e83c56;
        stroke-width: 30px;
      }

      .st1, .st2 {
        stroke-miterlimit: 10;
      }

      .st5 {
        clip-path: url(#clippath-1);
      }

      .st6 {
        clip-path: url(#clippath-2);
      }

      .st2 {
        stroke: #eeabcb;
        stroke-width: 10px;
      }

      .st7 {
        fill: #fff;
      }

      .st8 {
        fill: #fffbee;
      }

      .st9 {
        fill: #007d70;
      }

      .st10 {
        clip-path: url(#clippath);
      }
    </style>
    <clipPath id="clippath">
      <rect class="st4" x="214.46" y="85.05" width="341.09" height="106.95"/>
    </clipPath>
    <clipPath id="clippath-1">
      <rect class="st0" x="218.88" y="85.05" width="332.24" height="107.06"/>
    </clipPath>
    <clipPath id="clippath-2">
      <rect class="st0" x="116.74" y=".98" width="538.58" height="83.78"/>
    </clipPath>
  </defs>
  <g>
    <g>
      <rect class="st4" x="214.46" y="85.05" width="341.09" height="106.95"/>
      <g class="st10">
        <g class="st5">
          <g>
            <g id="_x3C_Grid_Repeat_x3E_">
              <line class="st2" x1="224.88" y1="85.05" x2="224.88" y2="192"/>
            </g>
            <g id="_x3C_Grid_Repeat_x3E_1" data-name="_x3C_Grid_Repeat_x3E_">
              <line class="st2" x1="244.88" y1="85.05" x2="244.88" y2="192"/>
            </g>
            <g id="_x3C_Grid_Repeat_x3E_2" data-name="_x3C_Grid_Repeat_x3E_">
              <line class="st2" x1="264.88" y1="85.05" x2="264.88" y2="192"/>
            </g>
            <g id="_x3C_Grid_Repeat_x3E_3" data-name="_x3C_Grid_Repeat_x3E_">
              <line class="st2" x1="284.88" y1="85.05" x2="284.88" y2="192"/>
            </g>
            <g id="_x3C_Grid_Repeat_x3E_4" data-name="_x3C_Grid_Repeat_x3E_">
              <line class="st2" x1="304.88" y1="85.05" x2="304.88" y2="192"/>
            </g>
            <g id="_x3C_Grid_Repeat_x3E_5" data-name="_x3C_Grid_Repeat_x3E_">
              <line class="st2" x1="324.88" y1="85.05" x2="324.88" y2="192"/>
            </g>
            <g id="_x3C_Grid_Repeat_x3E_6" data-name="_x3C_Grid_Repeat_x3E_">
              <line class="st2" x1="344.88" y1="85.05" x2="344.88" y2="192"/>
            </g>
            <g id="_x3C_Grid_Repeat_x3E_7" data-name="_x3C_Grid_Repeat_x3E_">
              <line class="st2" x1="364.88" y1="85.05" x2="364.88" y2="192"/>
            </g>
            <g id="_x3C_Grid_Repeat_x3E_8" data-name="_x3C_Grid_Repeat_x3E_">
              <line class="st2" x1="384.88" y1="85.05" x2="384.88" y2="192"/>
            </g>
            <g id="_x3C_Grid_Repeat_x3E_9" data-name="_x3C_Grid_Repeat_x3E_">
              <line class="st2" x1="404.88" y1="85.05" x2="404.88" y2="192"/>
            </g>
            <g id="_x3C_Grid_Repeat_x3E_10" data-name="_x3C_Grid_Repeat_x3E_">
              <line class="st2" x1="424.88" y1="85.05" x2="424.88" y2="192"/>
            </g>
            <g id="_x3C_Grid_Repeat_x3E_11" data-name="_x3C_Grid_Repeat_x3E_">
              <line class="st2" x1="444.88" y1="85.05" x2="444.88" y2="192"/>
            </g>
            <g id="_x3C_Grid_Repeat_x3E_12" data-name="_x3C_Grid_Repeat_x3E_">
              <line class="st2" x1="464.88" y1="85.05" x2="464.88" y2="192"/>
            </g>
            <g id="_x3C_Grid_Repeat_x3E_13" data-name="_x3C_Grid_Repeat_x3E_">
              <line class="st2" x1="484.88" y1="85.05" x2="484.88" y2="192"/>
            </g>
            <g id="_x3C_Grid_Repeat_x3E_14" data-name="_x3C_Grid_Repeat_x3E_">
              <line class="st2" x1="504.88" y1="85.05" x2="504.88" y2="192"/>
            </g>
            <g id="_x3C_Grid_Repeat_x3E_15" data-name="_x3C_Grid_Repeat_x3E_">
              <line class="st2" x1="524.88" y1="85.05" x2="524.88" y2="192"/>
            </g>
            <g id="_x3C_Grid_Repeat_x3E_16" data-name="_x3C_Grid_Repeat_x3E_">
              <line class="st2" x1="544.88" y1="85.05" x2="544.88" y2="192"/>
            </g>
          </g>
        </g>
      </g>
    </g>
    <line class="st1" x1="346.74" y1="114.37" x2="423.26" y2="114.37"/>
    <line class="st1" x1="346.74" y1="163.26" x2="423.25" y2="163.26"/>
  </g>
  <rect class="st8" x="114.68" width="540.04" height="85.3"/>
  <g class="st6">
    <g>
      <g id="_Grid_Repeat_">
        <rect class="st3" x="51.18" y="15.71" width="54.31" height="54.31" transform="translate(-7.36 67.95) rotate(-45)"/>
        <rect class="st7" x="62.15" y="26.68" width="32.37" height="32.37"/>
        <rect class="st9" x="70.64" y="35.17" width="15.4" height="15.4" transform="translate(-7.37 67.95) rotate(-45)"/>
      </g>
      <g id="_Grid_Repeat_-2">
        <rect class="st3" x="127.99" y="15.71" width="54.31" height="54.31" transform="translate(15.13 122.26) rotate(-45)"/>
        <rect class="st7" x="138.96" y="26.68" width="32.37" height="32.37"/>
        <rect class="st9" x="147.44" y="35.16" width="15.4" height="15.4" transform="translate(15.14 122.26) rotate(-45)"/>
      </g>
      <g id="_Grid_Repeat_-3">
        <rect class="st3" x="204.8" y="15.71" width="54.31" height="54.31" transform="translate(37.63 176.57) rotate(-45)"/>
        <rect class="st7" x="215.76" y="26.68" width="32.37" height="32.37"/>
        <rect class="st9" x="224.26" y="35.17" width="15.4" height="15.4" transform="translate(37.63 176.58) rotate(-45)"/>
      </g>
      <g id="_Grid_Repeat_-4">
        <rect class="st3" x="281.6" y="15.71" width="54.31" height="54.31" transform="translate(60.12 230.88) rotate(-45)"/>
        <rect class="st7" x="292.57" y="26.68" width="32.37" height="32.37"/>
        <rect class="st9" x="301.06" y="35.16" width="15.4" height="15.4" transform="translate(60.13 230.88) rotate(-45)"/>
      </g>
      <g id="_Grid_Repeat_-5">
        <rect class="st3" x="358.41" y="15.71" width="54.31" height="54.31" transform="translate(82.62 285.19) rotate(-45)"/>
        <rect class="st7" x="369.38" y="26.68" width="32.37" height="32.37"/>
        <rect class="st9" x="377.87" y="35.17" width="15.4" height="15.4" transform="translate(82.62 285.2) rotate(-45)"/>
      </g>
      <g id="_Grid_Repeat_-6">
        <rect class="st3" x="435.22" y="15.71" width="54.31" height="54.31" transform="translate(105.11 339.51) rotate(-45)"/>
        <rect class="st7" x="446.19" y="26.68" width="32.37" height="32.37"/>
        <rect class="st9" x="454.68" y="35.16" width="15.4" height="15.4" transform="translate(105.12 339.5) rotate(-45)"/>
      </g>
      <g id="_Grid_Repeat_-7">
        <rect class="st3" x="512.03" y="15.71" width="54.31" height="54.31" transform="translate(127.61 393.82) rotate(-45)"/>
        <rect class="st7" x="523" y="26.68" width="32.37" height="32.37"/>
        <rect class="st9" x="531.49" y="35.17" width="15.4" height="15.4" transform="translate(127.61 393.82) rotate(-45)"/>
      </g>
      <g id="_Grid_Repeat_-8">
        <rect class="st3" x="588.83" y="15.71" width="54.31" height="54.31" transform="translate(150.11 448.12) rotate(-45)"/>
        <rect class="st7" x="599.8" y="26.68" width="32.37" height="32.37"/>
        <rect class="st9" x="608.29" y="35.17" width="15.4" height="15.4" transform="translate(150.11 448.13) rotate(-45)"/>
      </g>
      <g id="_Grid_Repeat_-9">
        <rect class="st3" x="665.63" y="15.71" width="54.31" height="54.31" transform="translate(172.6 502.43) rotate(-45)"/>
        <rect class="st7" x="676.61" y="26.68" width="32.37" height="32.37"/>
        <rect class="st9" x="685.1" y="35.17" width="15.4" height="15.4" transform="translate(172.6 502.44) rotate(-45)"/>
      </g>
    </g>
  </g>
</svg>