<?xml version="1.0" encoding="UTF-8"?>
<svg id="Layer_1" xmlns="http://www.w3.org/2000/svg" xmlns:xlink="http://www.w3.org/1999/xlink" version="1.1" viewBox="0 0 770 192">
  <!-- Generator: Adobe Illustrator 29.6.1, SVG Export Plug-In . SVG Version: 2.1.1 Build 9)  -->
  <defs>
    <style>
      .st0, .st1, .st2 {
        fill: none;
      }

      .st3 {
        fill: #ee728a;
      }

      .st4 {
        fill: #ea546a;
      }

      .st5 {
        fill: #e83c56;
        stroke: #eeabcb;
      }

      .st5, .st1, .st2 {
        stroke-miterlimit: 10;
      }

      .st6 {
        fill: #ea4d64;
      }

      .st7 {
        fill: #ef7e98;
      }

      .st8 {
        fill: #e9435b;
      }

      .st1 {
        stroke: #007d70;
      }

      .st9 {
        fill: #fff;
      }

      .st10 {
        fill: #ef7b94;
      }

      .st11 {
        fill: #eeabcb;
      }

      .st12 {
        fill: #ef7891;
      }

      .st13 {
        fill: #ec677d;
      }

      .st14 {
        fill: #e9475e;
      }

      .st15 {
        fill: #ed6c83;
      }

      .st16 {
        fill: #ec647a;
      }

      .st17 {
        fill: #ef7c97;
      }

      .st18 {
        fill: #ea5167;
      }

      .st19 {
        fill: #ee758d;
      }

      .st20 {
        fill: #007d70;
      }

      .st21 {
        fill: #ed6a80;
      }

      .st22 {
        fill: #e84058;
      }

      .st2 {
        stroke: #1f3a75;
        stroke-width: 5px;
      }

      .st23 {
        fill: #eb5a70;
      }

      .st24 {
        fill: #eb5e73;
      }

      .st25 {
        fill: #ed6f87;
      }

      .st26 {
        fill: #e94a61;
      }

      .st27 {
        clip-path: url(#clippath);
      }

      .st28 {
        fill: #ec6177;
      }

      .st29 {
        fill: #eb576d;
      }
    </style>
    <clipPath id="clippath">
      <rect class="st0" x="115.2" width="539.7" height="192"/>
    </clipPath>
  </defs>
  <g id="Layer_15">
    <rect class="st11" x="115.5" width="539.7" height="191.9"/>
    <g class="st27">
      <g>
        <polygon class="st17" points="687.7 97.2 755.6 92.8 687.6 94.3 754.9 84.1 687.2 91.4 753.4 75.4 686.6 88.7 751.1 66.9 685.8 86 748.1 58.6 684.7 83.3 744.3 50.6 683.4 80.8 739.9 42.9 681.8 78.4 734.9 35.7 680.1 76.1 729.2 29 678.1 74 723 22.8 676 72 716.3 17.2 673.7 70.3 709.1 12.1 671.3 68.7 701.5 7.7 668.8 67.4 693.5 4 666.1 66.3 685.2 .9 663.4 65.4 676.7 -1.3 660.6 64.8 668 -2.9 657.8 64.5 659.3 -3.6 654.9 64.3 650.5 -3.6 652 64.5 641.8 -2.9 649.1 64.8 633.1 -1.3 646.3 65.4 624.5 .9 643.6 66.3 616.3 4 641 67.4 608.3 7.7 638.5 68.7 600.7 12.1 636.1 70.3 593.5 17.2 633.8 72 586.7 22.8 631.7 74 580.5 29 629.7 76.1 574.9 35.8 628 78.4 569.8 43 626.4 80.8 565.4 50.6 625.1 83.3 561.7 58.6 624 86 558.7 66.9 623.1 88.7 556.4 75.4 622.5 91.5 554.9 84.1 622.2 94.3 554.1 92.8 622 97.2 554.1 101.6 622.2 100.1 554.9 110.3 622.5 103 556.4 119 623.1 105.7 558.7 127.5 624 108.4 561.7 135.8 625.1 111.1 565.4 143.8 626.4 113.6 569.8 151.5 628 116 574.9 158.7 629.7 118.3 580.5 165.4 631.7 120.4 586.7 171.6 633.8 122.4 593.5 177.3 636.1 124.2 600.7 182.3 638.5 125.7 608.3 186.7 641 127 616.3 190.4 643.6 128.1 624.6 193.5 646.3 129 633.1 195.7 649.1 129.6 641.8 197.3 652 129.9 650.5 198 654.9 130.1 659.3 198 657.8 129.9 668 197.3 660.6 129.6 676.7 195.7 663.4 129 685.2 193.5 666.1 128.1 693.5 190.4 668.8 127 701.5 186.7 671.3 125.7 709.1 182.3 673.7 124.1 716.3 177.2 676 122.4 723 171.6 678.1 120.4 729.2 165.4 680.1 118.3 734.9 158.7 681.8 116 739.9 151.5 683.4 113.6 744.3 143.8 684.7 111.1 748.1 135.8 685.8 108.4 751.1 127.5 686.6 105.7 753.4 119 687.2 103 754.9 110.3 687.6 100.1 755.6 101.6 687.7 97.2"/>
        <polygon class="st17" points="148 97.2 215.9 92.8 147.9 94.3 215.2 84.1 147.5 91.4 213.6 75.4 146.9 88.7 211.4 66.9 146.1 86 208.3 58.6 145 83.3 204.6 50.6 143.6 80.8 200.2 42.9 142.1 78.4 195.2 35.7 140.3 76.1 189.5 29 138.4 74 183.3 22.8 136.3 72 176.6 17.2 134 70.3 169.4 12.1 131.6 68.7 161.8 7.7 129 67.4 153.8 4 126.4 66.3 145.5 .9 123.7 65.4 137 -1.3 120.9 64.8 128.3 -2.9 118.1 64.5 119.5 -3.6 115.2 64.3 110.8 -3.6 112.2 64.5 102 -2.9 109.4 64.8 93.3 -1.3 106.6 65.4 84.8 .9 103.9 66.3 76.5 4 101.3 67.4 68.6 7.7 98.8 68.7 60.9 12.1 96.3 70.3 53.7 17.2 94.1 72 47 22.8 91.9 74 40.8 29 90 76.1 35.2 35.8 88.2 78.4 30.1 43 86.7 80.8 25.7 50.6 85.4 83.3 22 58.6 84.3 86 19 66.9 83.4 88.7 16.7 75.4 82.8 91.5 15.2 84.1 82.4 94.3 14.4 92.8 82.3 97.2 14.4 101.6 82.4 100.1 15.2 110.3 82.8 103 16.7 119 83.4 105.7 19 127.5 84.3 108.4 22 135.8 85.4 111.1 25.7 143.8 86.7 113.6 30.1 151.5 88.2 116 35.2 158.7 90 118.3 40.8 165.4 91.9 120.4 47 171.6 94.1 122.4 53.8 177.3 96.3 124.2 60.9 182.3 98.8 125.7 68.6 186.7 101.3 127 76.5 190.4 103.9 128.1 84.8 193.5 106.6 129 93.4 195.7 109.4 129.6 102 197.3 112.3 129.9 110.8 198 115.2 130.1 119.5 198 118.1 129.9 128.3 197.3 120.9 129.6 137 195.7 123.7 129 145.5 193.5 126.4 128.1 153.8 190.4 129 127 161.8 186.7 131.6 125.7 169.4 182.3 134 124.1 176.6 177.2 136.3 122.4 183.3 171.6 138.4 120.4 189.5 165.4 140.3 118.3 195.2 158.7 142.1 116 200.2 151.5 143.6 113.6 204.6 143.8 145 111.1 208.4 135.8 146.1 108.4 211.4 127.5 146.9 105.7 213.6 119 147.5 103 215.2 110.3 147.9 100.1 215.9 101.6 148 97.2"/>
      </g>
    </g>
    <circle class="st5" cx="385.1" cy="95.9" r="81"/>
    <circle class="st22" cx="385.1" cy="95.9" r="77.5"/>
    <circle class="st8" cx="385.1" cy="95.9" r="74"/>
    <circle class="st14" cx="385.1" cy="95.9" r="70.5"/>
    <circle class="st26" cx="385.1" cy="95.9" r="67"/>
    <circle class="st6" cx="385.1" cy="95.9" r="63.6"/>
    <circle class="st18" cx="385.1" cy="95.9" r="60.1"/>
    <circle class="st4" cx="385.1" cy="95.9" r="56.6"/>
    <circle class="st29" cx="385.1" cy="95.9" r="53.1"/>
    <circle class="st23" cx="385.1" cy="95.9" r="49.6"/>
    <circle class="st24" cx="385.1" cy="95.9" r="46.1"/>
    <circle class="st28" cx="385.1" cy="95.9" r="42.6"/>
    <circle class="st16" cx="385.1" cy="95.9" r="39.1"/>
    <circle class="st13" cx="385.1" cy="95.9" r="35.6"/>
    <circle class="st21" cx="385.1" cy="95.9" r="32.1"/>
    <circle class="st15" cx="385.1" cy="95.9" r="28.6"/>
    <circle class="st25" cx="385.1" cy="95.9" r="25.1"/>
    <circle class="st3" cx="385.1" cy="95.9" r="21.6"/>
    <circle class="st19" cx="385.1" cy="95.9" r="18.1"/>
    <circle class="st12" cx="385.1" cy="95.9" r="14.6"/>
    <circle class="st10" cx="385.1" cy="95.9" r="11.1"/>
    <circle class="st7" cx="385.1" cy="95.9" r="7.7"/>
    <path class="st9" d="M270.2,69.1c0-19.5-35.4-58.9-35.4-58.9,0,0-35.4,39.4-35.4,58.9s15.8,35.4,35.4,35.4,35.4-15.8,35.4-35.4Z"/>
    <line class="st2" x1="319.3" y1="100.7" x2="368.2" y2="143"/>
    <line class="st2" x1="448.3" y1="100.7" x2="402" y2="143"/>
    <path class="st11" d="M55.4,71.7c22.2,26.3,60,24,60,24,0,0,1.9-45-20.2-71.3S35.2.4,35.2.4c0,0-2,45,20.2,71.3Z"/>
    <path class="st11" d="M55.4,120.5c22.2-26.3,60-24,60-24,0,0,1.9,45-20.2,71.3-22.2,26.3-60,24-60,24,0,0-2-45,20.2-71.3Z"/>
    <path class="st11" d="M715.2,71.7c-22.2,26.3-60,24-60,24,0,0-2-45,20.2-71.3S735.4.4,735.4.4c0,0,2,45-20.2,71.3Z"/>
    <path class="st11" d="M715.2,120.5c-22.2-26.3-60-24-60-24,0,0-2,45,20.2,71.3s60,24,60,24c0,0,2-45-20.2-71.3Z"/>
    <path class="st1" d="M709.2,41.3c-.5.6-8.2-5.8-8.7-5.2s7.2,7,6.8,7.5-8.2-5.8-8.7-5.2,7.2,7,6.8,7.5-8.2-5.8-8.7-5.2,7.2,7,6.8,7.5-8.2-5.8-8.7-5.2,7.2,7,6.8,7.5-8.2-5.8-8.7-5.2,7.2,7,6.8,7.5-8.2-5.8-8.7-5.2,7.2,7,6.8,7.5-8.2-5.8-8.7-5.2,7.2,7,6.8,7.5-8.2-5.8-8.7-5.2,7.2,7,6.8,7.5-8.2-5.8-8.7-5.2,7.2,7,6.8,7.5-8.2-5.8-8.7-5.2,7.2,7,6.8,7.5c-.4.5-8.2-5.8-8.7-5.2s7.2,7,6.8,7.5-8.2-5.8-8.7-5.2,7.2,7,6.8,7.5-8.2-5.8-8.7-5.2c-.5.6,7.2,7,6.8,7.5s-8.2-5.8-8.7-5.2,7.2,7,6.7,7.5-8.2-5.8-8.7-5.2,7.2,6.9,6.8,7.5-8.2-5.8-8.7-5.2,7.2,7,6.7,7.5-8.2-5.8-8.7-5.2,7.2,7,6.8,7.5-8.2-5.8-8.7-5.2,7.2,7,6.7,7.5-8.2-5.8-8.7-5.2,7.2,7,6.7,7.5-8.2-5.8-8.7-5.2,7.2,7,6.7,7.5-8.2-5.8-8.7-5.2,7.2,7,6.7,7.5"/>
    <path class="st1" d="M701.5,157.4c-.5-.6,7.2-7,6.7-7.6s-8.1,5.9-8.6,5.3,7.2-7,6.7-7.6-8.1,5.9-8.6,5.3,7.2-7,6.7-7.6-8.1,5.9-8.6,5.3,7.2-7,6.7-7.6-8.1,5.9-8.6,5.3,7.2-7,6.7-7.6-8.1,5.9-8.6,5.3,7.2-7,6.7-7.6-8.1,5.9-8.6,5.3,7.2-7,6.7-7.6-8.1,5.9-8.6,5.3,7.2-7,6.7-7.6-8.1,5.9-8.6,5.3,7.2-7,6.7-7.6-8.1,5.9-8.6,5.3,7.2-7,6.7-7.6-8.1,5.9-8.6,5.3,7.2-7,6.7-7.6-8.1,5.9-8.6,5.3,7.2-7,6.7-7.6-8.1,5.9-8.6,5.3,7.2-7,6.7-7.6-8.1,5.9-8.6,5.3,7.2-7,6.7-7.6-8.1,5.9-8.6,5.3,7.2-7,6.7-7.6-8.1,5.9-8.6,5.3,7.2-7,6.7-7.6-8.1,5.9-8.6,5.3,7.2-7,6.7-7.6-8.1,5.9-8.6,5.3,7.2-7,6.7-7.6-8.1,5.9-8.6,5.3,7.2-7,6.7-7.6-8.1,5.9-8.6,5.3,7.2-7,6.7-7.6-8.1,5.9-8.6,5.3,7.2-7,6.7-7.6-8.1,5.9-8.6,5.3"/>
    <path class="st1" d="M68.4,34.8c.5.6-7.1,7.1-6.6,7.6s8.1-5.9,8.6-5.4-7.1,7.1-6.6,7.6,8.1-5.9,8.6-5.4-7.1,7.1-6.6,7.6,8.1-5.9,8.6-5.4-7.1,7.1-6.6,7.6,8.1-5.9,8.6-5.4-7.1,7.1-6.6,7.6,8.1-5.9,8.6-5.4-7.1,7.1-6.6,7.6,8.1-5.9,8.6-5.4-7.1,7.1-6.6,7.6,8.1-5.9,8.6-5.4-7.1,7.1-6.6,7.6,8.1-5.9,8.6-5.4-7.1,7.1-6.6,7.6,8.1-5.9,8.6-5.4-7.1,7.1-6.6,7.6,8.1-5.9,8.6-5.4-7.1,7.1-6.6,7.6c.5.5,8.1-5.9,8.6-5.4s-7.1,7.1-6.6,7.6,8.1-5.9,8.6-5.4-7.1,7.1-6.6,7.6,8.1-5.9,8.6-5.4-7.1,7.1-6.6,7.6,8.1-5.9,8.6-5.4-7.1,7.1-6.6,7.6,8.1-5.9,8.6-5.4-7.1,7.1-6.6,7.6,8.1-5.9,8.6-5.4-7.1,7.1-6.6,7.6,8.1-5.9,8.6-5.4-7.1,7.1-6.6,7.6,8.1-5.9,8.6-5.4-7.1,7.1-6.6,7.6,8.1-5.9,8.6-5.4-7.1,7.1-6.6,7.6,8.1-5.9,8.6-5.4-7.1,7.1-6.6,7.6,8.1-5.9,8.6-5.4"/>
    <path class="st1" d="M60.8,150.9c.5-.6,8.1,5.9,8.6,5.3s-7.2-7-6.7-7.6,8.1,5.9,8.6,5.3-7.2-7-6.7-7.6,8.1,5.9,8.6,5.3-7.2-7-6.7-7.6,8.1,5.9,8.6,5.3-7.2-7-6.7-7.6,8.1,5.9,8.6,5.3-7.2-7-6.7-7.6,8.1,5.9,8.6,5.3-7.2-7-6.7-7.6,8.1,5.9,8.6,5.3-7.2-7-6.7-7.6,8.1,5.9,8.6,5.3-7.2-7-6.7-7.6,8.1,5.9,8.6,5.3-7.2-7-6.7-7.6,8.1,5.9,8.6,5.3-7.2-7-6.7-7.6,8.1,5.9,8.6,5.3-7.2-7-6.7-7.6,8.1,5.9,8.6,5.3-7.2-7-6.7-7.6,8.1,5.9,8.6,5.3-7.2-7-6.7-7.6,8.1,5.9,8.6,5.3-7.2-7-6.7-7.6,8.1,5.9,8.6,5.3-7.2-7-6.7-7.6,8.1,5.9,8.6,5.3-7.2-7-6.7-7.6,8.1,5.9,8.6,5.3-7.2-7-6.7-7.6,8.1,5.9,8.6,5.3-7.2-7-6.7-7.6,8.1,5.9,8.6,5.3-7.2-7-6.7-7.6,8.1,5.9,8.6,5.3-7.2-7-6.7-7.6,8.1,5.9,8.6,5.3-7.2-7-6.7-7.6"/>
    <path class="st20" d="M601.5,150.5c-96.4-37.9-173.8-35.5-216.5,40.6-42.7-76.1-120.1-78.5-216.5-40.6,2.6,14.4,5.6,28.2,9.3,41.5h414.5c3.6-13.3,6.7-27.1,9.3-41.5h-.1Z"/>
  </g>
</svg>